M48
;Layer_Color=9474304
;FILE_FORMAT=4:3
METRIC,LZ
;TYPE=PLATED
T1F00S00C0.813
T2F00S00C1.016
T3F00S00C1.200
T4F00S00C1.290
T5F00S00C1.300
T6F00S00C1.420
T7F00S00C1.750
T8F00S00C3.125
%
T01
X0028995Y-0011443
Y-0006363
X0035182
Y-0011443
X0042095Y-0013136
Y-0002976
X005318Y-0009847
X005572
X005826
X0057152Y000013
Y000775
X0061573Y0007911
Y0010375
T02
X0010591Y-000283
X0046536Y-0003013
Y-0013173
X0050035Y0010047
X0044955
X0034145
X0029065
X0010591Y000733
T03
X-0005258Y-0005043
Y0005472
T04
X0022695Y-0002103
Y0000437
Y0002977
T05
X-0015555Y-0002503
X0064087Y-0001959
Y0003041
X-0015555Y0002497
T06
X0005712Y-0011934
Y-0004434
Y0003066
Y0010566
T07
X0015113Y-0012268
X0023402Y-001225
X-0010668Y0011481
X-0019609
T08
X0Y0
X0036152
M30
