M48
;Layer_Color=9474304
;FILE_FORMAT=4:3
METRIC,LZ
;TYPE=PLATED
T1F00S00C0.711
T2F00S00C0.813
T3F00S00C1.016
T4F00S00C1.200
T5F00S00C1.300
T6F00S00C1.750
T7F00S00C3.125
%
T01
X0041046Y-0005105
X0042767
X0044487
X004605Y0002286
Y0003886
Y0005486
X0040615
T02
X0019988Y0003846
Y0006386
Y0008926
T03
X0011278Y0009322
X0030582Y000696
Y001204
X0006198Y0009322
T04
X-0006392Y-0006045
Y000447
T05
X-0017958Y-0003008
Y0001992
X0042767Y-0001636
Y0003364
T06
X0005969Y-0013741
X0012014Y-0013665
X-0011506Y0013005
X-0018644Y0012852
T07
X0Y0
X003
M30
