G04 Layer_Color=65535*
%FSLAX43Y43*%
%MOMM*%
G71*
G01*
G75*
%ADD34C,0.127*%
%ADD35C,0.254*%
%ADD36C,0.152*%
%ADD37C,0.152*%
%ADD38C,0.762*%
%ADD39C,0.381*%
D34*
X15342Y9322D02*
G03*
X15342Y9322I-6604J0D01*
G01*
X37186Y9500D02*
G03*
X37186Y9500I-6604J0D01*
G01*
X15723Y433D02*
Y1906D01*
X12878D02*
X15723D01*
X12878Y433D02*
X15723D01*
X12878D02*
Y1906D01*
X42577Y9068D02*
Y10541D01*
X39732D02*
X42577D01*
X39732Y9068D02*
X42577D01*
X39732D02*
Y10541D01*
X16637Y-12040D02*
X18110D01*
X16637Y-14884D02*
Y-12040D01*
X18110Y-14884D02*
Y-12040D01*
X16637Y-14884D02*
X18110D01*
X22173Y-17605D02*
Y-11605D01*
X19273Y-13856D02*
X22173D01*
X19273Y-17605D02*
X22173D01*
X19273D02*
Y-11605D01*
X22173D01*
X30934Y-5816D02*
X36934D01*
X34683D02*
Y-2916D01*
X30934Y-5816D02*
Y-2916D01*
X36934D01*
Y-5816D02*
Y-2916D01*
X5817Y406D02*
Y1880D01*
Y406D02*
X8661D01*
X5817Y1880D02*
X8661D01*
Y406D02*
Y1880D01*
X7111Y406D02*
Y1880D01*
X45879Y6909D02*
Y8382D01*
X43034D02*
X45879D01*
X43034Y6909D02*
X45879D01*
X43034D02*
Y8382D01*
X44585Y6909D02*
Y8382D01*
X-22558Y4492D02*
X-12758D01*
X-22558Y-5508D02*
Y4492D01*
Y-508D02*
X-12758D01*
X-22558Y-5508D02*
X-12758D01*
X-21458D02*
Y4492D01*
X-15258Y-5508D02*
Y4492D01*
X37567Y-4136D02*
X47367D01*
Y5864D01*
X37567Y864D02*
X47367D01*
X37567Y5864D02*
X47367D01*
X46267Y-4136D02*
Y5864D01*
X40067Y-4136D02*
Y5864D01*
X16364Y-3049D02*
X17562D01*
X16364Y51D02*
X17562D01*
Y-3049D02*
Y-2199D01*
Y-799D02*
Y51D01*
X17137Y-9332D02*
X19287D01*
X17137Y-4232D02*
X19287D01*
Y-9332D02*
Y-4232D01*
X17137Y-9332D02*
Y-4232D01*
X12014Y406D02*
Y1880D01*
X9169D02*
X12014D01*
X9169Y406D02*
X12014D01*
X9169D02*
Y1880D01*
X12675Y-2972D02*
X14148D01*
Y-127D01*
X12675Y-2972D02*
Y-127D01*
X14148D01*
X27965Y-5639D02*
Y-4166D01*
X25121D02*
X27965D01*
X25121Y-5639D02*
X27965D01*
X25121D02*
Y-4166D01*
X39732Y6883D02*
Y8357D01*
Y6883D02*
X42577D01*
X39732Y8357D02*
X42577D01*
Y6883D02*
Y8357D01*
X19533Y-25D02*
X21006D01*
X19533Y-2870D02*
Y-25D01*
X21006Y-2870D02*
Y-25D01*
X19533Y-2870D02*
X21006D01*
X17043Y-11423D02*
Y-9950D01*
X14199D02*
X17043D01*
X14199Y-11423D02*
X17043D01*
X14199D02*
Y-9950D01*
X22428Y1621D02*
Y11151D01*
X17628D02*
X22428D01*
X17628Y1621D02*
X22428D01*
X17628D02*
Y11151D01*
X5824Y-1458D02*
X11920D01*
Y-9459D02*
Y-1458D01*
X5824Y-9459D02*
Y-1458D01*
Y-9459D02*
X11920D01*
X24023Y958D02*
X24668D01*
X22068D02*
X22713D01*
X24668Y-3614D02*
Y958D01*
X22068Y-3614D02*
Y958D01*
X11354Y7747D02*
Y6731D01*
X11861Y7239D02*
X10846D01*
X29007Y6884D02*
X27991D01*
X28499Y6376D02*
Y7391D01*
D35*
X22618Y-17661D02*
X40118D01*
X22618D02*
Y-6261D01*
X40118Y-17661D02*
Y-6261D01*
X22618D02*
X40118D01*
X-14714Y16412D02*
X-14642D01*
X-14496Y16339D01*
X-14424Y16267D01*
X-14351Y16122D01*
Y15832D01*
X-14424Y15686D01*
X-14496Y15614D01*
X-14642Y15541D01*
X-14787D01*
X-14932Y15614D01*
X-15149Y15759D01*
X-15875Y16485D01*
Y15469D01*
X-14714Y15055D02*
X-14642D01*
X-14496Y14983D01*
X-14424Y14910D01*
X-14351Y14765D01*
Y14475D01*
X-14424Y14330D01*
X-14496Y14257D01*
X-14642Y14185D01*
X-14787D01*
X-14932Y14257D01*
X-15149Y14402D01*
X-15875Y15128D01*
Y14112D01*
X-14351Y13336D02*
X-14424Y13553D01*
X-14642Y13698D01*
X-15004Y13771D01*
X-15222D01*
X-15585Y13698D01*
X-15802Y13553D01*
X-15875Y13336D01*
Y13191D01*
X-15802Y12973D01*
X-15585Y12828D01*
X-15222Y12755D01*
X-15004D01*
X-14642Y12828D01*
X-14424Y12973D01*
X-14351Y13191D01*
Y13336D01*
Y11217D02*
X-15875Y10637D01*
X-14351Y10056D02*
X-15875Y10637D01*
Y8699D02*
X-14351Y9280D01*
X-15875Y9860D01*
X-15367Y9643D02*
Y8917D01*
X-14714Y7255D02*
X-14569Y7328D01*
X-14424Y7473D01*
X-14351Y7618D01*
Y7909D01*
X-14424Y8054D01*
X-14569Y8199D01*
X-14714Y8271D01*
X-14932Y8344D01*
X-15295D01*
X-15512Y8271D01*
X-15657Y8199D01*
X-15802Y8054D01*
X-15875Y7909D01*
Y7618D01*
X-15802Y7473D01*
X-15657Y7328D01*
X-15512Y7255D01*
X-20353Y-7185D02*
X-20280D01*
X-20135Y-7257D01*
X-20063Y-7330D01*
X-19990Y-7475D01*
Y-7765D01*
X-20063Y-7910D01*
X-20135Y-7983D01*
X-20280Y-8055D01*
X-20425D01*
X-20571Y-7983D01*
X-20788Y-7838D01*
X-21514Y-7112D01*
Y-8128D01*
X-20353Y-8541D02*
X-20280D01*
X-20135Y-8614D01*
X-20063Y-8686D01*
X-19990Y-8832D01*
Y-9122D01*
X-20063Y-9267D01*
X-20135Y-9339D01*
X-20280Y-9412D01*
X-20425D01*
X-20571Y-9339D01*
X-20788Y-9194D01*
X-21514Y-8469D01*
Y-9485D01*
X-19990Y-10261D02*
X-20063Y-10043D01*
X-20280Y-9898D01*
X-20643Y-9826D01*
X-20861D01*
X-21224Y-9898D01*
X-21441Y-10043D01*
X-21514Y-10261D01*
Y-10406D01*
X-21441Y-10624D01*
X-21224Y-10769D01*
X-20861Y-10841D01*
X-20643D01*
X-20280Y-10769D01*
X-20063Y-10624D01*
X-19990Y-10406D01*
Y-10261D01*
Y-12380D02*
X-21514Y-12960D01*
X-19990Y-13540D02*
X-21514Y-12960D01*
Y-14897D02*
X-19990Y-14317D01*
X-21514Y-13736D01*
X-21006Y-13954D02*
Y-14680D01*
X-20353Y-16341D02*
X-20208Y-16269D01*
X-20063Y-16123D01*
X-19990Y-15978D01*
Y-15688D01*
X-20063Y-15543D01*
X-20208Y-15398D01*
X-20353Y-15325D01*
X-20571Y-15253D01*
X-20933D01*
X-21151Y-15325D01*
X-21296Y-15398D01*
X-21441Y-15543D01*
X-21514Y-15688D01*
Y-15978D01*
X-21441Y-16123D01*
X-21296Y-16269D01*
X-21151Y-16341D01*
D36*
X-7463Y-3130D02*
X-5322D01*
X-7463D02*
Y2052D01*
X-5322Y-3130D02*
Y2052D01*
X-7463D02*
X-5322D01*
X-11918Y-8413D02*
X-12832D01*
X-11918Y-8108D02*
Y-8718D01*
Y-8826D02*
X-12832D01*
Y-9349D01*
X-12049Y-10058D02*
X-11961Y-9971D01*
X-11918Y-9841D01*
Y-9667D01*
X-11961Y-9536D01*
X-12049Y-9449D01*
X-12136D01*
X-12223Y-9493D01*
X-12266Y-9536D01*
X-12310Y-9623D01*
X-12397Y-9884D01*
X-12440Y-9971D01*
X-12484Y-10015D01*
X-12571Y-10058D01*
X-12702D01*
X-12789Y-9971D01*
X-12832Y-9841D01*
Y-9667D01*
X-12789Y-9536D01*
X-12702Y-9449D01*
X-13137Y-10263D02*
Y-10960D01*
X-12397Y-11077D02*
Y-11469D01*
X-12353Y-11600D01*
X-12310Y-11643D01*
X-12223Y-11687D01*
X-12092D01*
X-12005Y-11643D01*
X-11961Y-11600D01*
X-11918Y-11469D01*
Y-11077D01*
X-12832D01*
X-11918Y-11891D02*
X-12832Y-12109D01*
X-11918Y-12327D02*
X-12832Y-12109D01*
X-11918Y-12327D02*
X-12832Y-12544D01*
X-11918Y-12762D02*
X-12832Y-12544D01*
X-11918Y-12945D02*
X-12832D01*
X-11918D02*
Y-13337D01*
X-11961Y-13467D01*
X-12005Y-13511D01*
X-12092Y-13554D01*
X-12179D01*
X-12266Y-13511D01*
X-12310Y-13467D01*
X-12353Y-13337D01*
Y-12945D01*
Y-13249D02*
X-12832Y-13554D01*
X-13137Y-13759D02*
Y-14455D01*
X-11918Y-14573D02*
X-12832D01*
X-11918D02*
Y-14965D01*
X-11961Y-15095D01*
X-12005Y-15139D01*
X-12092Y-15182D01*
X-12179D01*
X-12266Y-15139D01*
X-12310Y-15095D01*
X-12353Y-14965D01*
Y-14573D01*
Y-14878D02*
X-12832Y-15182D01*
X-12136Y-15431D02*
X-12092D01*
X-12005Y-15474D01*
X-11961Y-15518D01*
X-11918Y-15605D01*
Y-15779D01*
X-11961Y-15866D01*
X-12005Y-15909D01*
X-12092Y-15953D01*
X-12179D01*
X-12266Y-15909D01*
X-12397Y-15822D01*
X-12832Y-15387D01*
Y-15996D01*
X-13685Y-9477D02*
X-14600D01*
Y-10000D01*
X-13685Y-10100D02*
X-14600D01*
Y-10622D01*
X-13685Y-11288D02*
Y-10722D01*
X-14600D01*
Y-11288D01*
X-14121Y-10722D02*
Y-11071D01*
X-13685Y-11441D02*
X-14600D01*
X-13685D02*
Y-11832D01*
X-13729Y-11963D01*
X-13773Y-12007D01*
X-13860Y-12050D01*
X-13947D01*
X-14034Y-12007D01*
X-14077Y-11963D01*
X-14121Y-11832D01*
Y-11441D02*
Y-11832D01*
X-14164Y-11963D01*
X-14208Y-12007D01*
X-14295Y-12050D01*
X-14426D01*
X-14513Y-12007D01*
X-14556Y-11963D01*
X-14600Y-11832D01*
Y-11441D01*
X-13860Y-12255D02*
X-13816Y-12342D01*
X-13685Y-12472D01*
X-14600D01*
X-13860Y-12925D02*
X-13816Y-13012D01*
X-13685Y-13143D01*
X-14600D01*
X-13903Y-13639D02*
X-13860D01*
X-13773Y-13683D01*
X-13729Y-13726D01*
X-13685Y-13813D01*
Y-13987D01*
X-13729Y-14074D01*
X-13773Y-14118D01*
X-13860Y-14161D01*
X-13947D01*
X-14034Y-14118D01*
X-14164Y-14031D01*
X-14600Y-13596D01*
Y-14205D01*
X-13860Y-14410D02*
X-13816Y-14497D01*
X-13685Y-14627D01*
X-14600D01*
X23876Y-3937D02*
X22962D01*
X23876D02*
Y-4242D01*
X23832Y-4372D01*
X23745Y-4459D01*
X23658Y-4503D01*
X23528Y-4546D01*
X23310D01*
X23179Y-4503D01*
X23092Y-4459D01*
X23005Y-4372D01*
X22962Y-4242D01*
Y-3937D01*
X23876Y-5361D02*
X22962Y-4751D01*
X23876D02*
Y-5361D01*
X22962Y-4751D02*
Y-5361D01*
X23702Y-5565D02*
X23745Y-5652D01*
X23876Y-5783D01*
X22962D01*
X-8357Y-51D02*
X-9271Y-399D01*
X-8357Y-747D02*
X-9271Y-399D01*
X-8531Y-865D02*
X-8487Y-952D01*
X-8357Y-1083D01*
X-9271D01*
X20244Y14072D02*
X19329D01*
X20244D02*
Y13680D01*
X20200Y13549D01*
X20157Y13506D01*
X20069Y13462D01*
X19982D01*
X19895Y13506D01*
X19852Y13549D01*
X19808Y13680D01*
Y14072D01*
Y13767D02*
X19329Y13462D01*
X20244Y12648D02*
X19329Y13083D01*
X20244Y13258D02*
Y12648D01*
X13690Y-9957D02*
X12776D01*
X13690D02*
Y-10349D01*
X13647Y-10479D01*
X13603Y-10523D01*
X13516Y-10566D01*
X13429D01*
X13342Y-10523D01*
X13299Y-10479D01*
X13255Y-10349D01*
Y-9957D01*
Y-10262D02*
X12776Y-10566D01*
X13560Y-11293D02*
X13647Y-11250D01*
X13690Y-11119D01*
Y-11032D01*
X13647Y-10901D01*
X13516Y-10814D01*
X13299Y-10771D01*
X13081D01*
X12907Y-10814D01*
X12820Y-10901D01*
X12776Y-11032D01*
Y-11076D01*
X12820Y-11206D01*
X12907Y-11293D01*
X13037Y-11337D01*
X13081D01*
X13212Y-11293D01*
X13299Y-11206D01*
X13342Y-11076D01*
Y-11032D01*
X13299Y-10901D01*
X13212Y-10814D01*
X13081Y-10771D01*
X19177Y-2438D02*
X18263D01*
X19177D02*
Y-2830D01*
X19133Y-2961D01*
X19090Y-3004D01*
X19003Y-3048D01*
X18916D01*
X18829Y-3004D01*
X18785Y-2961D01*
X18741Y-2830D01*
Y-2438D01*
Y-2743D02*
X18263Y-3048D01*
X19177Y-3775D02*
Y-3340D01*
X18785Y-3296D01*
X18829Y-3340D01*
X18872Y-3470D01*
Y-3601D01*
X18829Y-3731D01*
X18741Y-3818D01*
X18611Y-3862D01*
X18524D01*
X18393Y-3818D01*
X18306Y-3731D01*
X18263Y-3601D01*
Y-3470D01*
X18306Y-3340D01*
X18350Y-3296D01*
X18437Y-3252D01*
X39192Y8230D02*
X38278D01*
X39192D02*
Y7838D01*
X39148Y7707D01*
X39105Y7664D01*
X39018Y7620D01*
X38931D01*
X38844Y7664D01*
X38800Y7707D01*
X38757Y7838D01*
Y8230D01*
Y7925D02*
X38278Y7620D01*
X39192Y6980D02*
X38583Y7416D01*
Y6763D01*
X39192Y6980D02*
X38278D01*
X29261Y-4242D02*
X28346D01*
X29261D02*
Y-4634D01*
X29217Y-4764D01*
X29174Y-4808D01*
X29086Y-4851D01*
X28999D01*
X28912Y-4808D01*
X28869Y-4764D01*
X28825Y-4634D01*
Y-4242D01*
Y-4547D02*
X28346Y-4851D01*
X29261Y-5143D02*
Y-5622D01*
X28912Y-5361D01*
Y-5491D01*
X28869Y-5578D01*
X28825Y-5622D01*
X28695Y-5665D01*
X28608D01*
X28477Y-5622D01*
X28390Y-5535D01*
X28346Y-5404D01*
Y-5274D01*
X28390Y-5143D01*
X28433Y-5099D01*
X28521Y-5056D01*
X13767Y-3327D02*
X12852D01*
X13767D02*
Y-3719D01*
X13723Y-3850D01*
X13680Y-3893D01*
X13592Y-3937D01*
X13505D01*
X13418Y-3893D01*
X13375Y-3850D01*
X13331Y-3719D01*
Y-3327D01*
Y-3632D02*
X12852Y-3937D01*
X13549Y-4185D02*
X13592D01*
X13680Y-4229D01*
X13723Y-4272D01*
X13767Y-4359D01*
Y-4533D01*
X13723Y-4620D01*
X13680Y-4664D01*
X13592Y-4707D01*
X13505D01*
X13418Y-4664D01*
X13288Y-4577D01*
X12852Y-4141D01*
Y-4751D01*
X11085Y56D02*
X10170D01*
X11085D02*
Y-336D01*
X11041Y-467D01*
X10998Y-510D01*
X10911Y-554D01*
X10823D01*
X10736Y-510D01*
X10693Y-467D01*
X10649Y-336D01*
Y56D01*
Y-249D02*
X10170Y-554D01*
X10911Y-758D02*
X10954Y-845D01*
X11085Y-976D01*
X10170D01*
X18593Y-10294D02*
X18549Y-10207D01*
X18462Y-10120D01*
X18375Y-10077D01*
X18244Y-10033D01*
X18027D01*
X17896Y-10077D01*
X17809Y-10120D01*
X17722Y-10207D01*
X17678Y-10294D01*
Y-10468D01*
X17722Y-10555D01*
X17809Y-10642D01*
X17896Y-10686D01*
X18027Y-10730D01*
X18244D01*
X18375Y-10686D01*
X18462Y-10642D01*
X18549Y-10555D01*
X18593Y-10468D01*
Y-10294D01*
X17853Y-10425D02*
X17591Y-10686D01*
X18375Y-10986D02*
X18418D01*
X18506Y-11030D01*
X18549Y-11073D01*
X18593Y-11161D01*
Y-11335D01*
X18549Y-11422D01*
X18506Y-11465D01*
X18418Y-11509D01*
X18331D01*
X18244Y-11465D01*
X18114Y-11378D01*
X17678Y-10943D01*
Y-11552D01*
X17069Y1339D02*
X17025Y1426D01*
X16938Y1513D01*
X16851Y1557D01*
X16720Y1600D01*
X16503D01*
X16372Y1557D01*
X16285Y1513D01*
X16198Y1426D01*
X16154Y1339D01*
Y1165D01*
X16198Y1078D01*
X16285Y991D01*
X16372Y947D01*
X16503Y904D01*
X16720D01*
X16851Y947D01*
X16938Y991D01*
X17025Y1078D01*
X17069Y1165D01*
Y1339D01*
X16329Y1208D02*
X16067Y947D01*
X16894Y690D02*
X16938Y603D01*
X17069Y473D01*
X16154D01*
X46710Y-5363D02*
X46014D01*
X45883Y-5319D01*
X45840Y-5276D01*
X45796Y-5189D01*
Y-5102D01*
X45840Y-5015D01*
X45883Y-4971D01*
X46014Y-4928D01*
X46101D01*
X46710Y-6120D02*
Y-5685D01*
X46319Y-5642D01*
X46362Y-5685D01*
X46406Y-5816D01*
Y-5946D01*
X46362Y-6077D01*
X46275Y-6164D01*
X46144Y-6207D01*
X46057D01*
X45927Y-6164D01*
X45840Y-6077D01*
X45796Y-5946D01*
Y-5816D01*
X45840Y-5685D01*
X45883Y-5642D01*
X45970Y-5598D01*
X-11477Y-3429D02*
Y-4126D01*
X-11521Y-4256D01*
X-11564Y-4300D01*
X-11651Y-4343D01*
X-11738D01*
X-11826Y-4300D01*
X-11869Y-4256D01*
X-11913Y-4126D01*
Y-4039D01*
X-11199Y-3647D02*
Y-3603D01*
X-11155Y-3516D01*
X-11112Y-3473D01*
X-11025Y-3429D01*
X-10850D01*
X-10763Y-3473D01*
X-10720Y-3516D01*
X-10676Y-3603D01*
Y-3690D01*
X-10720Y-3777D01*
X-10807Y-3908D01*
X-11242Y-4343D01*
X-10633D01*
X47168Y8331D02*
X46253D01*
X47168D02*
Y8026D01*
X47124Y7896D01*
X47037Y7809D01*
X46950Y7765D01*
X46819Y7722D01*
X46602D01*
X46471Y7765D01*
X46384Y7809D01*
X46297Y7896D01*
X46253Y8026D01*
Y8331D01*
X47168Y6995D02*
Y7430D01*
X46776Y7474D01*
X46819Y7430D01*
X46863Y7299D01*
Y7169D01*
X46819Y7038D01*
X46732Y6951D01*
X46602Y6908D01*
X46515D01*
X46384Y6951D01*
X46297Y7038D01*
X46253Y7169D01*
Y7299D01*
X46297Y7430D01*
X46340Y7474D01*
X46428Y7517D01*
X5131Y-4547D02*
X4216D01*
X5131D02*
Y-4851D01*
X5087Y-4982D01*
X5000Y-5069D01*
X4913Y-5113D01*
X4782Y-5156D01*
X4565D01*
X4434Y-5113D01*
X4347Y-5069D01*
X4260Y-4982D01*
X4216Y-4851D01*
Y-4547D01*
X5131Y-5796D02*
X4521Y-5361D01*
Y-6014D01*
X5131Y-5796D02*
X4216D01*
X36144Y-864D02*
X35230D01*
X36144D02*
Y-1168D01*
X36100Y-1299D01*
X36013Y-1386D01*
X35926Y-1430D01*
X35796Y-1473D01*
X35578D01*
X35447Y-1430D01*
X35360Y-1386D01*
X35273Y-1299D01*
X35230Y-1168D01*
Y-864D01*
X36144Y-1765D02*
Y-2244D01*
X35796Y-1982D01*
Y-2113D01*
X35752Y-2200D01*
X35709Y-2244D01*
X35578Y-2287D01*
X35491D01*
X35360Y-2244D01*
X35273Y-2157D01*
X35230Y-2026D01*
Y-1895D01*
X35273Y-1765D01*
X35317Y-1721D01*
X35404Y-1678D01*
X21107Y-9627D02*
X20193D01*
X21107D02*
Y-9931D01*
X21064Y-10062D01*
X20977Y-10149D01*
X20890Y-10193D01*
X20759Y-10236D01*
X20541D01*
X20411Y-10193D01*
X20324Y-10149D01*
X20237Y-10062D01*
X20193Y-9931D01*
Y-9627D01*
X20890Y-10484D02*
X20933D01*
X21020Y-10528D01*
X21064Y-10571D01*
X21107Y-10658D01*
Y-10832D01*
X21064Y-10920D01*
X21020Y-10963D01*
X20933Y-11007D01*
X20846D01*
X20759Y-10963D01*
X20628Y-10876D01*
X20193Y-10441D01*
Y-11050D01*
X5385Y1651D02*
X4470D01*
X5385D02*
Y1346D01*
X5341Y1216D01*
X5254Y1129D01*
X5167Y1085D01*
X5036Y1042D01*
X4819D01*
X4688Y1085D01*
X4601Y1129D01*
X4514Y1216D01*
X4470Y1346D01*
Y1651D01*
X5210Y837D02*
X5254Y750D01*
X5385Y619D01*
X4470D01*
X17537Y-15918D02*
X17624Y-15875D01*
X17711Y-15788D01*
X17754Y-15701D01*
Y-15527D01*
X17711Y-15440D01*
X17624Y-15352D01*
X17537Y-15309D01*
X17406Y-15265D01*
X17188D01*
X17058Y-15309D01*
X16971Y-15352D01*
X16884Y-15440D01*
X16840Y-15527D01*
Y-15701D01*
X16884Y-15788D01*
X16971Y-15875D01*
X17058Y-15918D01*
X17754Y-16698D02*
Y-16262D01*
X17363Y-16219D01*
X17406Y-16262D01*
X17450Y-16393D01*
Y-16524D01*
X17406Y-16654D01*
X17319Y-16741D01*
X17188Y-16785D01*
X17101D01*
X16971Y-16741D01*
X16884Y-16654D01*
X16840Y-16524D01*
Y-16393D01*
X16884Y-16262D01*
X16927Y-16219D01*
X17014Y-16175D01*
X38949Y9761D02*
X39036Y9805D01*
X39123Y9892D01*
X39167Y9979D01*
Y10153D01*
X39123Y10240D01*
X39036Y10327D01*
X38949Y10370D01*
X38818Y10414D01*
X38601D01*
X38470Y10370D01*
X38383Y10327D01*
X38296Y10240D01*
X38252Y10153D01*
Y9979D01*
X38296Y9892D01*
X38383Y9805D01*
X38470Y9761D01*
X39167Y9069D02*
X38557Y9504D01*
Y8851D01*
X39167Y9069D02*
X38252D01*
X25563Y15705D02*
X25650Y15748D01*
X25737Y15835D01*
X25781Y15922D01*
Y16096D01*
X25737Y16183D01*
X25650Y16271D01*
X25563Y16314D01*
X25433Y16358D01*
X25215D01*
X25084Y16314D01*
X24997Y16271D01*
X24910Y16183D01*
X24867Y16096D01*
Y15922D01*
X24910Y15835D01*
X24997Y15748D01*
X25084Y15705D01*
X25781Y15361D02*
Y14882D01*
X25433Y15143D01*
Y15012D01*
X25389Y14925D01*
X25345Y14882D01*
X25215Y14838D01*
X25128D01*
X24997Y14882D01*
X24910Y14969D01*
X24867Y15099D01*
Y15230D01*
X24910Y15361D01*
X24954Y15404D01*
X25041Y15448D01*
X15479Y3208D02*
X15566Y3251D01*
X15653Y3338D01*
X15697Y3425D01*
Y3600D01*
X15653Y3687D01*
X15566Y3774D01*
X15479Y3817D01*
X15349Y3861D01*
X15131D01*
X15000Y3817D01*
X14913Y3774D01*
X14826Y3687D01*
X14783Y3600D01*
Y3425D01*
X14826Y3338D01*
X14913Y3251D01*
X15000Y3208D01*
X15479Y2907D02*
X15523D01*
X15610Y2864D01*
X15653Y2820D01*
X15697Y2733D01*
Y2559D01*
X15653Y2472D01*
X15610Y2429D01*
X15523Y2385D01*
X15436D01*
X15349Y2429D01*
X15218Y2516D01*
X14783Y2951D01*
Y2341D01*
X4430Y15705D02*
X4517Y15748D01*
X4604Y15835D01*
X4648Y15922D01*
Y16096D01*
X4604Y16183D01*
X4517Y16271D01*
X4430Y16314D01*
X4300Y16358D01*
X4082D01*
X3951Y16314D01*
X3864Y16271D01*
X3777Y16183D01*
X3734Y16096D01*
Y15922D01*
X3777Y15835D01*
X3864Y15748D01*
X3951Y15705D01*
X4474Y15448D02*
X4517Y15361D01*
X4648Y15230D01*
X3734D01*
D37*
X41916Y-6386D02*
X41263D01*
X41132Y-6429D01*
X41045Y-6516D01*
X41002Y-6647D01*
Y-6734D01*
X41045Y-6864D01*
X41132Y-6951D01*
X41263Y-6995D01*
X41916D01*
X41742Y-7247D02*
X41785Y-7334D01*
X41916Y-7465D01*
X41002D01*
D38*
X42767Y12700D02*
Y15239D01*
X41497Y-13818D02*
X44036D01*
X42767Y-12549D02*
Y-15088D01*
D39*
X14339Y-4836D02*
X14321Y-4854D01*
X14339Y-4872D01*
X14357Y-4854D01*
X14339Y-4836D01*
M02*
