G04*
G04 #@! TF.GenerationSoftware,Altium Limited,Altium Designer,21.9.2 (33)*
G04*
G04 Layer_Physical_Order=3*
G04 Layer_Color=32768*
%FSLAX43Y43*%
%MOMM*%
G71*
G04*
G04 #@! TF.SameCoordinates,9D24D331-474F-48DA-8462-8B92FA671CE3*
G04*
G04*
G04 #@! TF.FilePolarity,Negative*
G04*
G01*
G75*
%ADD99C,1.016*%
%ADD100C,2.266*%
%ADD101C,4.216*%
%ADD102C,1.766*%
%ADD103C,1.981*%
%ADD104C,2.032*%
%ADD105C,1.270*%
%ADD106C,1.417*%
%ADD107C,1.216*%
%ADD108C,1.346*%
%ADD109C,1.346*%
G36*
X47850Y4000D02*
X48078Y3868D01*
X48264Y3682D01*
X48396Y3454D01*
X48464Y3200D01*
Y2937D01*
X48396Y2682D01*
X48264Y2454D01*
X48078Y2268D01*
X47850Y2136D01*
X47595Y2068D01*
X12432D01*
X12178Y2136D01*
X11950Y2268D01*
X11764Y2454D01*
X11632Y2682D01*
X11564Y2937D01*
Y3200D01*
X11632Y3454D01*
X11764Y3682D01*
X11950Y3868D01*
X12178Y4000D01*
X12432Y4068D01*
X47595D01*
X47850Y4000D01*
D02*
G37*
G36*
X58782Y4751D02*
X59055Y4637D01*
X59301Y4473D01*
X59510Y4264D01*
X59674Y4019D01*
X59787Y3746D01*
X59845Y3456D01*
Y3160D01*
X59787Y2871D01*
X59674Y2598D01*
X59510Y2352D01*
X59301Y2143D01*
X59055Y1979D01*
X58782Y1866D01*
X58492Y1808D01*
X53697D01*
X53407Y1866D01*
X53134Y1979D01*
X52888Y2143D01*
X52679Y2352D01*
X52515Y2598D01*
X52402Y2871D01*
X52345Y3160D01*
Y3456D01*
X52402Y3746D01*
X52515Y4019D01*
X52679Y4264D01*
X52888Y4473D01*
X53134Y4637D01*
X53407Y4751D01*
X53697Y4808D01*
X58492D01*
X58782Y4751D01*
D02*
G37*
D99*
X69999Y50000D02*
X70000Y0D01*
X0Y50000D02*
X69999Y50000D01*
X0Y0D02*
Y50000D01*
Y0D02*
X70000Y0D01*
X58492Y4808D02*
X58782Y4751D01*
X59055Y4637D01*
X59301Y4473D01*
X59510Y4264D01*
X59674Y4019D01*
X59787Y3746D01*
X59845Y3456D01*
Y3160D02*
Y3456D01*
X59787Y2871D02*
X59845Y3160D01*
X59674Y2598D02*
X59787Y2871D01*
X59510Y2352D02*
X59674Y2598D01*
X59301Y2143D02*
X59510Y2352D01*
X59055Y1979D02*
X59301Y2143D01*
X58782Y1866D02*
X59055Y1979D01*
X58492Y1808D02*
X58782Y1866D01*
X53697Y1808D02*
X58492D01*
X53407Y1866D02*
X53697Y1808D01*
X53134Y1979D02*
X53407Y1866D01*
X52888Y2143D02*
X53134Y1979D01*
X52679Y2352D02*
X52888Y2143D01*
X52515Y2598D02*
X52679Y2352D01*
X52402Y2871D02*
X52515Y2598D01*
X52345Y3160D02*
X52402Y2871D01*
X52345Y3160D02*
Y3456D01*
X52402Y3746D01*
X52515Y4019D01*
X52679Y4264D01*
X52888Y4473D01*
X53134Y4637D01*
X53407Y4751D01*
X53697Y4808D01*
X58492D01*
X12432Y4068D02*
X47595D01*
X12178Y4000D02*
X12432Y4068D01*
X11950Y3868D02*
X12178Y4000D01*
X11764Y3682D02*
X11950Y3868D01*
X11632Y3454D02*
X11764Y3682D01*
X11564Y3200D02*
X11632Y3454D01*
X11564Y2937D02*
Y3200D01*
Y2937D02*
X11632Y2682D01*
X11764Y2454D01*
X11950Y2268D01*
X12178Y2136D01*
X12432Y2068D01*
X47595D01*
X47850Y2136D01*
X48078Y2268D01*
X48264Y2454D01*
X48396Y2682D01*
X48464Y2937D01*
Y3200D01*
X48396Y3454D02*
X48464Y3200D01*
X48264Y3682D02*
X48396Y3454D01*
X48078Y3868D02*
X48264Y3682D01*
X47850Y4000D02*
X48078Y3868D01*
X47595Y4068D02*
X47850Y4000D01*
D100*
X18056Y10308D02*
D03*
X24293D02*
D03*
X32090Y6695D02*
D03*
X30531Y10308D02*
D03*
X14937D02*
D03*
X21175D02*
D03*
X36768D02*
D03*
X35208Y6695D02*
D03*
X33649Y10308D02*
D03*
X28971Y6695D02*
D03*
X44564D02*
D03*
X16497D02*
D03*
X46124Y10308D02*
D03*
X27412D02*
D03*
X41445Y6695D02*
D03*
X38327D02*
D03*
X19615D02*
D03*
X25852D02*
D03*
X13377D02*
D03*
X43021Y10308D02*
D03*
D101*
X18200Y41700D02*
D03*
D102*
X2600Y22600D02*
D03*
Y18600D02*
D03*
Y20600D02*
D03*
X2500Y36998D02*
D03*
Y38998D02*
D03*
Y34998D02*
D03*
Y32998D02*
D03*
X49600Y47300D02*
D03*
X47600D02*
D03*
X43600D02*
D03*
X45600D02*
D03*
X51600D02*
D03*
X34900Y45300D02*
D03*
X36900D02*
D03*
X40900D02*
D03*
X38900Y47300D02*
D03*
X40900D02*
D03*
X36900D02*
D03*
X34900D02*
D03*
X32900D02*
D03*
Y45300D02*
D03*
D103*
X20740Y46400D02*
D03*
X23280D02*
D03*
X25820D02*
D03*
X28360D02*
D03*
D104*
X53541Y10135D02*
D03*
Y12675D02*
D03*
X56081D02*
D03*
X58621Y10135D02*
D03*
Y12675D02*
D03*
D105*
X38600Y32800D02*
D03*
X67200Y15800D02*
D03*
X42400Y31800D02*
D03*
X62700D02*
D03*
X41135Y32300D02*
D03*
X47000D02*
D03*
X67700Y30200D02*
D03*
Y19400D02*
D03*
X50800Y44900D02*
D03*
X62700Y19200D02*
D03*
X46000Y25000D02*
D03*
X56386Y28208D02*
D03*
X45786Y20608D02*
D03*
X48800Y45400D02*
D03*
X21708Y15758D02*
D03*
X9096Y25600D02*
D03*
X9142Y23221D02*
D03*
X5645Y19810D02*
D03*
X15994Y34614D02*
D03*
X6200D02*
D03*
X25508Y26812D02*
D03*
X14350Y21833D02*
D03*
X61500Y38850D02*
D03*
X13380Y21641D02*
D03*
X14958Y34016D02*
D03*
X12849Y20951D02*
D03*
X12350Y21625D02*
D03*
X11850Y20951D02*
D03*
X6900Y13601D02*
D03*
X5895Y8338D02*
D03*
Y14109D02*
D03*
X17279Y34434D02*
D03*
X12713Y39329D02*
D03*
X12350Y28205D02*
D03*
X12724Y34031D02*
D03*
X12350Y32990D02*
D03*
X13850Y33473D02*
D03*
X10850Y21625D02*
D03*
X13850Y28205D02*
D03*
X14481Y28614D02*
D03*
X16678Y35108D02*
D03*
X23873Y41408D02*
D03*
X16656Y27355D02*
D03*
X16662Y26679D02*
D03*
X12350Y13601D02*
D03*
X24000Y27642D02*
D03*
Y24370D02*
D03*
X44137Y38472D02*
D03*
X67309Y7532D02*
D03*
X5412Y36998D02*
D03*
X12200Y36046D02*
D03*
X50886Y48008D02*
D03*
X14909Y42449D02*
D03*
X47000Y29200D02*
D03*
X50686Y21308D02*
D03*
Y22608D02*
D03*
Y28823D02*
D03*
X68239Y29490D02*
D03*
X67190Y28916D02*
D03*
X68239Y20249D02*
D03*
X64020Y19732D02*
D03*
X67200Y18900D02*
D03*
X66047Y19200D02*
D03*
X34253Y16278D02*
D03*
X28152Y16289D02*
D03*
X46361Y21221D02*
D03*
X52590Y33322D02*
D03*
X55700Y42933D02*
D03*
X42033Y45202D02*
D03*
X51454Y28208D02*
D03*
X51470Y20024D02*
D03*
X52651Y25194D02*
D03*
X51850Y35782D02*
D03*
X51864Y33344D02*
D03*
X51971Y39460D02*
D03*
X53860Y39982D02*
D03*
X54425Y39493D02*
D03*
X21230Y41376D02*
D03*
X14915Y47974D02*
D03*
X21774Y38847D02*
D03*
X27247Y26812D02*
D03*
X36697Y30116D02*
D03*
X66560Y30760D02*
D03*
X37802D02*
D03*
X60235Y31289D02*
D03*
X56532Y43637D02*
D03*
X44655Y45202D02*
D03*
X22148Y28990D02*
D03*
X23277Y44525D02*
D03*
X45766Y44662D02*
D03*
X45594Y45403D02*
D03*
X47600Y44903D02*
D03*
X44754Y33305D02*
D03*
X66000Y29700D02*
D03*
X63294Y33301D02*
D03*
X62572Y39458D02*
D03*
X25817Y45059D02*
D03*
X31252Y46438D02*
D03*
X58362Y46429D02*
D03*
X58363Y39386D02*
D03*
X57867Y45922D02*
D03*
X57863Y40416D02*
D03*
X60435Y39917D02*
D03*
X56536Y39920D02*
D03*
X63860Y39966D02*
D03*
X65287Y31391D02*
D03*
X64000Y32800D02*
D03*
X47205Y33283D02*
D03*
X49464Y33291D02*
D03*
X48297Y32299D02*
D03*
X48294Y33291D02*
D03*
X47191Y35945D02*
D03*
X47158Y39774D02*
D03*
X27873Y39778D02*
D03*
X19765Y36998D02*
D03*
X20347Y42016D02*
D03*
X27870Y42603D02*
D03*
X31766D02*
D03*
X32662Y42020D02*
D03*
X21671Y31753D02*
D03*
X37126Y41894D02*
D03*
X67900Y15800D02*
D03*
X21609Y30265D02*
D03*
X34890Y44375D02*
D03*
X26818Y44529D02*
D03*
X31252Y44532D02*
D03*
X14435Y32909D02*
D03*
X14822Y41558D02*
D03*
X14819Y38847D02*
D03*
X15436Y43848D02*
D03*
X14191Y43512D02*
D03*
X37802Y34434D02*
D03*
X37794Y35167D02*
D03*
X37791Y36830D02*
D03*
X63860Y36766D02*
D03*
X66176Y33179D02*
D03*
Y32242D02*
D03*
X21722Y17299D02*
D03*
X22205Y24621D02*
D03*
X12811Y10500D02*
D03*
X5397Y42449D02*
D03*
X2365Y41558D02*
D03*
X16059Y13080D02*
D03*
X15578Y19500D02*
D03*
X16555Y10252D02*
D03*
X21744Y14608D02*
D03*
X20976Y14090D02*
D03*
X19365Y16255D02*
D03*
X25043Y17914D02*
D03*
X24382D02*
D03*
X13350Y18851D02*
D03*
X17279Y20329D02*
D03*
X15994Y23744D02*
D03*
X19228Y24799D02*
D03*
X14597Y12183D02*
D03*
Y16318D02*
D03*
X5645Y22600D02*
D03*
X11367Y28614D02*
D03*
X10848Y28205D02*
D03*
X9727Y27738D02*
D03*
X7200Y26306D02*
D03*
X25508Y23706D02*
D03*
X36003Y43867D02*
D03*
X44655Y41976D02*
D03*
X33922Y41446D02*
D03*
X33857Y42476D02*
D03*
X38845Y42959D02*
D03*
X26894Y41384D02*
D03*
X32665Y43865D02*
D03*
X34886Y41408D02*
D03*
X5573Y35939D02*
D03*
X22323Y36880D02*
D03*
X23873Y43026D02*
D03*
X20737Y42916D02*
D03*
X22323Y39332D02*
D03*
X26894Y39740D02*
D03*
X46000Y23900D02*
D03*
X45786Y23208D02*
D03*
X54186Y18808D02*
D03*
X22328Y35273D02*
D03*
X21245Y35341D02*
D03*
X7178Y38368D02*
D03*
X9889Y39871D02*
D03*
X9803Y41558D02*
D03*
X5397Y38368D02*
D03*
X5620Y29604D02*
D03*
X6200Y30800D02*
D03*
X3771Y23177D02*
D03*
X25224Y38920D02*
D03*
X47705Y24922D02*
D03*
X48247Y25472D02*
D03*
X45713Y19300D02*
D03*
X51470Y25836D02*
D03*
X11850Y14109D02*
D03*
X11319Y14617D02*
D03*
X7553Y12525D02*
D03*
Y11802D02*
D03*
X16195Y8516D02*
D03*
X55700Y37161D02*
D03*
X51847Y38399D02*
D03*
X44147Y40876D02*
D03*
X45770Y40856D02*
D03*
X38850Y40876D02*
D03*
X37894Y40836D02*
D03*
X2072Y25100D02*
D03*
X2000Y6417D02*
D03*
X57225Y39011D02*
D03*
X54402Y38528D02*
D03*
X47783Y26000D02*
D03*
X27412Y5164D02*
D03*
X19504Y22600D02*
D03*
X43800Y29300D02*
D03*
X43800Y33500D02*
D03*
X39900D02*
D03*
X61143Y5443D02*
D03*
X57359Y6011D02*
D03*
X50573Y5448D02*
D03*
X36717Y27684D02*
D03*
X37895Y28181D02*
D03*
X57365Y15352D02*
D03*
X56081Y14300D02*
D03*
X59728Y11309D02*
D03*
X52010Y11339D02*
D03*
X51117Y33322D02*
D03*
X43493Y41894D02*
D03*
Y36722D02*
D03*
X37884Y41894D02*
D03*
X49500Y29700D02*
D03*
Y22700D02*
D03*
X50799Y35782D02*
D03*
X50740Y10134D02*
D03*
X31219Y5165D02*
D03*
X42743Y26001D02*
D03*
X40892Y13890D02*
D03*
X40884Y23902D02*
D03*
X45043Y15803D02*
D03*
X51337Y12454D02*
D03*
X50087Y11971D02*
D03*
X47601Y8927D02*
D03*
X41390Y19910D02*
D03*
X51980Y13138D02*
D03*
X41894Y15854D02*
D03*
X42377Y24397D02*
D03*
X47604Y14154D02*
D03*
X43321Y17141D02*
D03*
X42834Y18660D02*
D03*
X42352Y14638D02*
D03*
X50742Y15123D02*
D03*
X43809D02*
D03*
X44295Y13630D02*
D03*
X41760Y14114D02*
D03*
X28286Y13892D02*
D03*
X26342Y11968D02*
D03*
X27291Y12531D02*
D03*
X28077Y12597D02*
D03*
X62569Y36470D02*
D03*
X63299Y36263D02*
D03*
X65284Y36266D02*
D03*
D106*
X28600Y26100D02*
D03*
X31700Y14700D02*
D03*
Y13800D02*
D03*
X7286Y47808D02*
D03*
X26900Y24308D02*
D03*
X65300Y39408D02*
D03*
X53586Y45065D02*
D03*
X29100Y38100D02*
D03*
Y37300D02*
D03*
X32000Y38100D02*
D03*
Y37300D02*
D03*
X62103Y43691D02*
D03*
X60186Y45108D02*
D03*
X11468Y6726D02*
D03*
X28600Y25200D02*
D03*
X29600D02*
D03*
X51971Y44404D02*
D03*
X18403Y32108D02*
D03*
X18550Y27108D02*
D03*
X68000Y36708D02*
D03*
X32554Y16370D02*
D03*
X22986Y26608D02*
D03*
X21382Y13308D02*
D03*
X18619Y17506D02*
D03*
X9492Y21412D02*
D03*
X4686Y37708D02*
D03*
Y29808D02*
D03*
X21741Y42730D02*
D03*
X29600Y26896D02*
D03*
X23986Y33508D02*
D03*
X6400Y31900D02*
D03*
X23500Y38100D02*
D03*
X28600Y26896D02*
D03*
X29600Y26100D02*
D03*
X59053Y42908D02*
D03*
X64486Y27108D02*
D03*
X65386Y15008D02*
D03*
X53686Y26908D02*
D03*
X18500Y22649D02*
D03*
X22332Y17980D02*
D03*
X40108Y19077D02*
D03*
Y19901D02*
D03*
X39986Y26908D02*
D03*
X40070Y21390D02*
D03*
X49488Y36993D02*
D03*
X40942Y13068D02*
D03*
D107*
X24611Y15858D02*
D03*
Y14358D02*
D03*
X26111D02*
D03*
Y15858D02*
D03*
X25361Y15108D02*
D03*
D108*
X11400Y23808D02*
D03*
X12600D02*
D03*
X13800D02*
D03*
X11400Y25008D02*
D03*
X12600D02*
D03*
X13800D02*
D03*
X11400Y26208D02*
D03*
X12600D02*
D03*
X13800D02*
D03*
D109*
X54962Y15386D02*
D03*
X48908Y7618D02*
D03*
X54962Y7617D02*
D03*
M02*
