G04*
G04 #@! TF.GenerationSoftware,Altium Limited,Altium Designer,21.9.2 (33)*
G04*
G04 Layer_Physical_Order=2*
G04 Layer_Color=36540*
%FSLAX43Y43*%
%MOMM*%
G71*
G04*
G04 #@! TF.SameCoordinates,9D24D331-474F-48DA-8462-8B92FA671CE3*
G04*
G04*
G04 #@! TF.FilePolarity,Positive*
G04*
G01*
G75*
%ADD11C,0.508*%
%ADD83O,2.000X2.500*%
%ADD84C,4.500*%
%ADD85C,3.200*%
%ADD86C,1.100*%
%ADD87R,1.150X1.150*%
%ADD88O,2.000X2.500*%
%ADD89C,1.524*%
%ADD90R,1.524X1.524*%
%ADD91C,1.500*%
%ADD92R,1.500X1.500*%
%ADD93R,1.150X1.150*%
%ADD94C,0.508*%
%ADD95C,0.762*%
%ADD96C,0.300*%
%ADD97C,0.660*%
%ADD98C,0.660*%
G36*
X63678Y47170D02*
X63676D01*
X63719Y46624D01*
X63847Y46091D01*
X64056Y45585D01*
X64342Y45118D01*
X64621Y44792D01*
X64698Y44702D01*
X64698Y44702D01*
X64701Y44699D01*
X64701Y44699D01*
X65118Y44343D01*
X65204Y44290D01*
X65206Y44163D01*
X65165Y44135D01*
X65031Y43936D01*
X64984Y43700D01*
X65031Y43464D01*
X65165Y43265D01*
X65364Y43131D01*
X65600Y43084D01*
X65836Y43131D01*
X66035Y43265D01*
X66169Y43464D01*
X66213Y43687D01*
X66232Y43725D01*
X66306Y43796D01*
X66623Y43719D01*
X67169Y43676D01*
Y43679D01*
X68308D01*
Y40363D01*
X68260Y40324D01*
X68024Y40277D01*
X67825Y40143D01*
X67691Y39943D01*
X67644Y39708D01*
X67691Y39472D01*
X67825Y39272D01*
X68024Y39139D01*
X68260Y39092D01*
X68308Y39052D01*
Y36430D01*
X68181Y36362D01*
X68066Y36439D01*
X67830Y36486D01*
X67594Y36439D01*
X67395Y36305D01*
X67261Y36106D01*
X67214Y35870D01*
X67261Y35634D01*
X67395Y35435D01*
X67594Y35301D01*
X67830Y35254D01*
X68066Y35301D01*
X68181Y35378D01*
X68308Y35310D01*
Y31408D01*
X65899D01*
X65867Y31569D01*
X65893Y31606D01*
X65970Y31667D01*
X66176Y31626D01*
X66412Y31673D01*
X66612Y31806D01*
X66745Y32006D01*
X66792Y32242D01*
X66745Y32477D01*
X66652Y32618D01*
X66622Y32710D01*
X66652Y32803D01*
X66745Y32944D01*
X66792Y33179D01*
X66745Y33415D01*
X66612Y33615D01*
X66412Y33748D01*
X66176Y33795D01*
X65941Y33748D01*
X65741Y33615D01*
X65607Y33415D01*
X65561Y33179D01*
X65607Y32944D01*
X65701Y32803D01*
X65730Y32710D01*
X65701Y32618D01*
X65607Y32477D01*
X65561Y32242D01*
X65596Y32063D01*
X65570Y32027D01*
X65493Y31966D01*
X65287Y32007D01*
X65051Y31960D01*
X64851Y31826D01*
X64718Y31627D01*
X64674Y31408D01*
X63886D01*
Y32107D01*
X63984Y32187D01*
X64000Y32184D01*
X64236Y32231D01*
X64435Y32365D01*
X64569Y32564D01*
X64616Y32800D01*
X64569Y33036D01*
X64435Y33235D01*
X64236Y33369D01*
X64000Y33416D01*
X63886Y33523D01*
Y36119D01*
X63894Y36157D01*
X64096Y36197D01*
X64296Y36330D01*
X64429Y36530D01*
X64476Y36766D01*
X64429Y37001D01*
X64296Y37201D01*
X64096Y37335D01*
X63886Y37376D01*
Y39355D01*
X64096Y39397D01*
X64296Y39530D01*
X64429Y39730D01*
X64476Y39966D01*
X64429Y40201D01*
X64296Y40401D01*
X64096Y40535D01*
X63886Y40576D01*
Y41040D01*
X63804Y41122D01*
Y41308D01*
X63765Y41506D01*
X63652Y41674D01*
X63484Y41786D01*
X63286Y41826D01*
X63100D01*
X62666Y42260D01*
X62669Y42264D01*
X62716Y42500D01*
X62669Y42736D01*
X62535Y42935D01*
X62336Y43069D01*
X62100Y43116D01*
X61925Y43081D01*
X61865Y43121D01*
X61752Y43289D01*
X61584Y43401D01*
X61386Y43441D01*
X59920D01*
X59822Y43454D01*
X59763Y43478D01*
X59698Y43528D01*
X59688Y43542D01*
X59661Y43562D01*
X59561Y43662D01*
X59393Y43774D01*
X59195Y43814D01*
X58761D01*
X58563Y43774D01*
X58395Y43662D01*
X58395Y43662D01*
X58041Y43308D01*
X57886D01*
Y43011D01*
X57868Y42921D01*
Y41035D01*
X57863Y41031D01*
X57628Y40984D01*
X57428Y40851D01*
X57294Y40651D01*
X57247Y40416D01*
X57294Y40180D01*
X57428Y39980D01*
X57628Y39847D01*
X57773Y39818D01*
X57831Y39677D01*
X57794Y39622D01*
X57772Y39508D01*
X57733Y39487D01*
X57634Y39464D01*
X57461Y39580D01*
X57225Y39626D01*
X57204Y39622D01*
X57114Y39734D01*
X57151Y39920D01*
X57105Y40156D01*
X56971Y40356D01*
X56771Y40489D01*
X56536Y40536D01*
X56300Y40489D01*
X56100Y40356D01*
X55967Y40156D01*
X55920Y39920D01*
X55967Y39685D01*
X56100Y39485D01*
X56300Y39351D01*
X56536Y39304D01*
X56557Y39309D01*
X56646Y39197D01*
X56609Y39011D01*
X56656Y38775D01*
X56790Y38575D01*
X56823Y38553D01*
X56785Y38426D01*
X55831D01*
X55751Y38524D01*
X55752Y38528D01*
X55705Y38764D01*
X55571Y38963D01*
X55371Y39097D01*
X55136Y39144D01*
X55061Y39129D01*
X54985Y39243D01*
X54994Y39258D01*
X55041Y39493D01*
X54994Y39729D01*
X54861Y39929D01*
X54661Y40062D01*
X54452Y40104D01*
X54429Y40217D01*
X54295Y40417D01*
X54096Y40551D01*
X53860Y40598D01*
X53624Y40551D01*
X53425Y40417D01*
X53291Y40217D01*
X53244Y39982D01*
X53291Y39746D01*
X53425Y39546D01*
X53624Y39413D01*
X53834Y39371D01*
X53856Y39258D01*
X53956Y39109D01*
X53965Y38986D01*
X53947Y38934D01*
X53833Y38764D01*
X53786Y38528D01*
X53787Y38524D01*
X53706Y38426D01*
X52457D01*
X52416Y38635D01*
X52298Y38811D01*
X52282Y38835D01*
X52317Y38964D01*
X52407Y39024D01*
X52540Y39224D01*
X52587Y39460D01*
X52540Y39695D01*
X52407Y39895D01*
X52207Y40029D01*
X51971Y40076D01*
X51736Y40029D01*
X51536Y39895D01*
X51402Y39695D01*
X51355Y39460D01*
X51402Y39224D01*
X51520Y39048D01*
X51536Y39024D01*
X51501Y38895D01*
X51411Y38835D01*
X51278Y38635D01*
X51236Y38426D01*
X48886D01*
X48688Y38386D01*
X48520Y38274D01*
X48408Y38106D01*
X48368Y37908D01*
Y33968D01*
X48294Y33907D01*
X48058Y33860D01*
X47859Y33727D01*
X47810Y33654D01*
X47683D01*
X47641Y33718D01*
X47441Y33852D01*
X47205Y33898D01*
X46970Y33852D01*
X46770Y33718D01*
X46636Y33518D01*
X46589Y33283D01*
X46636Y33047D01*
X46758Y32865D01*
X46565Y32735D01*
X46431Y32536D01*
X46384Y32300D01*
X46431Y32064D01*
X46565Y31865D01*
X46764Y31731D01*
X47000Y31684D01*
X47236Y31731D01*
X47435Y31865D01*
X47569Y32064D01*
X47584Y32139D01*
X47713D01*
X47728Y32064D01*
X47862Y31864D01*
X48062Y31730D01*
X48297Y31683D01*
X48368Y31625D01*
Y31000D01*
X38368D01*
X38238Y31196D01*
X38038Y31329D01*
X37802Y31376D01*
X37566Y31329D01*
X37367Y31196D01*
X37236Y31000D01*
X30904D01*
Y34100D01*
X30900Y34120D01*
Y34300D01*
X30863D01*
X30752Y34466D01*
X30584Y34579D01*
X30386Y34618D01*
X22663D01*
X22625Y34745D01*
X22764Y34838D01*
X22897Y35038D01*
X22944Y35273D01*
X22897Y35509D01*
X22764Y35709D01*
X22564Y35842D01*
X22328Y35889D01*
X22093Y35842D01*
X21893Y35709D01*
X21873Y35679D01*
X21746D01*
X21680Y35777D01*
X21480Y35910D01*
X21245Y35957D01*
X21009Y35910D01*
X20809Y35777D01*
X20676Y35577D01*
X20629Y35341D01*
X20676Y35105D01*
X20809Y34906D01*
X21009Y34772D01*
X21145Y34745D01*
X21133Y34618D01*
X19886D01*
X19688Y34579D01*
X19520Y34466D01*
X19409Y34300D01*
X19386D01*
Y34190D01*
X19368Y34100D01*
Y29326D01*
X15158D01*
X15133Y29321D01*
X15107Y29323D01*
X15056Y29308D01*
X13538D01*
X13488Y29323D01*
X13462Y29321D01*
X13437Y29326D01*
X12763D01*
X12738Y29321D01*
X12712Y29323D01*
X12662Y29308D01*
X10537D01*
X10486Y29323D01*
X10460Y29321D01*
X10435Y29326D01*
X9762D01*
X9694Y29453D01*
X9769Y29564D01*
X9816Y29800D01*
X9769Y30036D01*
X9635Y30235D01*
X9436Y30369D01*
X9200Y30416D01*
X8964Y30369D01*
X8765Y30235D01*
X8631Y30036D01*
X8584Y29800D01*
X8631Y29564D01*
X8706Y29453D01*
X8638Y29326D01*
X6386D01*
Y30221D01*
X6436Y30231D01*
X6635Y30365D01*
X6769Y30564D01*
X6816Y30800D01*
X6769Y31036D01*
X6635Y31235D01*
X6436Y31369D01*
X6386Y31379D01*
Y32519D01*
X6400Y32559D01*
X6397Y32593D01*
X6404Y32626D01*
Y34039D01*
X6436Y34045D01*
X6635Y34178D01*
X6769Y34378D01*
X6816Y34614D01*
X6769Y34849D01*
X6635Y35049D01*
X6436Y35183D01*
X6404Y35189D01*
Y35281D01*
X6393Y35338D01*
X6391Y35397D01*
X6386Y35408D01*
Y36290D01*
X11503D01*
X11607Y36163D01*
X11584Y36046D01*
X11631Y35810D01*
X11765Y35611D01*
X11964Y35477D01*
X12200Y35430D01*
X12436Y35477D01*
X12635Y35611D01*
X12769Y35810D01*
X12816Y36046D01*
X12793Y36163D01*
X12897Y36290D01*
X19087D01*
X19112Y36295D01*
X19137Y36292D01*
X19188Y36308D01*
X20341D01*
X20392Y36292D01*
X20418Y36295D01*
X20443Y36290D01*
X21648D01*
X21673Y36295D01*
X21699Y36292D01*
X21750Y36308D01*
X22106D01*
X22323Y36265D01*
X22541Y36308D01*
X22897D01*
X22948Y36292D01*
X22973Y36295D01*
X22999Y36290D01*
X29386D01*
X29584Y36329D01*
X29752Y36442D01*
X29865Y36610D01*
X29904Y36808D01*
Y36918D01*
X29966Y37068D01*
X29997Y37300D01*
X29966Y37532D01*
X29904Y37682D01*
Y37718D01*
X29966Y37868D01*
X29997Y38100D01*
X29966Y38332D01*
X29904Y38482D01*
Y39808D01*
X29865Y40006D01*
X29752Y40174D01*
X29584Y40286D01*
X29386Y40326D01*
X28514D01*
X28489Y40321D01*
X28463Y40323D01*
X28412Y40308D01*
X28167D01*
X28109Y40347D01*
X27873Y40394D01*
X27638Y40347D01*
X27579Y40308D01*
X27131D01*
X27129Y40309D01*
X26894Y40356D01*
X26658Y40309D01*
X26656Y40308D01*
X26324D01*
X26273Y40323D01*
X26248Y40321D01*
X26222Y40326D01*
X22884D01*
X22810Y40311D01*
X22778Y40308D01*
X21868D01*
X21837Y40311D01*
X21762Y40326D01*
X19743D01*
X19689Y40441D01*
X19829Y40611D01*
X20010Y40950D01*
X20122Y41318D01*
X20125Y41349D01*
X20227Y41425D01*
X20347Y41401D01*
X20495Y41430D01*
X20607Y41380D01*
X20622Y41336D01*
X20661Y41141D01*
X20795Y40941D01*
X20994Y40807D01*
X21230Y40761D01*
X21466Y40807D01*
X21666Y40941D01*
X21799Y41141D01*
X21846Y41376D01*
X21799Y41612D01*
X21666Y41812D01*
X21466Y41945D01*
X21230Y41992D01*
X21082Y41963D01*
X20970Y42013D01*
X20955Y42057D01*
X20916Y42252D01*
X20995Y42362D01*
X21172Y42480D01*
X21306Y42680D01*
X21352Y42916D01*
X21306Y43152D01*
X21172Y43351D01*
X20972Y43485D01*
X20737Y43532D01*
X20501Y43485D01*
X20301Y43351D01*
X20168Y43152D01*
X20121Y42916D01*
X20168Y42680D01*
X20130Y42589D01*
X20111Y42585D01*
X20062Y42553D01*
X19939Y42583D01*
X19829Y42789D01*
X19586Y43086D01*
X19289Y43329D01*
X18950Y43510D01*
X18582Y43622D01*
X18200Y43659D01*
X17818Y43622D01*
X17450Y43510D01*
X17111Y43329D01*
X16814Y43086D01*
X16571Y42789D01*
X16390Y42450D01*
X16278Y42082D01*
X16241Y41700D01*
X16278Y41318D01*
X16390Y40950D01*
X16571Y40611D01*
X16711Y40441D01*
X16657Y40326D01*
X15698D01*
X15404Y40619D01*
Y40890D01*
X15399Y40915D01*
X15402Y40941D01*
X15386Y40992D01*
Y41315D01*
X15391Y41323D01*
X15438Y41558D01*
X15391Y41794D01*
X15386Y41801D01*
Y42077D01*
X15478Y42214D01*
X15525Y42449D01*
X15478Y42685D01*
X15386Y42822D01*
Y43191D01*
X15436Y43232D01*
X15671Y43279D01*
X15871Y43412D01*
X16005Y43612D01*
X16051Y43848D01*
X16005Y44083D01*
X15871Y44283D01*
X15671Y44417D01*
X15436Y44464D01*
X15404Y44490D01*
Y47364D01*
X15394Y47414D01*
Y47465D01*
X15386Y47484D01*
Y47592D01*
X15484Y47738D01*
X15531Y47974D01*
X15490Y48181D01*
X15559Y48308D01*
X32692D01*
X32700Y48181D01*
X32665Y48177D01*
X32446Y48086D01*
X32258Y47942D01*
X32114Y47754D01*
X32023Y47535D01*
X31992Y47300D01*
X32023Y47065D01*
X32114Y46846D01*
X32258Y46658D01*
X32446Y46514D01*
X32665Y46423D01*
X32900Y46392D01*
X33135Y46423D01*
X33354Y46514D01*
X33542Y46658D01*
X33686Y46846D01*
X33777Y47065D01*
X33808Y47300D01*
X33777Y47535D01*
X33686Y47754D01*
X33542Y47942D01*
X33354Y48086D01*
X33135Y48177D01*
X33100Y48181D01*
X33108Y48308D01*
X34692D01*
X34700Y48181D01*
X34665Y48177D01*
X34446Y48086D01*
X34258Y47942D01*
X34114Y47754D01*
X34023Y47535D01*
X33992Y47300D01*
X34023Y47065D01*
X34114Y46846D01*
X34258Y46658D01*
X34446Y46514D01*
X34665Y46423D01*
X34900Y46392D01*
X35135Y46423D01*
X35354Y46514D01*
X35542Y46658D01*
X35686Y46846D01*
X35777Y47065D01*
X35808Y47300D01*
X35777Y47535D01*
X35686Y47754D01*
X35542Y47942D01*
X35354Y48086D01*
X35135Y48177D01*
X35100Y48181D01*
X35108Y48308D01*
X36692D01*
X36700Y48181D01*
X36665Y48177D01*
X36446Y48086D01*
X36258Y47942D01*
X36114Y47754D01*
X36023Y47535D01*
X35992Y47300D01*
X36023Y47065D01*
X36114Y46846D01*
X36258Y46658D01*
X36446Y46514D01*
X36665Y46423D01*
X36900Y46392D01*
X37135Y46423D01*
X37354Y46514D01*
X37542Y46658D01*
X37686Y46846D01*
X37777Y47065D01*
X37808Y47300D01*
X37777Y47535D01*
X37686Y47754D01*
X37542Y47942D01*
X37354Y48086D01*
X37135Y48177D01*
X37100Y48181D01*
X37108Y48308D01*
X38692D01*
X38700Y48181D01*
X38665Y48177D01*
X38446Y48086D01*
X38258Y47942D01*
X38114Y47754D01*
X38023Y47535D01*
X37992Y47300D01*
X38023Y47065D01*
X38114Y46846D01*
X38258Y46658D01*
X38446Y46514D01*
X38665Y46423D01*
X38900Y46392D01*
X39135Y46423D01*
X39354Y46514D01*
X39542Y46658D01*
X39686Y46846D01*
X39777Y47065D01*
X39808Y47300D01*
X39777Y47535D01*
X39686Y47754D01*
X39542Y47942D01*
X39354Y48086D01*
X39135Y48177D01*
X39100Y48181D01*
X39108Y48308D01*
X39883D01*
X39975Y48225D01*
X39975Y48181D01*
Y46375D01*
X40399D01*
X40424Y46248D01*
X40366Y46224D01*
X40145Y46055D01*
X39976Y45834D01*
X39883Y45610D01*
X39772Y45597D01*
X39749Y45602D01*
X39686Y45754D01*
X39542Y45942D01*
X39354Y46086D01*
X39135Y46177D01*
X38900Y46208D01*
X38665Y46177D01*
X38446Y46086D01*
X38258Y45942D01*
X38114Y45754D01*
X38023Y45535D01*
X37992Y45300D01*
X38023Y45065D01*
X38070Y44953D01*
X37985Y44826D01*
X37815D01*
X37730Y44953D01*
X37777Y45065D01*
X37808Y45300D01*
X37777Y45535D01*
X37686Y45754D01*
X37542Y45942D01*
X37354Y46086D01*
X37135Y46177D01*
X36900Y46208D01*
X36665Y46177D01*
X36446Y46086D01*
X36258Y45942D01*
X36114Y45754D01*
X36023Y45535D01*
X35992Y45300D01*
X36023Y45065D01*
X36114Y44846D01*
X36226Y44700D01*
X36222Y44674D01*
X36179Y44611D01*
X36131Y44552D01*
X36086Y44467D01*
X36003Y44483D01*
X35768Y44436D01*
X35629Y44344D01*
X35576Y44357D01*
X35502Y44395D01*
X35461Y44596D01*
X35542Y44658D01*
X35686Y44846D01*
X35777Y45065D01*
X35808Y45300D01*
X35777Y45535D01*
X35686Y45754D01*
X35542Y45942D01*
X35354Y46086D01*
X35135Y46177D01*
X34900Y46208D01*
X34665Y46177D01*
X34446Y46086D01*
X34258Y45942D01*
X34114Y45754D01*
X34023Y45535D01*
X33992Y45300D01*
X34023Y45065D01*
X34070Y44953D01*
X33985Y44826D01*
X33815D01*
X33730Y44953D01*
X33777Y45065D01*
X33808Y45300D01*
X33777Y45535D01*
X33686Y45754D01*
X33542Y45942D01*
X33354Y46086D01*
X33135Y46177D01*
X32900Y46208D01*
X32665Y46177D01*
X32446Y46086D01*
X32258Y45942D01*
X32114Y45754D01*
X32023Y45535D01*
X31992Y45300D01*
X32023Y45065D01*
X32070Y44953D01*
X31985Y44826D01*
X31823D01*
X31787Y44819D01*
X31687Y44968D01*
X31488Y45101D01*
X31252Y45148D01*
X31016Y45101D01*
X30816Y44968D01*
X30683Y44768D01*
X30636Y44532D01*
X30683Y44296D01*
X30816Y44097D01*
X30974Y43991D01*
X30968Y43963D01*
Y43283D01*
X30975Y43247D01*
X30973Y43210D01*
X30995Y43148D01*
X31008Y43085D01*
X31028Y43054D01*
X31041Y43019D01*
X31084Y42971D01*
X31120Y42917D01*
X31151Y42896D01*
X31176Y42869D01*
X31203Y42848D01*
X31197Y42838D01*
X31150Y42603D01*
X31197Y42367D01*
X31203Y42357D01*
X31176Y42336D01*
X31151Y42309D01*
X31120Y42288D01*
X31084Y42234D01*
X31041Y42186D01*
X31028Y42151D01*
X31008Y42120D01*
X30995Y42057D01*
X30973Y41995D01*
X30975Y41958D01*
X30968Y41922D01*
Y36908D01*
X31008Y36710D01*
X31120Y36542D01*
X31288Y36429D01*
X31486Y36390D01*
X37191Y36390D01*
X37241Y36400D01*
X37292D01*
X37339Y36419D01*
X37339Y36419D01*
X37356Y36394D01*
X37555Y36261D01*
X37791Y36214D01*
X38027Y36261D01*
X38226Y36394D01*
X38243Y36419D01*
X38243Y36419D01*
X38290Y36400D01*
X38341Y36400D01*
X38391Y36390D01*
X41500Y36390D01*
X41698Y36429D01*
X41866Y36542D01*
X41979Y36710D01*
X42018Y36908D01*
Y38406D01*
X42003Y38481D01*
X41996Y38556D01*
X41984Y38579D01*
X41979Y38604D01*
X41936Y38668D01*
X41900Y38735D01*
X41881Y38751D01*
X41866Y38772D01*
X41803Y38815D01*
X41744Y38863D01*
X41694Y38890D01*
X41716Y39000D01*
X41694Y39110D01*
X41744Y39137D01*
X41803Y39185D01*
X41866Y39228D01*
X41881Y39249D01*
X41900Y39265D01*
X41936Y39332D01*
X41979Y39396D01*
X41984Y39421D01*
X41996Y39444D01*
X42003Y39519D01*
X42018Y39594D01*
Y41790D01*
X42898D01*
X42924Y41658D01*
X43058Y41458D01*
X43257Y41325D01*
X43493Y41278D01*
X43544Y41288D01*
X43620Y41174D01*
X43578Y41111D01*
X43531Y40876D01*
X43578Y40640D01*
X43712Y40440D01*
X43912Y40307D01*
X44147Y40260D01*
X44383Y40307D01*
X44583Y40440D01*
X44716Y40640D01*
X44763Y40876D01*
X44716Y41111D01*
X44633Y41236D01*
X44638Y41267D01*
X44697Y41368D01*
X44890Y41407D01*
X45090Y41540D01*
X45223Y41740D01*
X45233Y41790D01*
X55286D01*
X55484Y41829D01*
X55652Y41942D01*
X55765Y42110D01*
X55804Y42308D01*
Y42338D01*
X55936Y42364D01*
X56136Y42498D01*
X56269Y42698D01*
X56316Y42933D01*
X56316Y42935D01*
X56424Y43043D01*
X56532Y43021D01*
X56768Y43068D01*
X56968Y43202D01*
X57101Y43402D01*
X57148Y43637D01*
X57101Y43873D01*
X56974Y44063D01*
X57004Y44190D01*
X58029D01*
X58096Y44203D01*
X58164Y44208D01*
X58194Y44223D01*
X58228Y44229D01*
X58268Y44256D01*
X58379Y44302D01*
X58477Y44315D01*
X59479D01*
X59577Y44302D01*
X59688Y44256D01*
X59728Y44229D01*
X59762Y44223D01*
X59792Y44208D01*
X59860Y44203D01*
X59926Y44190D01*
X60686D01*
X60884Y44229D01*
X61052Y44342D01*
X61165Y44510D01*
X61204Y44708D01*
Y46308D01*
X61165Y46506D01*
X61052Y46674D01*
X60884Y46786D01*
X60686Y46826D01*
X59586D01*
X59388Y46786D01*
X59220Y46674D01*
X59108Y46506D01*
X59100Y46467D01*
X58970D01*
X58931Y46665D01*
X58797Y46864D01*
X58598Y46998D01*
X58362Y47045D01*
X58126Y46998D01*
X57927Y46864D01*
X57793Y46665D01*
X57764Y46518D01*
X57631Y46491D01*
X57431Y46358D01*
X57397Y46307D01*
X57375Y46316D01*
X57324D01*
X57274Y46326D01*
X53773D01*
X53575Y46286D01*
X53407Y46174D01*
X53287Y46055D01*
X53209Y45995D01*
X53150Y45970D01*
X53052Y45957D01*
X52386D01*
X52188Y45918D01*
X52020Y45805D01*
X51908Y45637D01*
X51868Y45439D01*
Y45127D01*
X51780Y45116D01*
X51603Y45042D01*
X51528Y44985D01*
X51388Y45038D01*
X51369Y45136D01*
X51235Y45335D01*
X51036Y45469D01*
X50800Y45516D01*
X50564Y45469D01*
X50365Y45335D01*
X50341Y45300D01*
X50304Y45316D01*
X50253D01*
X50203Y45326D01*
X49477D01*
X49416Y45400D01*
X49369Y45636D01*
X49235Y45835D01*
X49036Y45969D01*
X48800Y46016D01*
X48564Y45969D01*
X48365Y45835D01*
X48231Y45636D01*
X48184Y45400D01*
X48162Y45379D01*
X48035Y45339D01*
X47836Y45472D01*
X47600Y45519D01*
X47364Y45472D01*
X47165Y45339D01*
X47139Y45301D01*
X47104Y45316D01*
X47053D01*
X47003Y45326D01*
X46453D01*
X46428Y45321D01*
X46403Y45323D01*
X46330Y45301D01*
X46319Y45299D01*
X46209Y45396D01*
X46209Y45397D01*
X46210Y45403D01*
X46163Y45639D01*
X46030Y45839D01*
X45830Y45972D01*
X45594Y46019D01*
X45358Y45972D01*
X45159Y45839D01*
X45044Y45668D01*
X44890Y45771D01*
X44655Y45818D01*
X44419Y45771D01*
X44219Y45638D01*
X44086Y45438D01*
X44063Y45326D01*
X42625D01*
X42602Y45438D01*
X42469Y45638D01*
X42269Y45771D01*
X42033Y45818D01*
X41846Y45781D01*
X41824Y45834D01*
X41655Y46055D01*
X41434Y46224D01*
X41376Y46248D01*
X41401Y46375D01*
X41825D01*
Y48181D01*
X41825Y48225D01*
X41917Y48308D01*
X45392D01*
X45400Y48181D01*
X45365Y48177D01*
X45146Y48086D01*
X44958Y47942D01*
X44814Y47754D01*
X44723Y47535D01*
X44692Y47300D01*
X44723Y47065D01*
X44814Y46846D01*
X44958Y46658D01*
X45146Y46514D01*
X45365Y46423D01*
X45600Y46392D01*
X45835Y46423D01*
X46054Y46514D01*
X46242Y46658D01*
X46386Y46846D01*
X46477Y47065D01*
X46508Y47300D01*
X46477Y47535D01*
X46386Y47754D01*
X46242Y47942D01*
X46054Y48086D01*
X45835Y48177D01*
X45800Y48181D01*
X45808Y48308D01*
X47392D01*
X47400Y48181D01*
X47365Y48177D01*
X47146Y48086D01*
X46958Y47942D01*
X46814Y47754D01*
X46723Y47535D01*
X46692Y47300D01*
X46723Y47065D01*
X46814Y46846D01*
X46958Y46658D01*
X47146Y46514D01*
X47365Y46423D01*
X47600Y46392D01*
X47835Y46423D01*
X48054Y46514D01*
X48242Y46658D01*
X48386Y46846D01*
X48477Y47065D01*
X48508Y47300D01*
X48477Y47535D01*
X48386Y47754D01*
X48242Y47942D01*
X48054Y48086D01*
X47835Y48177D01*
X47800Y48181D01*
X47808Y48308D01*
X49392D01*
X49400Y48181D01*
X49365Y48177D01*
X49146Y48086D01*
X48958Y47942D01*
X48814Y47754D01*
X48723Y47535D01*
X48692Y47300D01*
X48723Y47065D01*
X48814Y46846D01*
X48958Y46658D01*
X49146Y46514D01*
X49365Y46423D01*
X49600Y46392D01*
X49835Y46423D01*
X50054Y46514D01*
X50242Y46658D01*
X50386Y46846D01*
X50477Y47065D01*
X50508Y47300D01*
X50500Y47360D01*
X50607Y47432D01*
X50704Y47386D01*
X50692Y47300D01*
X50723Y47065D01*
X50814Y46846D01*
X50958Y46658D01*
X51146Y46514D01*
X51365Y46423D01*
X51600Y46392D01*
X51835Y46423D01*
X52054Y46514D01*
X52242Y46658D01*
X52386Y46846D01*
X52477Y47065D01*
X52508Y47300D01*
X52477Y47535D01*
X52386Y47754D01*
X52242Y47942D01*
X52054Y48086D01*
X51835Y48177D01*
X51800Y48181D01*
X51808Y48308D01*
X63678D01*
Y47170D01*
D02*
G37*
G36*
X60686Y44708D02*
X59926D01*
X59897Y44730D01*
X59712Y44807D01*
X59513Y44833D01*
X58443D01*
X58443Y44833D01*
X58244Y44807D01*
X58058Y44730D01*
X58029Y44708D01*
X55286D01*
Y43383D01*
X55265Y43369D01*
X55131Y43169D01*
X55084Y42933D01*
X55131Y42698D01*
X55265Y42498D01*
X55286Y42484D01*
Y42308D01*
X45159D01*
X45090Y42411D01*
X44890Y42545D01*
X44655Y42592D01*
X44419Y42545D01*
X44219Y42411D01*
X44150Y42308D01*
X43943D01*
X43928Y42329D01*
X43729Y42463D01*
X43493Y42510D01*
X43257Y42463D01*
X43058Y42329D01*
X43043Y42308D01*
X41500D01*
Y39594D01*
X41388Y39534D01*
X41336Y39569D01*
X41100Y39616D01*
X40864Y39569D01*
X40665Y39435D01*
X40531Y39236D01*
X40484Y39000D01*
X40531Y38764D01*
X40665Y38565D01*
X40864Y38431D01*
X41100Y38384D01*
X41336Y38431D01*
X41388Y38466D01*
X41500Y38406D01*
Y36908D01*
X38391Y36908D01*
X38360Y37066D01*
X38226Y37265D01*
X38027Y37399D01*
X37791Y37446D01*
X37555Y37399D01*
X37356Y37265D01*
X37222Y37066D01*
X37191Y36908D01*
X31486Y36908D01*
Y41922D01*
X31613Y42017D01*
X31766Y41987D01*
X31927Y42019D01*
X32010Y42020D01*
X32065Y41926D01*
X32093Y41784D01*
X32227Y41584D01*
X32426Y41451D01*
X32662Y41404D01*
X32898Y41451D01*
X33097Y41584D01*
X33231Y41784D01*
X33278Y42020D01*
X33276Y42030D01*
X33395Y42080D01*
X33422Y42041D01*
X33486Y41997D01*
Y41882D01*
X33353Y41682D01*
X33306Y41446D01*
X33353Y41211D01*
X33486Y41011D01*
X33686Y40877D01*
X33922Y40830D01*
X34158Y40877D01*
X34311Y40980D01*
X34451Y40972D01*
X34650Y40839D01*
X34886Y40792D01*
X35122Y40839D01*
X35322Y40972D01*
X35455Y41172D01*
X35502Y41408D01*
X35455Y41643D01*
X35322Y41843D01*
X35122Y41977D01*
X34886Y42024D01*
X34650Y41977D01*
X34497Y41874D01*
X34357Y41882D01*
X34315Y41910D01*
X34292Y41931D01*
Y42041D01*
X34426Y42240D01*
X34473Y42476D01*
X34426Y42712D01*
X34292Y42911D01*
X34093Y43045D01*
X33857Y43092D01*
X33621Y43045D01*
X33422Y42911D01*
X33288Y42712D01*
X33241Y42476D01*
X33243Y42466D01*
X33124Y42416D01*
X33097Y42455D01*
X32898Y42589D01*
X32662Y42636D01*
X32501Y42604D01*
X32418Y42603D01*
X32363Y42696D01*
X32335Y42838D01*
X32201Y43038D01*
X32002Y43171D01*
X31766Y43218D01*
X31613Y43188D01*
X31486Y43283D01*
Y43963D01*
X31488Y43963D01*
X31687Y44097D01*
X31821Y44296D01*
X31823Y44308D01*
X32082D01*
X32150Y44181D01*
X32096Y44101D01*
X32050Y43865D01*
X32096Y43629D01*
X32230Y43430D01*
X32430Y43296D01*
X32665Y43249D01*
X32901Y43296D01*
X33101Y43430D01*
X33234Y43629D01*
X33281Y43865D01*
X33234Y44101D01*
X33181Y44181D01*
X33249Y44308D01*
X34287D01*
X34321Y44139D01*
X34454Y43939D01*
X34654Y43806D01*
X34890Y43759D01*
X35125Y43806D01*
X35264Y43899D01*
X35304Y43888D01*
X35394Y43833D01*
X35434Y43632D01*
X35568Y43432D01*
X35768Y43298D01*
X36003Y43251D01*
X36239Y43298D01*
X36439Y43432D01*
X36572Y43632D01*
X36619Y43867D01*
X36572Y44103D01*
X36520Y44181D01*
X36588Y44308D01*
X39229D01*
X39250Y44201D01*
X39384Y44002D01*
X39583Y43868D01*
X39819Y43821D01*
X40055Y43868D01*
X40255Y44002D01*
X40388Y44201D01*
X40435Y44437D01*
X40423Y44495D01*
X40437Y44515D01*
X40536Y44581D01*
X40645Y44535D01*
X40645Y44540D01*
X40634Y44645D01*
X40625Y44693D01*
X40613Y44737D01*
X40599Y44778D01*
X40582Y44815D01*
X40562Y44849D01*
X40540Y44880D01*
X40515Y44907D01*
X40773D01*
Y45300D01*
X41027D01*
Y44907D01*
X41285D01*
X41260Y44880D01*
X41238Y44849D01*
X41218Y44815D01*
X41201Y44778D01*
X41187Y44737D01*
X41175Y44693D01*
X41166Y44645D01*
X41159Y44594D01*
X41155Y44540D01*
X41155Y44535D01*
X41305Y44598D01*
X41472Y44726D01*
X41531Y44769D01*
X41598Y44767D01*
X41798Y44633D01*
X42033Y44586D01*
X42269Y44633D01*
X42469Y44767D01*
X42496Y44808D01*
X44192D01*
X44219Y44767D01*
X44419Y44633D01*
X44655Y44586D01*
X44890Y44633D01*
X45035Y44730D01*
X45151Y44662D01*
X45198Y44427D01*
X45331Y44227D01*
X45531Y44093D01*
X45766Y44046D01*
X46002Y44093D01*
X46202Y44227D01*
X46335Y44427D01*
X46382Y44662D01*
X46373Y44710D01*
X46453Y44808D01*
X47003D01*
X47031Y44668D01*
X47165Y44468D01*
X47364Y44334D01*
X47600Y44288D01*
X47836Y44334D01*
X48035Y44468D01*
X48169Y44668D01*
X48197Y44808D01*
X48681D01*
X48800Y44784D01*
X48919Y44808D01*
X50203D01*
X50231Y44664D01*
X50365Y44465D01*
X50564Y44331D01*
X50800Y44284D01*
X51036Y44331D01*
X51109Y44380D01*
X51245Y44318D01*
X51259Y44213D01*
X51333Y44035D01*
X51450Y43882D01*
X51603Y43765D01*
X51780Y43691D01*
X51971Y43666D01*
X52162Y43691D01*
X52340Y43765D01*
X52493Y43882D01*
X52610Y44035D01*
X52683Y44213D01*
X52709Y44404D01*
X52683Y44594D01*
X52610Y44772D01*
X52493Y44925D01*
X52386Y45007D01*
Y45439D01*
X53086D01*
X53285Y45465D01*
X53470Y45542D01*
X53630Y45664D01*
X53773Y45808D01*
X57274D01*
X57298Y45687D01*
X57431Y45487D01*
X57631Y45353D01*
X57867Y45307D01*
X58102Y45353D01*
X58302Y45487D01*
X58436Y45687D01*
X58460Y45808D01*
X59586D01*
Y46308D01*
X60686D01*
Y44708D01*
D02*
G37*
G36*
X14341Y48181D02*
X14299Y47974D01*
X14346Y47738D01*
X14480Y47538D01*
X14679Y47405D01*
X14886Y47364D01*
Y44113D01*
X14867Y44083D01*
X14826Y43878D01*
X14728Y43841D01*
X14698Y43839D01*
X14627Y43947D01*
X14427Y44081D01*
X14191Y44128D01*
X13955Y44081D01*
X13756Y43947D01*
X13622Y43747D01*
X13575Y43512D01*
X13622Y43276D01*
X13756Y43076D01*
X13955Y42943D01*
X14191Y42896D01*
X14349Y42927D01*
X14425Y42813D01*
X14340Y42685D01*
X14293Y42449D01*
X14340Y42214D01*
X14456Y42040D01*
X14387Y41994D01*
X14253Y41794D01*
X14206Y41558D01*
X14253Y41323D01*
X14387Y41123D01*
X14586Y40989D01*
X14822Y40942D01*
X14886Y40890D01*
Y39808D01*
X17720D01*
X17818Y39778D01*
X18200Y39741D01*
X18582Y39778D01*
X18680Y39808D01*
X21762D01*
X21830Y39681D01*
X21754Y39568D01*
X21732Y39454D01*
X21538Y39416D01*
X21338Y39282D01*
X21205Y39082D01*
X21158Y38847D01*
X21205Y38611D01*
X21338Y38411D01*
X21538Y38278D01*
X21774Y38231D01*
X22009Y38278D01*
X22209Y38411D01*
X22343Y38611D01*
X22365Y38724D01*
X22559Y38763D01*
X22759Y38896D01*
X22892Y39096D01*
X22939Y39332D01*
X22892Y39568D01*
X22816Y39681D01*
X22884Y39808D01*
X26222D01*
X26278Y39740D01*
X26325Y39505D01*
X26458Y39305D01*
X26658Y39171D01*
X26894Y39124D01*
X27129Y39171D01*
X27180Y39205D01*
X27215Y39186D01*
X27283Y39121D01*
X27241Y38912D01*
X27288Y38677D01*
X27421Y38477D01*
X27621Y38343D01*
X27857Y38297D01*
X28093Y38343D01*
X28292Y38477D01*
X28426Y38677D01*
X28473Y38912D01*
X28426Y39148D01*
X28300Y39336D01*
X28309Y39342D01*
X28442Y39542D01*
X28489Y39778D01*
X28514Y39808D01*
X29386D01*
Y36808D01*
X22999D01*
X22939Y36880D01*
X22892Y37116D01*
X22759Y37316D01*
X22559Y37449D01*
X22323Y37496D01*
X22087Y37449D01*
X21888Y37316D01*
X21754Y37116D01*
X21707Y36880D01*
X21648Y36808D01*
X20443D01*
X20362Y36906D01*
X20381Y36998D01*
X20334Y37233D01*
X20200Y37433D01*
X20000Y37567D01*
X19765Y37614D01*
X19529Y37567D01*
X19329Y37433D01*
X19196Y37233D01*
X19149Y36998D01*
X19167Y36906D01*
X19087Y36808D01*
X6090D01*
X6010Y36906D01*
X6028Y36998D01*
X5981Y37233D01*
X5848Y37433D01*
X5648Y37567D01*
X5412Y37614D01*
X5199Y37571D01*
Y37454D01*
X4991Y37443D01*
X4977Y37433D01*
X4944Y37385D01*
X4943Y37369D01*
X4940Y37239D01*
X4940Y37195D01*
X4836D01*
X4796Y36998D01*
X4843Y36762D01*
X4977Y36562D01*
X5083Y36491D01*
X5138Y36375D01*
X5004Y36175D01*
X4957Y35939D01*
X5004Y35704D01*
X5138Y35504D01*
X5337Y35370D01*
X5573Y35323D01*
X5759Y35360D01*
X5886Y35281D01*
Y35130D01*
X5765Y35049D01*
X5631Y34849D01*
X5584Y34614D01*
X5631Y34378D01*
X5765Y34178D01*
X5886Y34097D01*
Y32626D01*
X5766Y32534D01*
X5623Y32348D01*
X5534Y32132D01*
X5503Y31900D01*
X5534Y31668D01*
X5623Y31452D01*
X5703Y31347D01*
X5765Y31235D01*
X5631Y31036D01*
X5584Y30800D01*
X5631Y30564D01*
X5765Y30365D01*
X5779Y30355D01*
X5778Y30317D01*
X5649Y30214D01*
X5620Y30219D01*
X5384Y30173D01*
X5184Y30039D01*
X5051Y29839D01*
X5004Y29604D01*
X5051Y29368D01*
X5184Y29168D01*
X5384Y29035D01*
X5620Y28988D01*
X5759Y29015D01*
X5886Y28914D01*
Y28808D01*
X10435D01*
X10474Y28681D01*
X10413Y28640D01*
X10279Y28440D01*
X10244Y28263D01*
X10112Y28207D01*
X9963Y28307D01*
X9727Y28354D01*
X9491Y28307D01*
X9292Y28173D01*
X9158Y27973D01*
X9111Y27738D01*
X9158Y27502D01*
X9292Y27302D01*
X9491Y27169D01*
X9727Y27122D01*
X9963Y27169D01*
X10163Y27302D01*
X10296Y27502D01*
X10331Y27680D01*
X10463Y27736D01*
X10613Y27636D01*
X10848Y27589D01*
X11084Y27636D01*
X11284Y27769D01*
X11417Y27969D01*
X11425Y28010D01*
X11602Y28045D01*
X11652Y28078D01*
X11769Y28029D01*
X11781Y27969D01*
X11915Y27769D01*
X12114Y27636D01*
X12350Y27589D01*
X12586Y27636D01*
X12785Y27769D01*
X12919Y27969D01*
X12966Y28205D01*
X12919Y28440D01*
X12785Y28640D01*
X12725Y28681D01*
X12763Y28808D01*
X13437D01*
X13475Y28681D01*
X13415Y28640D01*
X13281Y28440D01*
X13234Y28205D01*
X13281Y27969D01*
X13415Y27769D01*
X13614Y27636D01*
X13850Y27589D01*
X14086Y27636D01*
X14285Y27769D01*
X14419Y27969D01*
X14427Y28009D01*
X14481Y27998D01*
X14716Y28045D01*
X14916Y28178D01*
X15050Y28378D01*
X15097Y28614D01*
X15078Y28710D01*
X15158Y28808D01*
X19886D01*
Y34100D01*
X21217D01*
X21277Y33988D01*
X21258Y33960D01*
X21211Y33724D01*
X21258Y33489D01*
X21392Y33289D01*
X21592Y33155D01*
X21827Y33109D01*
X22063Y33155D01*
X22263Y33289D01*
X22396Y33489D01*
X22443Y33724D01*
X22396Y33960D01*
X22377Y33988D01*
X22437Y34100D01*
X30386D01*
Y30490D01*
X30368Y30400D01*
Y27553D01*
X30248Y27512D01*
X30234Y27531D01*
X30048Y27673D01*
X29832Y27763D01*
X29600Y27793D01*
X29368Y27763D01*
X29152Y27673D01*
X29100Y27633D01*
X29048Y27673D01*
X28832Y27763D01*
X28600Y27793D01*
X28368Y27763D01*
X28152Y27673D01*
X27966Y27531D01*
X27823Y27345D01*
X27799Y27285D01*
X27654Y27267D01*
X27483Y27381D01*
X27247Y27428D01*
X27012Y27381D01*
X26812Y27248D01*
X26678Y27048D01*
X26632Y26812D01*
X26678Y26577D01*
X26812Y26377D01*
X27012Y26243D01*
X27247Y26196D01*
X27483Y26243D01*
X27605Y26325D01*
X27723Y26251D01*
X27703Y26100D01*
X27734Y25868D01*
X27823Y25652D01*
X27825Y25650D01*
X27823Y25648D01*
X27734Y25432D01*
X27703Y25200D01*
X27734Y24968D01*
X27823Y24752D01*
X27966Y24566D01*
X28152Y24423D01*
X28368Y24334D01*
X28600Y24303D01*
X28832Y24334D01*
X29048Y24423D01*
X29100Y24463D01*
X29152Y24423D01*
X29368Y24334D01*
X29600Y24303D01*
X29832Y24334D01*
X30048Y24423D01*
X30234Y24566D01*
X30248Y24584D01*
X30368Y24543D01*
Y24018D01*
X27273D01*
X27075Y23979D01*
X26997Y23946D01*
X26900Y23934D01*
X26818Y23944D01*
X26734Y23939D01*
X26649D01*
X26634Y23932D01*
X26616Y23931D01*
X26569Y23908D01*
X26519D01*
X26372Y24006D01*
X26136Y24053D01*
X26018Y24030D01*
X25943Y24142D01*
X25743Y24275D01*
X25508Y24322D01*
X25272Y24275D01*
X25072Y24142D01*
X24983Y24008D01*
X24933Y24018D01*
X24626D01*
X24574Y24114D01*
X24571Y24145D01*
X24616Y24370D01*
X24569Y24606D01*
X24435Y24806D01*
X24236Y24939D01*
X24000Y24986D01*
X23764Y24939D01*
X23565Y24806D01*
X23431Y24606D01*
X23384Y24370D01*
X23429Y24145D01*
X23426Y24114D01*
X23374Y24018D01*
X22619D01*
X22580Y24145D01*
X22641Y24185D01*
X22774Y24385D01*
X22821Y24621D01*
X22774Y24856D01*
X22641Y25056D01*
X22441Y25190D01*
X22205Y25237D01*
X21969Y25190D01*
X21770Y25056D01*
X21636Y24856D01*
X21589Y24621D01*
X21636Y24385D01*
X21770Y24185D01*
X21830Y24145D01*
X21792Y24018D01*
X18349D01*
X18150Y23979D01*
X17982Y23866D01*
X17608Y23491D01*
X17495Y23323D01*
X17456Y23125D01*
Y21010D01*
X17358Y20929D01*
X17279Y20945D01*
X17043Y20898D01*
X16843Y20765D01*
X16710Y20565D01*
X16663Y20329D01*
X16710Y20094D01*
X16843Y19894D01*
X17043Y19760D01*
X17279Y19713D01*
X17514Y19760D01*
X17714Y19894D01*
X17848Y20094D01*
X17850Y20107D01*
X17974Y20082D01*
X21500D01*
Y18294D01*
X21466Y18212D01*
X21435Y17980D01*
X21453Y17846D01*
X21287Y17735D01*
X21154Y17535D01*
X21107Y17299D01*
X21154Y17064D01*
X21287Y16864D01*
X21487Y16730D01*
X21500Y16728D01*
Y16508D01*
X21682D01*
Y16369D01*
X21472Y16327D01*
X21272Y16194D01*
X21139Y15994D01*
X21092Y15758D01*
X21139Y15522D01*
X21272Y15323D01*
X21385Y15247D01*
Y15095D01*
X21308Y15043D01*
X21175Y14843D01*
X21141Y14673D01*
X20976Y14706D01*
X20740Y14659D01*
X20540Y14526D01*
X20407Y14326D01*
X20360Y14090D01*
X20407Y13855D01*
X20540Y13655D01*
X20740Y13521D01*
X20869Y13496D01*
Y13562D01*
X21109Y13575D01*
Y13501D01*
X21211Y13521D01*
X21411Y13655D01*
X21545Y13855D01*
X21555Y13906D01*
X21682Y13894D01*
Y13655D01*
X21721Y13457D01*
X21721Y13457D01*
X21743Y13405D01*
X21756Y13308D01*
X21743Y13211D01*
X21721Y13159D01*
X21721Y13159D01*
X21682Y12961D01*
Y12108D01*
X15275D01*
X15213Y12183D01*
X15166Y12419D01*
X15032Y12619D01*
X14832Y12752D01*
X14597Y12799D01*
X14361Y12752D01*
X14161Y12619D01*
X14028Y12419D01*
X13981Y12183D01*
X13919Y12108D01*
X13186D01*
Y11111D01*
X13074Y11051D01*
X13047Y11069D01*
X12811Y11116D01*
X12575Y11069D01*
X12376Y10935D01*
X12242Y10736D01*
X12195Y10500D01*
X12242Y10264D01*
X12376Y10065D01*
X12575Y9931D01*
X12811Y9884D01*
X13047Y9931D01*
X13074Y9949D01*
X13186Y9889D01*
Y9580D01*
X13074Y9520D01*
X13047Y9538D01*
X12811Y9585D01*
X12575Y9538D01*
X12376Y9405D01*
X12242Y9205D01*
X12195Y8969D01*
X12242Y8734D01*
X12376Y8534D01*
X12575Y8400D01*
X12811Y8353D01*
X12978Y8387D01*
X13090Y8288D01*
X13086Y8268D01*
X13025Y8260D01*
X12696Y8124D01*
X12414Y7908D01*
X12198Y7626D01*
X12062Y7297D01*
X12016Y6945D01*
Y6445D01*
X12062Y6093D01*
X12198Y5764D01*
X12414Y5482D01*
X12696Y5266D01*
X13025Y5130D01*
X13186Y5109D01*
Y4425D01*
X12432D01*
X12386Y4416D01*
X12340Y4413D01*
X12085Y4345D01*
X12044Y4324D01*
X11999Y4309D01*
X11997Y4308D01*
X6045D01*
X5981Y4462D01*
X5695Y4929D01*
X5417Y5255D01*
X5340Y5346D01*
X5340Y5346D01*
X5336Y5349D01*
X5336Y5349D01*
X4920Y5705D01*
X4486Y5971D01*
Y8665D01*
X4584Y8746D01*
X4643Y8734D01*
X4879Y8781D01*
X5079Y8915D01*
X5212Y9114D01*
X5259Y9350D01*
X5212Y9586D01*
X5079Y9785D01*
X4879Y9919D01*
X4643Y9966D01*
X4584Y9954D01*
X4486Y10035D01*
Y21808D01*
X3255D01*
X3211Y21935D01*
X3242Y21958D01*
X3386Y22146D01*
X3477Y22365D01*
X3494Y22495D01*
X3632Y22589D01*
X3771Y22561D01*
X4007Y22608D01*
X4207Y22742D01*
X4340Y22942D01*
X4387Y23177D01*
X4340Y23413D01*
X4207Y23613D01*
X4007Y23746D01*
X3771Y23793D01*
X3536Y23746D01*
X3336Y23613D01*
X3211Y23426D01*
X3175Y23399D01*
X3083Y23364D01*
X3054Y23386D01*
X2835Y23477D01*
X2600Y23508D01*
X2365Y23477D01*
X2146Y23386D01*
X1958Y23242D01*
X1819Y23060D01*
X1806Y23059D01*
X1692Y23110D01*
Y24493D01*
X1804Y24553D01*
X1837Y24531D01*
X2072Y24484D01*
X2308Y24531D01*
X2508Y24665D01*
X2641Y24864D01*
X2688Y25100D01*
X2641Y25336D01*
X2508Y25535D01*
X2308Y25669D01*
X2072Y25716D01*
X1837Y25669D01*
X1804Y25647D01*
X1692Y25707D01*
Y30364D01*
X1819Y30407D01*
X1858Y30356D01*
X2046Y30212D01*
X2265Y30121D01*
X2500Y30090D01*
X2735Y30121D01*
X2954Y30212D01*
X3142Y30356D01*
X3232Y30474D01*
X3293Y30541D01*
X3405Y30500D01*
X3511Y30429D01*
X3747Y30382D01*
X3982Y30429D01*
X4182Y30562D01*
X4316Y30762D01*
X4363Y30998D01*
X4316Y31233D01*
X4182Y31433D01*
X3982Y31567D01*
X3747Y31614D01*
X3511Y31567D01*
X3405Y31496D01*
X3293Y31454D01*
X3232Y31522D01*
X3142Y31640D01*
X2954Y31784D01*
X2735Y31875D01*
X2500Y31906D01*
X2265Y31875D01*
X2046Y31784D01*
X1858Y31640D01*
X1819Y31588D01*
X1692Y31631D01*
Y32364D01*
X1819Y32407D01*
X1858Y32356D01*
X2046Y32212D01*
X2265Y32121D01*
X2500Y32090D01*
X2735Y32121D01*
X2954Y32212D01*
X3142Y32356D01*
X3286Y32544D01*
X3377Y32763D01*
X3408Y32998D01*
X3377Y33233D01*
X3286Y33452D01*
X3142Y33640D01*
X2954Y33784D01*
X2735Y33875D01*
X2500Y33906D01*
X2265Y33875D01*
X2046Y33784D01*
X1858Y33640D01*
X1819Y33588D01*
X1692Y33631D01*
Y34364D01*
X1819Y34407D01*
X1858Y34356D01*
X2046Y34212D01*
X2265Y34121D01*
X2500Y34090D01*
X2735Y34121D01*
X2954Y34212D01*
X3142Y34356D01*
X3286Y34544D01*
X3377Y34763D01*
X3408Y34998D01*
X3377Y35233D01*
X3286Y35452D01*
X3142Y35640D01*
X2954Y35784D01*
X2735Y35875D01*
X2500Y35906D01*
X2265Y35875D01*
X2046Y35784D01*
X1858Y35640D01*
X1819Y35588D01*
X1692Y35631D01*
Y36364D01*
X1819Y36407D01*
X1858Y36356D01*
X2046Y36212D01*
X2265Y36121D01*
X2500Y36090D01*
X2735Y36121D01*
X2954Y36212D01*
X3142Y36356D01*
X3286Y36544D01*
X3377Y36763D01*
X3408Y36998D01*
X3377Y37233D01*
X3286Y37452D01*
X3142Y37640D01*
X2954Y37784D01*
X2735Y37875D01*
X2500Y37906D01*
X2265Y37875D01*
X2046Y37784D01*
X1858Y37640D01*
X1819Y37588D01*
X1692Y37631D01*
Y38169D01*
X2373D01*
Y38998D01*
Y39827D01*
X1692D01*
Y41251D01*
X1819Y41289D01*
X1930Y41123D01*
X2130Y40989D01*
X2365Y40942D01*
X2601Y40989D01*
X2801Y41123D01*
X2934Y41323D01*
X2981Y41558D01*
X2934Y41794D01*
X2801Y41994D01*
X2601Y42127D01*
X2365Y42174D01*
X2130Y42127D01*
X1930Y41994D01*
X1819Y41827D01*
X1692Y41866D01*
Y43679D01*
X2831D01*
Y43676D01*
X3377Y43719D01*
X3909Y43847D01*
X4415Y44057D01*
X4882Y44343D01*
X5105Y44534D01*
X5185Y44549D01*
X5343Y44655D01*
X5346Y44658D01*
X5451Y44816D01*
X5467Y44895D01*
X5658Y45118D01*
X5944Y45585D01*
X6153Y46091D01*
X6281Y46624D01*
X6324Y47170D01*
X6322D01*
Y48308D01*
X14271D01*
X14341Y48181D01*
D02*
G37*
G36*
X59343Y43148D02*
X59343Y43148D01*
X59502Y43026D01*
X59687Y42949D01*
X59886Y42923D01*
X59886Y42923D01*
X61386D01*
Y41308D01*
X63286D01*
Y40176D01*
X63244Y39966D01*
X63286Y39756D01*
Y39614D01*
X63159Y39601D01*
X63141Y39694D01*
X63007Y39894D01*
X62807Y40027D01*
X62572Y40074D01*
X62336Y40027D01*
X62136Y39894D01*
X62003Y39694D01*
X61956Y39458D01*
X61964Y39419D01*
X61849Y39343D01*
X61736Y39419D01*
X61500Y39466D01*
X61264Y39419D01*
X61065Y39285D01*
X60931Y39086D01*
X60884Y38850D01*
X60931Y38614D01*
X61065Y38415D01*
X61264Y38281D01*
X61500Y38234D01*
X61736Y38281D01*
X61935Y38415D01*
X62069Y38614D01*
X62116Y38850D01*
X62108Y38889D01*
X62222Y38965D01*
X62336Y38889D01*
X62572Y38842D01*
X62807Y38889D01*
X63007Y39023D01*
X63141Y39223D01*
X63159Y39315D01*
X63286Y39303D01*
Y36976D01*
X63265Y36872D01*
X63063Y36832D01*
X63056Y36827D01*
X63004Y36905D01*
X62804Y37039D01*
X62569Y37086D01*
X62333Y37039D01*
X62133Y36905D01*
X62000Y36705D01*
X61953Y36470D01*
X62000Y36234D01*
X62133Y36034D01*
X62333Y35901D01*
X62569Y35854D01*
X62804Y35901D01*
X62811Y35905D01*
X62863Y35827D01*
X63063Y35694D01*
X63286Y35649D01*
Y33916D01*
X63058Y33870D01*
X62858Y33737D01*
X62725Y33537D01*
X62678Y33301D01*
X62725Y33066D01*
X62858Y32866D01*
X63058Y32732D01*
X63286Y32687D01*
Y32239D01*
X63159Y32200D01*
X63135Y32235D01*
X62936Y32369D01*
X62700Y32416D01*
X62464Y32369D01*
X62265Y32235D01*
X62131Y32036D01*
X62084Y31800D01*
X62131Y31564D01*
X62265Y31365D01*
X62464Y31231D01*
X62700Y31184D01*
X62936Y31231D01*
X63135Y31365D01*
X63159Y31400D01*
X63286Y31361D01*
Y30808D01*
X65122D01*
X65287Y30775D01*
X65451Y30808D01*
X65905D01*
X65944Y30760D01*
X65991Y30525D01*
X66051Y30435D01*
X66026Y30378D01*
X65980Y30312D01*
X65764Y30269D01*
X65565Y30135D01*
X65431Y29936D01*
X65384Y29700D01*
X65431Y29464D01*
X65565Y29265D01*
X65764Y29131D01*
X66000Y29084D01*
X66236Y29131D01*
X66435Y29265D01*
X66569Y29464D01*
X66616Y29700D01*
X66569Y29936D01*
X66509Y30025D01*
X66534Y30082D01*
X66580Y30148D01*
X66796Y30191D01*
X66977Y30313D01*
X67047Y30286D01*
X67094Y30250D01*
X67084Y30200D01*
X67131Y29964D01*
X67265Y29765D01*
X67464Y29631D01*
X67567Y29611D01*
X67580Y29531D01*
X67462Y29460D01*
X67426Y29485D01*
X67190Y29532D01*
X66955Y29485D01*
X66755Y29351D01*
X66621Y29151D01*
X66575Y28916D01*
X66621Y28680D01*
X66755Y28480D01*
X66955Y28347D01*
X67190Y28300D01*
X67426Y28347D01*
X67626Y28480D01*
X67759Y28680D01*
X67803Y28902D01*
X67856Y28940D01*
X67922Y28973D01*
X67955Y28953D01*
X68003Y28921D01*
X68013Y28920D01*
X68025Y28912D01*
Y20822D01*
X68003Y20818D01*
X67803Y20684D01*
X67670Y20484D01*
X67623Y20249D01*
X67646Y20134D01*
X67547Y19985D01*
X67464Y19969D01*
X67265Y19835D01*
X67131Y19636D01*
X67103Y19497D01*
X66964Y19469D01*
X66765Y19335D01*
X66630Y19363D01*
X66615Y19436D01*
X66482Y19635D01*
X66282Y19769D01*
X66047Y19816D01*
X65811Y19769D01*
X65611Y19635D01*
X65478Y19436D01*
X65431Y19200D01*
X65478Y18964D01*
X65611Y18765D01*
X65811Y18631D01*
X66047Y18584D01*
X66282Y18631D01*
X66482Y18765D01*
X66617Y18737D01*
X66631Y18664D01*
X66765Y18465D01*
X66964Y18331D01*
X67076Y18309D01*
X67184Y18200D01*
X67231Y17964D01*
X67365Y17765D01*
X67564Y17631D01*
X67800Y17584D01*
X67927Y17609D01*
X68025Y17529D01*
Y16491D01*
X67927Y16410D01*
X67900Y16416D01*
X67664Y16369D01*
X67550Y16293D01*
X67436Y16369D01*
X67200Y16416D01*
X66964Y16369D01*
X66765Y16235D01*
X66631Y16036D01*
X66584Y15800D01*
X66631Y15564D01*
X66765Y15365D01*
X66964Y15231D01*
X67200Y15184D01*
X67271Y15198D01*
X67361Y15109D01*
X67339Y15000D01*
X67386Y14764D01*
X67520Y14565D01*
X67720Y14431D01*
X67955Y14384D01*
X68025Y14327D01*
Y7679D01*
X67898Y7666D01*
X67878Y7767D01*
X67745Y7967D01*
X67545Y8101D01*
X67309Y8148D01*
X67074Y8101D01*
X66874Y7967D01*
X66740Y7767D01*
X66694Y7532D01*
X66740Y7296D01*
X66874Y7096D01*
X67074Y6963D01*
X67309Y6916D01*
X67545Y6963D01*
X67745Y7096D01*
X67878Y7296D01*
X67898Y7397D01*
X68025Y7385D01*
Y6322D01*
X67170D01*
Y6324D01*
X66624Y6281D01*
X66091Y6153D01*
X65585Y5944D01*
X65118Y5658D01*
X64792Y5379D01*
X64702Y5302D01*
X64702Y5302D01*
X64699Y5299D01*
X64699Y5299D01*
X64343Y4882D01*
X64109Y4500D01*
X63000D01*
Y18674D01*
X63135Y18765D01*
X63269Y18964D01*
X63316Y19200D01*
X63269Y19436D01*
X63135Y19635D01*
X63000Y19726D01*
Y20600D01*
X51669D01*
X51470Y20640D01*
X51271Y20600D01*
X50875D01*
X50862Y20727D01*
X50922Y20739D01*
X51122Y20872D01*
X51255Y21072D01*
X51302Y21308D01*
X51255Y21543D01*
X51122Y21743D01*
X50922Y21877D01*
X50840Y21893D01*
Y22023D01*
X50922Y22039D01*
X51122Y22172D01*
X51255Y22372D01*
X51302Y22608D01*
X51255Y22843D01*
X51122Y23043D01*
X50922Y23177D01*
X50686Y23224D01*
X50450Y23177D01*
X50251Y23043D01*
X50194Y22958D01*
X50156Y22952D01*
X50047Y22968D01*
X49935Y23135D01*
X49736Y23269D01*
X49500Y23316D01*
X49264Y23269D01*
X49065Y23135D01*
X48931Y22936D01*
X48884Y22700D01*
X48931Y22464D01*
X49065Y22265D01*
X49264Y22131D01*
X49500Y22084D01*
X49736Y22131D01*
X49935Y22265D01*
X49992Y22349D01*
X50030Y22356D01*
X50139Y22340D01*
X50251Y22172D01*
X50450Y22039D01*
X50532Y22023D01*
Y21893D01*
X50450Y21877D01*
X50251Y21743D01*
X50117Y21543D01*
X50070Y21308D01*
X50117Y21072D01*
X50251Y20872D01*
X50450Y20739D01*
X50510Y20727D01*
X50498Y20600D01*
X47616D01*
X47569Y20836D01*
X47435Y21035D01*
X47236Y21169D01*
X47154Y21185D01*
Y21315D01*
X47236Y21331D01*
X47435Y21465D01*
X47569Y21664D01*
X47616Y21900D01*
X47569Y22136D01*
X47435Y22335D01*
X47236Y22469D01*
X47000Y22516D01*
X46764Y22469D01*
X46565Y22335D01*
X46431Y22136D01*
X46384Y21900D01*
X46271Y21819D01*
X46125Y21790D01*
X45925Y21656D01*
X45792Y21457D01*
X45745Y21221D01*
X45746Y21216D01*
X45550Y21177D01*
X45351Y21043D01*
X45217Y20843D01*
X45170Y20608D01*
X45164Y20600D01*
X43338D01*
X42005Y21933D01*
X41846Y22055D01*
X41660Y22132D01*
X41461Y22158D01*
X40765D01*
X40685Y22256D01*
X40687Y22270D01*
X40641Y22505D01*
X40507Y22705D01*
X40307Y22839D01*
X40072Y22886D01*
X39836Y22839D01*
X39636Y22705D01*
X39503Y22505D01*
X39456Y22270D01*
X39458Y22256D01*
X39378Y22158D01*
X39138D01*
X38939Y22132D01*
X38753Y22055D01*
X38594Y21933D01*
X38594Y21933D01*
X38297Y21635D01*
X38174Y21476D01*
X38098Y21291D01*
X38072Y21092D01*
Y20600D01*
X35500D01*
Y12100D01*
X28798D01*
X28791Y12115D01*
X28749Y12227D01*
X28820Y12398D01*
X28846Y12597D01*
X28820Y12796D01*
X28743Y12981D01*
X28621Y13140D01*
X28545Y13198D01*
X28539Y13230D01*
X28559Y13348D01*
X28721Y13456D01*
X28855Y13656D01*
X28901Y13892D01*
X28855Y14127D01*
X28721Y14327D01*
X28521Y14461D01*
X28286Y14508D01*
X28050Y14461D01*
X27850Y14327D01*
X27717Y14127D01*
X27670Y13892D01*
X27717Y13656D01*
X27850Y13456D01*
X27828Y13318D01*
X27693Y13262D01*
X27534Y13140D01*
X27506Y13104D01*
X27291Y13147D01*
X27055Y13100D01*
X26856Y12966D01*
X26722Y12766D01*
X26692Y12613D01*
X26581Y12539D01*
X26558Y12541D01*
X26342Y12583D01*
X26107Y12537D01*
X25907Y12403D01*
X25773Y12203D01*
X25753Y12100D01*
X22200D01*
Y12961D01*
X22248Y13076D01*
X22278Y13308D01*
X22248Y13540D01*
X22200Y13655D01*
Y14203D01*
X22313Y14372D01*
X22360Y14608D01*
X22317Y14823D01*
X22522Y14864D01*
X22722Y14997D01*
X22855Y15197D01*
X22902Y15433D01*
X22855Y15668D01*
X22722Y15868D01*
X22522Y16002D01*
X22286Y16049D01*
X22200Y16151D01*
Y16927D01*
X22291Y17064D01*
X22338Y17299D01*
X22291Y17535D01*
X22200Y17672D01*
Y18252D01*
X22065D01*
X22068Y18257D01*
X22070Y18266D01*
X22072Y18279D01*
X22075Y18319D01*
X22078Y18449D01*
X22078Y18493D01*
X22200D01*
Y20314D01*
X22078D01*
X22073Y20411D01*
X22058Y20497D01*
X22032Y20574D01*
X22018Y20600D01*
X17974D01*
Y23125D01*
X18349Y23500D01*
X24933D01*
X24939Y23471D01*
X25072Y23271D01*
X25272Y23137D01*
X25508Y23090D01*
X25626Y23114D01*
X25700Y23002D01*
X25900Y22868D01*
X26136Y22821D01*
X26372Y22868D01*
X26571Y23002D01*
X26705Y23202D01*
X26750Y23431D01*
X26900Y23411D01*
X27132Y23442D01*
X27273Y23500D01*
X30886D01*
Y30400D01*
X36019D01*
X36112Y30273D01*
X36081Y30116D01*
X36128Y29880D01*
X36261Y29680D01*
X36461Y29547D01*
X36697Y29500D01*
X36932Y29547D01*
X37132Y29680D01*
X37266Y29880D01*
X37312Y30116D01*
X37290Y30228D01*
X37405Y30299D01*
X37566Y30191D01*
X37802Y30145D01*
X38038Y30191D01*
X38238Y30325D01*
X38288Y30400D01*
X48886D01*
Y32163D01*
X48913Y32299D01*
X48886Y32436D01*
Y32840D01*
X49013Y32878D01*
X49028Y32856D01*
X49228Y32722D01*
X49464Y32675D01*
X49699Y32722D01*
X49899Y32856D01*
X50033Y33055D01*
X50080Y33291D01*
X50033Y33527D01*
X49899Y33727D01*
X49699Y33860D01*
X49464Y33907D01*
X49228Y33860D01*
X49028Y33727D01*
X49013Y33704D01*
X48886Y33742D01*
Y37908D01*
X51495D01*
X51611Y37830D01*
X51847Y37783D01*
X52083Y37830D01*
X52199Y37908D01*
X58386D01*
Y38775D01*
X58599Y38817D01*
X58799Y38951D01*
X58932Y39151D01*
X58979Y39386D01*
X58932Y39622D01*
X58799Y39822D01*
X58599Y39955D01*
X58418Y39991D01*
X58391Y40118D01*
X58432Y40180D01*
X58479Y40416D01*
X58432Y40651D01*
X58386Y40720D01*
Y42921D01*
X58761Y43296D01*
X59195D01*
X59343Y43148D01*
D02*
G37*
G36*
X40347Y21654D02*
X40356Y21652D01*
X40369Y21650D01*
X40408Y21647D01*
X40539Y21644D01*
X40582Y21644D01*
Y21136D01*
X40342Y21123D01*
X40070Y21390D01*
X40342Y21656D01*
X40347Y21654D01*
D02*
G37*
G36*
X40070Y21390D02*
X39798Y21123D01*
X39557Y21136D01*
Y21644D01*
X39601Y21644D01*
X39731Y21647D01*
X39771Y21650D01*
X39784Y21652D01*
X39793Y21654D01*
X39798Y21656D01*
X40070Y21390D01*
D02*
G37*
G36*
X61500Y6078D02*
X61395Y6012D01*
X61373Y6014D01*
X61143Y6059D01*
X60907Y6012D01*
X60708Y5879D01*
X60574Y5679D01*
X60527Y5443D01*
X60574Y5208D01*
X60708Y5008D01*
X60907Y4874D01*
X61143Y4828D01*
X61373Y4873D01*
X61395Y4875D01*
X61500Y4809D01*
Y4500D01*
X59773D01*
X59762Y4517D01*
X59553Y4726D01*
X59524Y4745D01*
X59499Y4770D01*
X59253Y4934D01*
X59221Y4948D01*
X59192Y4967D01*
X58919Y5080D01*
X58884Y5087D01*
X58852Y5101D01*
X58562Y5158D01*
X58527D01*
X58492Y5165D01*
X53697D01*
X53662Y5158D01*
X53627D01*
X53337Y5101D01*
X53305Y5087D01*
X53271Y5080D01*
X52998Y4967D01*
X52968Y4948D01*
X52936Y4934D01*
X52690Y4770D01*
X52665Y4745D01*
X52636Y4726D01*
X52427Y4517D01*
X52416Y4500D01*
X36200D01*
Y5520D01*
X36387Y5764D01*
X36523Y6093D01*
X36570Y6445D01*
Y6945D01*
X36523Y7297D01*
X36387Y7626D01*
X36200Y7870D01*
Y8548D01*
X36302Y8623D01*
X36473Y8572D01*
X36768Y8543D01*
X37064Y8572D01*
X37348Y8658D01*
X37610Y8798D01*
X37840Y8986D01*
X38028Y9216D01*
X38168Y9478D01*
X38255Y9762D01*
X38284Y10058D01*
Y10558D01*
X38255Y10853D01*
X38168Y11138D01*
X38028Y11400D01*
X37840Y11629D01*
X37610Y11818D01*
X37348Y11958D01*
X37064Y12044D01*
X36768Y12073D01*
X36473Y12044D01*
X36302Y11992D01*
X36200Y12068D01*
Y20000D01*
X39128D01*
X39211Y19905D01*
X39211Y19901D01*
X39241Y19669D01*
X39316Y19489D01*
X39241Y19309D01*
X39211Y19077D01*
X39241Y18845D01*
X39331Y18628D01*
X39474Y18443D01*
X39659Y18300D01*
X39875Y18211D01*
X40108Y18180D01*
X40340Y18211D01*
X40556Y18300D01*
X40742Y18443D01*
X40884Y18628D01*
X40974Y18845D01*
X41004Y19077D01*
X40974Y19309D01*
X40973Y19309D01*
X41076Y19394D01*
X41154Y19341D01*
X41390Y19295D01*
X41625Y19341D01*
X41825Y19475D01*
X41959Y19675D01*
X42005Y19910D01*
X42079Y20000D01*
X45485D01*
X45498Y19873D01*
X45478Y19869D01*
X45278Y19735D01*
X45144Y19536D01*
X45097Y19300D01*
X45144Y19064D01*
X45278Y18865D01*
X45478Y18731D01*
X45713Y18684D01*
X45949Y18731D01*
X46149Y18865D01*
X46282Y19064D01*
X46302Y19163D01*
X46428Y19164D01*
X46431Y19164D01*
X46565Y18965D01*
X46670Y18894D01*
X46643Y18759D01*
X46639Y18759D01*
X46440Y18625D01*
X46306Y18425D01*
X46259Y18190D01*
X46306Y17954D01*
X46440Y17754D01*
X46639Y17621D01*
X46875Y17574D01*
X47111Y17621D01*
X47310Y17754D01*
X47444Y17954D01*
X47491Y18190D01*
X47444Y18425D01*
X47310Y18625D01*
X47205Y18695D01*
X47232Y18830D01*
X47236Y18831D01*
X47435Y18965D01*
X47569Y19164D01*
X47616Y19400D01*
X47569Y19636D01*
X47435Y19835D01*
X47379Y19873D01*
X47418Y20000D01*
X50859D01*
X50901Y19788D01*
X51035Y19588D01*
X51235Y19455D01*
X51470Y19408D01*
X51706Y19455D01*
X51906Y19588D01*
X52039Y19788D01*
X52081Y20000D01*
X61500D01*
Y6078D01*
D02*
G37*
%LPC*%
G36*
X44429Y48129D02*
X43727D01*
Y47427D01*
X44429D01*
Y48129D01*
D02*
G37*
G36*
X43473D02*
X42771D01*
Y47427D01*
X43473D01*
Y48129D01*
D02*
G37*
G36*
X20740Y47522D02*
X20450Y47483D01*
X20179Y47371D01*
X19947Y47193D01*
X19769Y46961D01*
X19766Y46955D01*
X19645Y46918D01*
X19557Y46976D01*
X19321Y47023D01*
X19312Y47031D01*
Y47512D01*
X17088D01*
Y45288D01*
X19312D01*
Y45784D01*
X19321Y45791D01*
X19557Y45838D01*
X19640Y45894D01*
X19761Y45857D01*
X19769Y45839D01*
X19947Y45607D01*
X20179Y45429D01*
X20450Y45317D01*
X20740Y45278D01*
X21030Y45317D01*
X21301Y45429D01*
X21533Y45607D01*
X21711Y45839D01*
X21823Y46110D01*
X21862Y46400D01*
X21823Y46690D01*
X21711Y46961D01*
X21533Y47193D01*
X21301Y47371D01*
X21030Y47483D01*
X20740Y47522D01*
D02*
G37*
G36*
X28487Y47408D02*
Y47152D01*
X28492Y47151D01*
X28487Y47149D01*
Y46527D01*
X29368D01*
X29350Y46665D01*
X29247Y46912D01*
X29085Y47125D01*
X28872Y47287D01*
X28625Y47390D01*
X28487Y47408D01*
D02*
G37*
G36*
X27911Y47314D02*
X27848Y47287D01*
X27635Y47125D01*
X27473Y46912D01*
X27370Y46665D01*
X27352Y46527D01*
X28233D01*
Y47082D01*
X27875Y46988D01*
X27882Y46997D01*
X27888Y47014D01*
X27894Y47038D01*
X27898Y47070D01*
X27906Y47154D01*
X27911Y47314D01*
D02*
G37*
G36*
X44429Y47173D02*
X43727D01*
Y46471D01*
X44429D01*
Y47173D01*
D02*
G37*
G36*
X43473D02*
X42771D01*
Y46471D01*
X43473D01*
Y47173D01*
D02*
G37*
G36*
X29368Y46273D02*
X29128D01*
X29131Y46241D01*
X29143Y46170D01*
X29160Y46102D01*
X29182Y46036D01*
X29210Y45973D01*
X29242Y45912D01*
X29252Y45898D01*
X29350Y46135D01*
X29368Y46273D01*
D02*
G37*
G36*
X31252Y47054D02*
X31016Y47007D01*
X30816Y46874D01*
X30683Y46674D01*
X30636Y46438D01*
X30683Y46203D01*
X30816Y46003D01*
X31016Y45869D01*
X31252Y45823D01*
X31488Y45869D01*
X31687Y46003D01*
X31821Y46203D01*
X31868Y46438D01*
X31821Y46674D01*
X31687Y46874D01*
X31488Y47007D01*
X31252Y47054D01*
D02*
G37*
G36*
X29003Y46273D02*
X28487D01*
Y45757D01*
X29003Y46273D01*
D02*
G37*
G36*
X28487Y45632D02*
Y45392D01*
X28625Y45410D01*
X28862Y45508D01*
X28848Y45518D01*
X28787Y45550D01*
X28724Y45578D01*
X28658Y45600D01*
X28590Y45617D01*
X28519Y45629D01*
X28487Y45632D01*
D02*
G37*
G36*
X28233Y46273D02*
X27352D01*
X27370Y46135D01*
X27473Y45888D01*
X27635Y45675D01*
X27848Y45513D01*
X28095Y45410D01*
X28233Y45392D01*
Y46273D01*
D02*
G37*
G36*
X23280Y47522D02*
X22990Y47483D01*
X22719Y47371D01*
X22487Y47193D01*
X22309Y46961D01*
X22197Y46690D01*
X22158Y46400D01*
X22197Y46110D01*
X22309Y45839D01*
X22487Y45607D01*
X22719Y45429D01*
X22990Y45317D01*
X23280Y45278D01*
X23570Y45317D01*
X23841Y45429D01*
X24073Y45607D01*
X24251Y45839D01*
X24363Y46110D01*
X24402Y46400D01*
X24363Y46690D01*
X24251Y46961D01*
X24073Y47193D01*
X23841Y47371D01*
X23570Y47483D01*
X23280Y47522D01*
D02*
G37*
G36*
X25820D02*
X25530Y47483D01*
X25259Y47371D01*
X25027Y47193D01*
X24849Y46961D01*
X24737Y46690D01*
X24698Y46400D01*
X24737Y46110D01*
X24849Y45839D01*
X25027Y45607D01*
X25259Y45429D01*
X25284Y45349D01*
X25248Y45295D01*
X25201Y45059D01*
X25248Y44824D01*
X25381Y44624D01*
X25581Y44490D01*
X25817Y44443D01*
X26052Y44490D01*
X26079Y44508D01*
X26218Y44448D01*
X26249Y44293D01*
X26383Y44093D01*
X26583Y43960D01*
X26818Y43913D01*
X27054Y43960D01*
X27254Y44093D01*
X27387Y44293D01*
X27434Y44529D01*
X27387Y44764D01*
X27254Y44964D01*
X27054Y45098D01*
X26818Y45145D01*
X26583Y45098D01*
X26556Y45080D01*
X26416Y45139D01*
X26386Y45295D01*
X26354Y45342D01*
X26381Y45429D01*
X26613Y45607D01*
X26791Y45839D01*
X26903Y46110D01*
X26942Y46400D01*
X26903Y46690D01*
X26791Y46961D01*
X26613Y47193D01*
X26381Y47371D01*
X26110Y47483D01*
X25820Y47522D01*
D02*
G37*
G36*
X23277Y45141D02*
X23041Y45094D01*
X22841Y44961D01*
X22708Y44761D01*
X22661Y44525D01*
X22708Y44290D01*
X22841Y44090D01*
X23041Y43956D01*
X23277Y43909D01*
X23512Y43956D01*
X23712Y44090D01*
X23846Y44290D01*
X23892Y44525D01*
X23846Y44761D01*
X23712Y44961D01*
X23512Y45094D01*
X23277Y45141D01*
D02*
G37*
G36*
X23873Y43642D02*
X23637Y43595D01*
X23438Y43461D01*
X23304Y43261D01*
X23257Y43026D01*
X23304Y42790D01*
X23438Y42590D01*
X23637Y42457D01*
X23873Y42410D01*
X24109Y42457D01*
X24309Y42590D01*
X24442Y42790D01*
X24489Y43026D01*
X24442Y43261D01*
X24309Y43461D01*
X24109Y43595D01*
X23873Y43642D01*
D02*
G37*
G36*
X27870Y43218D02*
X27634Y43171D01*
X27434Y43038D01*
X27301Y42838D01*
X27254Y42603D01*
X27301Y42367D01*
X27434Y42167D01*
X27634Y42034D01*
X27870Y41987D01*
X28106Y42034D01*
X28305Y42167D01*
X28439Y42367D01*
X28486Y42603D01*
X28439Y42838D01*
X28305Y43038D01*
X28106Y43171D01*
X27870Y43218D01*
D02*
G37*
G36*
X24882Y42023D02*
X24646Y41977D01*
X24457Y41850D01*
X24417Y41835D01*
X24338D01*
X24298Y41850D01*
X24109Y41977D01*
X23873Y42023D01*
X23637Y41977D01*
X23438Y41843D01*
X23304Y41643D01*
X23257Y41408D01*
X23304Y41172D01*
X23438Y40972D01*
X23637Y40839D01*
X23873Y40792D01*
X24109Y40839D01*
X24298Y40965D01*
X24338Y40980D01*
X24417D01*
X24457Y40965D01*
X24646Y40839D01*
X24882Y40792D01*
X25118Y40839D01*
X25318Y40972D01*
X25451Y41172D01*
X25498Y41408D01*
X25451Y41643D01*
X25318Y41843D01*
X25118Y41977D01*
X24882Y42023D01*
D02*
G37*
G36*
X26894Y41999D02*
X26658Y41953D01*
X26458Y41819D01*
X26325Y41619D01*
X26278Y41384D01*
X26325Y41148D01*
X26458Y40948D01*
X26658Y40815D01*
X26894Y40768D01*
X27129Y40815D01*
X27329Y40948D01*
X27463Y41148D01*
X27509Y41384D01*
X27463Y41619D01*
X27329Y41819D01*
X27129Y41953D01*
X26894Y41999D01*
D02*
G37*
G36*
X45770Y41472D02*
X45534Y41425D01*
X45334Y41292D01*
X45201Y41092D01*
X45154Y40856D01*
X45201Y40620D01*
X45334Y40421D01*
X45534Y40287D01*
X45770Y40240D01*
X46006Y40287D01*
X46205Y40421D01*
X46339Y40620D01*
X46386Y40856D01*
X46339Y41092D01*
X46205Y41292D01*
X46006Y41425D01*
X45770Y41472D01*
D02*
G37*
G36*
X47158Y40390D02*
X46922Y40343D01*
X46722Y40210D01*
X46589Y40010D01*
X46542Y39774D01*
X46589Y39539D01*
X46722Y39339D01*
X46922Y39205D01*
X47158Y39158D01*
X47393Y39205D01*
X47593Y39339D01*
X47727Y39539D01*
X47773Y39774D01*
X47727Y40010D01*
X47593Y40210D01*
X47393Y40343D01*
X47158Y40390D01*
D02*
G37*
G36*
X44137Y39088D02*
X43901Y39041D01*
X43702Y38907D01*
X43568Y38707D01*
X43521Y38472D01*
X43568Y38236D01*
X43702Y38036D01*
X43901Y37903D01*
X44137Y37856D01*
X44373Y37903D01*
X44572Y38036D01*
X44706Y38236D01*
X44753Y38472D01*
X44706Y38707D01*
X44572Y38907D01*
X44373Y39041D01*
X44137Y39088D01*
D02*
G37*
G36*
X43493Y37338D02*
X43257Y37291D01*
X43058Y37157D01*
X42924Y36958D01*
X42877Y36722D01*
X42924Y36486D01*
X43058Y36287D01*
X43257Y36153D01*
X43493Y36106D01*
X43729Y36153D01*
X43928Y36287D01*
X44062Y36486D01*
X44109Y36722D01*
X44062Y36958D01*
X43928Y37157D01*
X43729Y37291D01*
X43493Y37338D01*
D02*
G37*
G36*
X65284Y36881D02*
X65049Y36835D01*
X64849Y36701D01*
X64715Y36501D01*
X64669Y36266D01*
X64715Y36030D01*
X64849Y35830D01*
X65049Y35697D01*
X65284Y35650D01*
X65520Y35697D01*
X65720Y35830D01*
X65853Y36030D01*
X65900Y36266D01*
X65853Y36501D01*
X65720Y36701D01*
X65520Y36835D01*
X65284Y36881D01*
D02*
G37*
G36*
X47191Y36561D02*
X46956Y36514D01*
X46756Y36381D01*
X46622Y36181D01*
X46576Y35945D01*
X46622Y35710D01*
X46756Y35510D01*
X46956Y35376D01*
X47191Y35330D01*
X47427Y35376D01*
X47627Y35510D01*
X47760Y35710D01*
X47807Y35945D01*
X47760Y36181D01*
X47627Y36381D01*
X47427Y36514D01*
X47191Y36561D01*
D02*
G37*
G36*
X16678Y35723D02*
X16442Y35677D01*
X16242Y35543D01*
X16109Y35343D01*
X16083Y35212D01*
X15994Y35230D01*
X15759Y35183D01*
X15559Y35049D01*
X15426Y34849D01*
X15379Y34614D01*
X15264Y34538D01*
X15193Y34585D01*
X14958Y34632D01*
X14722Y34585D01*
X14522Y34452D01*
X14389Y34252D01*
X14342Y34016D01*
X14226Y33948D01*
X14086Y34042D01*
X13850Y34088D01*
X13614Y34042D01*
X13449Y33931D01*
X13333Y33997D01*
X13340Y34031D01*
X13293Y34266D01*
X13159Y34466D01*
X12959Y34600D01*
X12724Y34646D01*
X12488Y34600D01*
X12288Y34466D01*
X12155Y34266D01*
X12108Y34031D01*
X12155Y33795D01*
X12213Y33708D01*
X12154Y33567D01*
X12114Y33559D01*
X11915Y33425D01*
X11781Y33226D01*
X11734Y32990D01*
X11781Y32754D01*
X11915Y32555D01*
X12114Y32421D01*
X12350Y32374D01*
X12586Y32421D01*
X12785Y32555D01*
X12919Y32754D01*
X12966Y32990D01*
X12919Y33226D01*
X12861Y33313D01*
X12919Y33454D01*
X12959Y33462D01*
X13124Y33572D01*
X13241Y33506D01*
X13234Y33473D01*
X13281Y33237D01*
X13415Y33037D01*
X13614Y32904D01*
X13829Y32861D01*
X13866Y32674D01*
X14000Y32474D01*
X14200Y32340D01*
X14435Y32294D01*
X14671Y32340D01*
X14871Y32474D01*
X15004Y32674D01*
X15051Y32909D01*
X15004Y33145D01*
X14914Y33279D01*
X14932Y33329D01*
X14983Y33405D01*
X15193Y33447D01*
X15393Y33581D01*
X15527Y33780D01*
X15573Y34016D01*
X15688Y34092D01*
X15759Y34045D01*
X15994Y33998D01*
X16230Y34045D01*
X16430Y34178D01*
X16549Y34356D01*
X16639Y34355D01*
X16681Y34343D01*
X16710Y34198D01*
X16843Y33998D01*
X17043Y33865D01*
X17279Y33818D01*
X17514Y33865D01*
X17714Y33998D01*
X17848Y34198D01*
X17894Y34434D01*
X17848Y34669D01*
X17714Y34869D01*
X17514Y35002D01*
X17282Y35049D01*
X17294Y35108D01*
X17247Y35343D01*
X17113Y35543D01*
X16913Y35677D01*
X16678Y35723D01*
D02*
G37*
G36*
X37794Y35783D02*
X37559Y35736D01*
X37359Y35603D01*
X37225Y35403D01*
X37179Y35167D01*
X37225Y34932D01*
X37317Y34795D01*
X37233Y34669D01*
X37186Y34434D01*
X37233Y34198D01*
X37367Y33998D01*
X37566Y33865D01*
X37802Y33818D01*
X38038Y33865D01*
X38238Y33998D01*
X38371Y34198D01*
X38418Y34434D01*
X38371Y34669D01*
X38280Y34806D01*
X38363Y34932D01*
X38410Y35167D01*
X38363Y35403D01*
X38230Y35603D01*
X38030Y35736D01*
X37794Y35783D01*
D02*
G37*
G36*
X39900Y34116D02*
X39664Y34069D01*
X39465Y33935D01*
X39331Y33736D01*
X39284Y33500D01*
X39331Y33264D01*
X39465Y33065D01*
X39664Y32931D01*
X39900Y32884D01*
X40136Y32931D01*
X40335Y33065D01*
X40469Y33264D01*
X40516Y33500D01*
X40469Y33736D01*
X40335Y33935D01*
X40136Y34069D01*
X39900Y34116D01*
D02*
G37*
G36*
X43800D02*
X43564Y34069D01*
X43365Y33935D01*
X43231Y33736D01*
X43184Y33500D01*
X43231Y33264D01*
X43365Y33065D01*
X43564Y32931D01*
X43800Y32884D01*
X44036Y32931D01*
X44203Y33043D01*
X44318Y32869D01*
X44518Y32736D01*
X44754Y32689D01*
X44989Y32736D01*
X45189Y32869D01*
X45323Y33069D01*
X45370Y33305D01*
X45323Y33540D01*
X45189Y33740D01*
X44989Y33874D01*
X44754Y33921D01*
X44518Y33874D01*
X44351Y33762D01*
X44235Y33935D01*
X44036Y34069D01*
X43800Y34116D01*
D02*
G37*
G36*
X38600Y33416D02*
X38364Y33369D01*
X38165Y33235D01*
X38031Y33036D01*
X37984Y32800D01*
X38031Y32564D01*
X38165Y32365D01*
X38364Y32231D01*
X38600Y32184D01*
X38836Y32231D01*
X39035Y32365D01*
X39169Y32564D01*
X39216Y32800D01*
X39169Y33036D01*
X39035Y33235D01*
X38836Y33369D01*
X38600Y33416D01*
D02*
G37*
G36*
X41135Y32916D02*
X40899Y32869D01*
X40700Y32735D01*
X40566Y32536D01*
X40519Y32300D01*
X40566Y32064D01*
X40700Y31865D01*
X40899Y31731D01*
X41135Y31684D01*
X41371Y31731D01*
X41570Y31865D01*
X41704Y32064D01*
X41751Y32300D01*
X41704Y32536D01*
X41570Y32735D01*
X41371Y32869D01*
X41135Y32916D01*
D02*
G37*
G36*
X42400Y32416D02*
X42164Y32369D01*
X41965Y32235D01*
X41831Y32036D01*
X41784Y31800D01*
X41831Y31564D01*
X41965Y31365D01*
X42164Y31231D01*
X42400Y31184D01*
X42636Y31231D01*
X42835Y31365D01*
X42969Y31564D01*
X43016Y31800D01*
X42969Y32036D01*
X42835Y32235D01*
X42636Y32369D01*
X42400Y32416D01*
D02*
G37*
G36*
X37884Y42510D02*
X37648Y42463D01*
X37505Y42367D01*
X37362Y42463D01*
X37126Y42510D01*
X36891Y42463D01*
X36691Y42329D01*
X36557Y42129D01*
X36511Y41894D01*
X36557Y41658D01*
X36691Y41458D01*
X36891Y41325D01*
X37126Y41278D01*
X37339Y41320D01*
X37396Y41264D01*
X37423Y41217D01*
X37325Y41071D01*
X37278Y40836D01*
X37325Y40600D01*
X37459Y40400D01*
X37658Y40267D01*
X37894Y40220D01*
X38130Y40267D01*
X38330Y40400D01*
X38356Y40440D01*
X38415D01*
X38615Y40307D01*
X38850Y40260D01*
X39086Y40307D01*
X39286Y40440D01*
X39419Y40640D01*
X39466Y40876D01*
X39419Y41111D01*
X39286Y41311D01*
X39086Y41445D01*
X38850Y41491D01*
X38615Y41445D01*
X38415Y41311D01*
X38332Y41346D01*
X38319Y41458D01*
X38453Y41658D01*
X38500Y41894D01*
X38453Y42129D01*
X38319Y42329D01*
X38120Y42463D01*
X37884Y42510D01*
D02*
G37*
G36*
X38845Y43574D02*
X38609Y43528D01*
X38409Y43394D01*
X38276Y43194D01*
X38229Y42959D01*
X38276Y42723D01*
X38409Y42523D01*
X38609Y42390D01*
X38845Y42343D01*
X39080Y42390D01*
X39280Y42523D01*
X39414Y42723D01*
X39461Y42959D01*
X39414Y43194D01*
X39280Y43394D01*
X39080Y43528D01*
X38845Y43574D01*
D02*
G37*
G36*
X38700Y39716D02*
X38464Y39669D01*
X38265Y39535D01*
X38131Y39336D01*
X38084Y39100D01*
X38131Y38864D01*
X38265Y38665D01*
X38464Y38531D01*
X38700Y38484D01*
X38936Y38531D01*
X39135Y38665D01*
X39269Y38864D01*
X39316Y39100D01*
X39269Y39336D01*
X39135Y39535D01*
X38936Y39669D01*
X38700Y39716D01*
D02*
G37*
G36*
X6981Y45216D02*
X6746Y45169D01*
X6546Y45035D01*
X6412Y44836D01*
X6366Y44600D01*
X6412Y44364D01*
X6546Y44165D01*
X6746Y44031D01*
X6981Y43984D01*
X7217Y44031D01*
X7417Y44165D01*
X7550Y44364D01*
X7597Y44600D01*
X7550Y44836D01*
X7417Y45035D01*
X7217Y45169D01*
X6981Y45216D01*
D02*
G37*
G36*
X5397Y43065D02*
X5161Y43018D01*
X4961Y42884D01*
X4828Y42685D01*
X4781Y42449D01*
X4828Y42213D01*
X4961Y42013D01*
X5161Y41880D01*
X5397Y41833D01*
X5632Y41880D01*
X5832Y42013D01*
X5966Y42213D01*
X6012Y42449D01*
X5966Y42685D01*
X5832Y42884D01*
X5632Y43018D01*
X5397Y43065D01*
D02*
G37*
G36*
X9803Y42174D02*
X9568Y42127D01*
X9368Y41994D01*
X9234Y41794D01*
X9188Y41558D01*
X9234Y41323D01*
X9368Y41123D01*
X9568Y40989D01*
X9803Y40942D01*
X10039Y40989D01*
X10239Y41123D01*
X10372Y41323D01*
X10419Y41558D01*
X10372Y41794D01*
X10239Y41994D01*
X10039Y42127D01*
X9803Y42174D01*
D02*
G37*
G36*
X9889Y40487D02*
X9653Y40440D01*
X9454Y40307D01*
X9320Y40107D01*
X9273Y39871D01*
X9320Y39636D01*
X9454Y39436D01*
X9653Y39302D01*
X9889Y39256D01*
X10125Y39302D01*
X10325Y39436D01*
X10458Y39636D01*
X10505Y39871D01*
X10458Y40107D01*
X10325Y40307D01*
X10125Y40440D01*
X9889Y40487D01*
D02*
G37*
G36*
X3329Y39827D02*
X2627D01*
Y39125D01*
X3329D01*
Y39827D01*
D02*
G37*
G36*
X12713Y39945D02*
X12477Y39898D01*
X12277Y39765D01*
X12144Y39565D01*
X12097Y39329D01*
X12144Y39094D01*
X12277Y38894D01*
X12477Y38760D01*
X12713Y38713D01*
X12948Y38760D01*
X13148Y38894D01*
X13282Y39094D01*
X13328Y39329D01*
X13282Y39565D01*
X13148Y39765D01*
X12948Y39898D01*
X12713Y39945D01*
D02*
G37*
G36*
X25224Y39535D02*
X24988Y39488D01*
X24788Y39355D01*
X24655Y39155D01*
X24608Y38920D01*
X24655Y38684D01*
X24788Y38484D01*
X24988Y38351D01*
X25224Y38304D01*
X25459Y38351D01*
X25659Y38484D01*
X25793Y38684D01*
X25839Y38920D01*
X25793Y39155D01*
X25659Y39355D01*
X25459Y39488D01*
X25224Y39535D01*
D02*
G37*
G36*
X14819Y39463D02*
X14584Y39416D01*
X14384Y39282D01*
X14250Y39082D01*
X14204Y38847D01*
X14250Y38611D01*
X14384Y38411D01*
X14584Y38278D01*
X14819Y38231D01*
X15055Y38278D01*
X15255Y38411D01*
X15388Y38611D01*
X15435Y38847D01*
X15388Y39082D01*
X15255Y39282D01*
X15055Y39416D01*
X14819Y39463D01*
D02*
G37*
G36*
X3329Y38871D02*
X2627D01*
Y38169D01*
X3329D01*
Y38871D01*
D02*
G37*
G36*
X7178Y38984D02*
X6943Y38937D01*
X6743Y38804D01*
X6609Y38604D01*
X6563Y38368D01*
X6609Y38133D01*
X6743Y37933D01*
X6943Y37799D01*
X7178Y37752D01*
X7414Y37799D01*
X7614Y37933D01*
X7747Y38133D01*
X7794Y38368D01*
X7747Y38604D01*
X7614Y38804D01*
X7414Y38937D01*
X7178Y38984D01*
D02*
G37*
G36*
X5397D02*
X5161Y38937D01*
X4961Y38804D01*
X4828Y38604D01*
X4781Y38368D01*
X4828Y38133D01*
X4958Y37937D01*
Y37975D01*
X4963Y37972D01*
X4972Y37970D01*
X4985Y37968D01*
X5025Y37965D01*
X5155Y37962D01*
X5199Y37962D01*
Y37792D01*
X5397Y37752D01*
X5632Y37799D01*
X5832Y37933D01*
X5966Y38133D01*
X6012Y38368D01*
X5966Y38604D01*
X5832Y38804D01*
X5632Y38937D01*
X5397Y38984D01*
D02*
G37*
G36*
X10750Y38252D02*
X10514Y38205D01*
X10315Y38072D01*
X10181Y37872D01*
X10134Y37636D01*
X10181Y37401D01*
X10315Y37201D01*
X10514Y37067D01*
X10750Y37021D01*
X10986Y37067D01*
X11185Y37201D01*
X11319Y37401D01*
X11366Y37636D01*
X11319Y37872D01*
X11185Y38072D01*
X10986Y38205D01*
X10750Y38252D01*
D02*
G37*
G36*
X22842Y32406D02*
X22606Y32360D01*
X22406Y32226D01*
X22320Y32097D01*
X22167D01*
X22106Y32189D01*
X21906Y32322D01*
X21671Y32369D01*
X21435Y32322D01*
X21235Y32189D01*
X21102Y31989D01*
X21055Y31753D01*
X21102Y31518D01*
X21235Y31318D01*
X21435Y31184D01*
X21671Y31138D01*
X21906Y31184D01*
X22106Y31318D01*
X22192Y31447D01*
X22345D01*
X22406Y31355D01*
X22606Y31222D01*
X22842Y31175D01*
X23077Y31222D01*
X23277Y31355D01*
X23411Y31555D01*
X23457Y31791D01*
X23411Y32026D01*
X23277Y32226D01*
X23077Y32360D01*
X22842Y32406D01*
D02*
G37*
G36*
X21609Y30880D02*
X21374Y30834D01*
X21174Y30700D01*
X21041Y30500D01*
X20994Y30265D01*
X21041Y30029D01*
X21174Y29829D01*
X21374Y29696D01*
X21609Y29649D01*
X21845Y29696D01*
X22045Y29829D01*
X22178Y30029D01*
X22225Y30265D01*
X22178Y30500D01*
X22045Y30700D01*
X21845Y30834D01*
X21609Y30880D01*
D02*
G37*
G36*
X27912Y30116D02*
X27676Y30069D01*
X27476Y29935D01*
X27343Y29736D01*
X27296Y29500D01*
X27343Y29264D01*
X27476Y29065D01*
X27676Y28931D01*
X27912Y28884D01*
X28148Y28931D01*
X28347Y29065D01*
X28481Y29264D01*
X28528Y29500D01*
X28481Y29736D01*
X28347Y29935D01*
X28148Y30069D01*
X27912Y30116D01*
D02*
G37*
G36*
X22148Y29606D02*
X21912Y29559D01*
X21712Y29426D01*
X21579Y29226D01*
X21532Y28990D01*
X21579Y28754D01*
X21712Y28555D01*
X21912Y28421D01*
X22148Y28374D01*
X22383Y28421D01*
X22583Y28555D01*
X22717Y28754D01*
X22763Y28990D01*
X22717Y29226D01*
X22583Y29426D01*
X22383Y29559D01*
X22148Y29606D01*
D02*
G37*
G36*
X7858Y27566D02*
X7623Y27519D01*
X7423Y27386D01*
X7290Y27186D01*
X7266Y27066D01*
X7200Y27075D01*
X7001Y27049D01*
X6816Y26972D01*
X6657Y26850D01*
X6534Y26691D01*
X6458Y26505D01*
X6431Y26306D01*
X6458Y26107D01*
X6534Y25922D01*
X6657Y25763D01*
X6816Y25641D01*
X7001Y25564D01*
X7200Y25538D01*
X7399Y25564D01*
X7584Y25641D01*
X7743Y25763D01*
X7866Y25922D01*
X7942Y26107D01*
X7969Y26306D01*
X7962Y26355D01*
X8094Y26381D01*
X8294Y26515D01*
X8427Y26714D01*
X8474Y26950D01*
X8427Y27186D01*
X8294Y27386D01*
X8094Y27519D01*
X7858Y27566D01*
D02*
G37*
G36*
X24000Y28257D02*
X23764Y28210D01*
X23565Y28077D01*
X23431Y27877D01*
X23384Y27642D01*
X23431Y27406D01*
X23565Y27206D01*
X23764Y27073D01*
X24000Y27026D01*
X24236Y27073D01*
X24435Y27206D01*
X24569Y27406D01*
X24616Y27642D01*
X24569Y27877D01*
X24435Y28077D01*
X24236Y28210D01*
X24000Y28257D01*
D02*
G37*
G36*
X13800Y26894D02*
X13622Y26871D01*
X13457Y26802D01*
X13315Y26693D01*
X13280Y26648D01*
X13120D01*
X13085Y26693D01*
X12943Y26802D01*
X12778Y26871D01*
X12600Y26894D01*
X12422Y26871D01*
X12257Y26802D01*
X12115Y26693D01*
X12080Y26648D01*
X11920D01*
X11885Y26693D01*
X11743Y26802D01*
X11578Y26871D01*
X11400Y26894D01*
X11222Y26871D01*
X11057Y26802D01*
X10915Y26693D01*
X10806Y26551D01*
X10738Y26386D01*
X10714Y26208D01*
X10738Y26031D01*
X10806Y25865D01*
X10915Y25723D01*
X10961Y25688D01*
Y25528D01*
X10915Y25493D01*
X10806Y25351D01*
X10738Y25186D01*
X10714Y25008D01*
X10738Y24831D01*
X10806Y24665D01*
X10915Y24523D01*
X10961Y24488D01*
Y24328D01*
X10915Y24293D01*
X10806Y24151D01*
X10738Y23986D01*
X10714Y23808D01*
X10738Y23631D01*
X10806Y23465D01*
X10915Y23323D01*
X11057Y23214D01*
X11222Y23146D01*
X11400Y23122D01*
X11578Y23146D01*
X11743Y23214D01*
X11885Y23323D01*
X11920Y23369D01*
X12080D01*
X12115Y23323D01*
X12257Y23214D01*
X12422Y23146D01*
X12600Y23122D01*
X12778Y23146D01*
X12943Y23214D01*
X13085Y23323D01*
X13120Y23369D01*
X13280D01*
X13315Y23323D01*
X13457Y23214D01*
X13622Y23146D01*
X13800Y23122D01*
X13978Y23146D01*
X14143Y23214D01*
X14285Y23323D01*
X14394Y23465D01*
X14462Y23631D01*
X14486Y23808D01*
X14462Y23986D01*
X14394Y24151D01*
X14285Y24293D01*
X14239Y24328D01*
Y24488D01*
X14285Y24523D01*
X14394Y24665D01*
X14462Y24831D01*
X14486Y25008D01*
X14462Y25186D01*
X14394Y25351D01*
X14285Y25493D01*
X14239Y25528D01*
Y25688D01*
X14285Y25723D01*
X14394Y25865D01*
X14462Y26031D01*
X14486Y26208D01*
X14462Y26386D01*
X14394Y26551D01*
X14285Y26693D01*
X14143Y26802D01*
X13978Y26871D01*
X13800Y26894D01*
D02*
G37*
G36*
X25508Y27428D02*
X25272Y27381D01*
X25072Y27248D01*
X24939Y27048D01*
X24892Y26812D01*
X24939Y26577D01*
X25072Y26377D01*
X25272Y26243D01*
X25508Y26196D01*
X25743Y26243D01*
X25943Y26377D01*
X26077Y26577D01*
X26124Y26812D01*
X26077Y27048D01*
X25943Y27248D01*
X25743Y27381D01*
X25508Y27428D01*
D02*
G37*
G36*
X3000Y27350D02*
X2764Y27303D01*
X2565Y27170D01*
X2431Y26970D01*
X2384Y26734D01*
X2431Y26498D01*
X2565Y26299D01*
X2764Y26165D01*
X3000Y26118D01*
X3236Y26165D01*
X3435Y26299D01*
X3569Y26498D01*
X3616Y26734D01*
X3569Y26970D01*
X3435Y27170D01*
X3236Y27303D01*
X3000Y27350D01*
D02*
G37*
G36*
X16656Y27971D02*
X16421Y27924D01*
X16221Y27790D01*
X16087Y27591D01*
X16040Y27355D01*
X16087Y27119D01*
X16159Y27012D01*
X16093Y26914D01*
X16047Y26679D01*
X16093Y26443D01*
X16227Y26243D01*
X16427Y26110D01*
X16662Y26063D01*
X16898Y26110D01*
X17098Y26243D01*
X17111Y26263D01*
X17262Y26259D01*
X17352Y26123D01*
X17552Y25990D01*
X17788Y25943D01*
X18024Y25990D01*
X18223Y26123D01*
X18357Y26323D01*
X18404Y26559D01*
X18397Y26595D01*
X18296D01*
X18283Y26836D01*
X18329D01*
X18223Y26994D01*
X18024Y27128D01*
X17788Y27175D01*
X17552Y27128D01*
X17396Y27023D01*
X17263Y27043D01*
X17241Y27055D01*
X17215Y27104D01*
X17225Y27119D01*
X17272Y27355D01*
X17225Y27591D01*
X17092Y27790D01*
X16892Y27924D01*
X16656Y27971D01*
D02*
G37*
G36*
X9096Y26216D02*
X8861Y26169D01*
X8661Y26035D01*
X8527Y25836D01*
X8481Y25600D01*
X8527Y25364D01*
X8661Y25165D01*
X8861Y25031D01*
X9096Y24984D01*
X9332Y25031D01*
X9532Y25165D01*
X9665Y25364D01*
X9712Y25600D01*
X9665Y25836D01*
X9532Y26035D01*
X9332Y26169D01*
X9096Y26216D01*
D02*
G37*
G36*
X19312Y25399D02*
Y25259D01*
X19215Y25254D01*
X19129Y25240D01*
X19053Y25216D01*
X18987Y25184D01*
X18931Y25141D01*
X18885Y25089D01*
X18850Y25028D01*
X18824Y24958D01*
X18809Y24878D01*
X18804Y24788D01*
X18653Y25004D01*
X18612Y24799D01*
X18659Y24564D01*
X18792Y24364D01*
X18992Y24231D01*
X19228Y24184D01*
X19463Y24231D01*
X19663Y24364D01*
X19797Y24564D01*
X19844Y24799D01*
X19797Y25035D01*
X19663Y25235D01*
X19463Y25368D01*
X19312Y25399D01*
D02*
G37*
G36*
X9269Y24485D02*
X9033Y24438D01*
X8834Y24305D01*
X8700Y24105D01*
X8653Y23869D01*
X8700Y23634D01*
X8834Y23434D01*
X9033Y23300D01*
X9269Y23253D01*
X9505Y23300D01*
X9704Y23434D01*
X9838Y23634D01*
X9885Y23869D01*
X9838Y24105D01*
X9704Y24305D01*
X9505Y24438D01*
X9269Y24485D01*
D02*
G37*
G36*
X15994Y24360D02*
X15759Y24313D01*
X15559Y24180D01*
X15426Y23980D01*
X15379Y23744D01*
X15426Y23508D01*
X15559Y23309D01*
X15759Y23175D01*
X15994Y23128D01*
X16230Y23175D01*
X16430Y23309D01*
X16563Y23508D01*
X16610Y23744D01*
X16563Y23980D01*
X16430Y24180D01*
X16230Y24313D01*
X15994Y24360D01*
D02*
G37*
G36*
X6594Y23316D02*
X6358Y23269D01*
X6158Y23135D01*
X6092Y23035D01*
X6081D01*
X5881Y23169D01*
X5645Y23216D01*
X5410Y23169D01*
X5210Y23035D01*
X5077Y22836D01*
X5030Y22600D01*
X5077Y22364D01*
X5210Y22165D01*
X5410Y22031D01*
X5645Y21984D01*
X5881Y22031D01*
X6081Y22165D01*
X6148Y22265D01*
X6158D01*
X6358Y22131D01*
X6594Y22084D01*
X6830Y22131D01*
X7029Y22265D01*
X7163Y22464D01*
X7210Y22700D01*
X7163Y22936D01*
X7029Y23135D01*
X6830Y23269D01*
X6594Y23316D01*
D02*
G37*
G36*
X14350Y22448D02*
X14114Y22402D01*
X13915Y22268D01*
X13796Y22090D01*
X13616Y22210D01*
X13380Y22257D01*
X13144Y22210D01*
X12945Y22077D01*
X12923Y22044D01*
X12796D01*
X12785Y22060D01*
X12586Y22194D01*
X12350Y22240D01*
X12114Y22194D01*
X11915Y22060D01*
X11781Y21860D01*
X11734Y21625D01*
X11750Y21547D01*
X11614Y21520D01*
X11557Y21482D01*
X11451Y21552D01*
X11466Y21625D01*
X11419Y21860D01*
X11285Y22060D01*
X11086Y22194D01*
X10850Y22240D01*
X10614Y22194D01*
X10415Y22060D01*
X10281Y21860D01*
X10234Y21625D01*
X10281Y21389D01*
X10415Y21189D01*
X10614Y21056D01*
X10850Y21009D01*
X11086Y21056D01*
X11143Y21094D01*
X11249Y21023D01*
X11234Y20951D01*
X11281Y20716D01*
X11415Y20516D01*
X11614Y20382D01*
X11850Y20335D01*
X12086Y20382D01*
X12285Y20516D01*
X12286Y20516D01*
X12413D01*
X12413Y20516D01*
X12613Y20382D01*
X12849Y20335D01*
X13085Y20382D01*
X13284Y20516D01*
X13418Y20716D01*
X13465Y20951D01*
X13447Y21039D01*
X13616Y21072D01*
X13815Y21206D01*
X13934Y21384D01*
X14114Y21264D01*
X14350Y21217D01*
X14586Y21264D01*
X14785Y21397D01*
X14919Y21597D01*
X14966Y21833D01*
X14919Y22068D01*
X14785Y22268D01*
X14586Y22402D01*
X14350Y22448D01*
D02*
G37*
G36*
X15962Y21428D02*
X15727Y21381D01*
X15527Y21247D01*
X15393Y21048D01*
X15346Y20812D01*
X15393Y20576D01*
X15527Y20376D01*
X15727Y20243D01*
X15962Y20196D01*
X16198Y20243D01*
X16398Y20376D01*
X16531Y20576D01*
X16578Y20812D01*
X16531Y21048D01*
X16398Y21247D01*
X16198Y21381D01*
X15962Y21428D01*
D02*
G37*
G36*
X5645Y20426D02*
X5410Y20379D01*
X5210Y20246D01*
X5077Y20046D01*
X5030Y19810D01*
X5077Y19574D01*
X5210Y19375D01*
X5410Y19241D01*
X5645Y19194D01*
X5881Y19241D01*
X6081Y19375D01*
X6214Y19574D01*
X6261Y19810D01*
X6214Y20046D01*
X6081Y20246D01*
X5881Y20379D01*
X5645Y20426D01*
D02*
G37*
G36*
X15578Y20116D02*
X15342Y20069D01*
X15142Y19935D01*
X15009Y19736D01*
X14962Y19500D01*
X15009Y19264D01*
X15142Y19065D01*
X15342Y18931D01*
X15578Y18884D01*
X15813Y18931D01*
X16013Y19065D01*
X16146Y19264D01*
X16193Y19500D01*
X16146Y19736D01*
X16013Y19935D01*
X15813Y20069D01*
X15578Y20116D01*
D02*
G37*
G36*
X13350Y19466D02*
X13114Y19419D01*
X12915Y19286D01*
X12781Y19086D01*
X12734Y18851D01*
X12781Y18615D01*
X12915Y18415D01*
X13114Y18282D01*
X13350Y18235D01*
X13586Y18282D01*
X13785Y18415D01*
X13919Y18615D01*
X13966Y18851D01*
X13919Y19086D01*
X13785Y19286D01*
X13586Y19419D01*
X13350Y19466D01*
D02*
G37*
G36*
X10350Y17329D02*
X10114Y17282D01*
X9915Y17149D01*
X9781Y16949D01*
X9734Y16713D01*
X9781Y16478D01*
X9915Y16278D01*
X10114Y16144D01*
X10350Y16097D01*
X10586Y16144D01*
X10786Y16278D01*
X10919Y16478D01*
X10966Y16713D01*
X10919Y16949D01*
X10786Y17149D01*
X10586Y17282D01*
X10350Y17329D01*
D02*
G37*
G36*
X14808Y18016D02*
X14572Y17969D01*
X14372Y17835D01*
X14239Y17636D01*
X14192Y17400D01*
X14239Y17164D01*
X14340Y17013D01*
X14354Y16931D01*
X14310Y16853D01*
X14161Y16754D01*
X14028Y16554D01*
X13981Y16318D01*
X14028Y16083D01*
X14161Y15883D01*
X14361Y15749D01*
X14597Y15702D01*
X14832Y15749D01*
X15032Y15883D01*
X15166Y16083D01*
X15213Y16318D01*
X15166Y16554D01*
X15064Y16706D01*
X15051Y16787D01*
X15094Y16865D01*
X15243Y16965D01*
X15377Y17164D01*
X15423Y17400D01*
X15377Y17636D01*
X15243Y17835D01*
X15043Y17969D01*
X14808Y18016D01*
D02*
G37*
G36*
X19365Y16871D02*
X19129Y16824D01*
X18929Y16691D01*
X18796Y16491D01*
X18749Y16255D01*
X18796Y16020D01*
X18929Y15820D01*
X19129Y15686D01*
X19365Y15639D01*
X19600Y15686D01*
X19800Y15820D01*
X19934Y16020D01*
X19981Y16255D01*
X19934Y16491D01*
X19800Y16691D01*
X19600Y16824D01*
X19365Y16871D01*
D02*
G37*
G36*
X5545Y16675D02*
X5309Y16628D01*
X5109Y16495D01*
X4976Y16295D01*
X4929Y16059D01*
X4976Y15824D01*
X5109Y15624D01*
X5309Y15490D01*
X5545Y15443D01*
X5780Y15490D01*
X5980Y15624D01*
X6114Y15824D01*
X6161Y16059D01*
X6114Y16295D01*
X5980Y16495D01*
X5780Y16628D01*
X5545Y16675D01*
D02*
G37*
G36*
X16059Y13696D02*
X15823Y13649D01*
X15624Y13516D01*
X15490Y13316D01*
X15443Y13080D01*
X15490Y12845D01*
X15624Y12645D01*
X15823Y12511D01*
X16059Y12464D01*
X16295Y12511D01*
X16495Y12645D01*
X16628Y12845D01*
X16675Y13080D01*
X16628Y13316D01*
X16495Y13516D01*
X16295Y13649D01*
X16059Y13696D01*
D02*
G37*
G36*
X11319Y15233D02*
X11083Y15186D01*
X10883Y15053D01*
X10750Y14853D01*
X10703Y14617D01*
X10750Y14382D01*
X10883Y14182D01*
X11083Y14048D01*
X11253Y14015D01*
X11281Y13874D01*
X11415Y13674D01*
X11614Y13540D01*
X11752Y13513D01*
X11781Y13365D01*
X11915Y13165D01*
X12049Y13075D01*
X12092Y12970D01*
X12073Y12918D01*
X11965Y12756D01*
X11918Y12520D01*
X11965Y12284D01*
X12099Y12085D01*
X12298Y11951D01*
X12534Y11904D01*
X12770Y11951D01*
X12970Y12085D01*
X13103Y12284D01*
X13150Y12520D01*
X13103Y12756D01*
X13033Y12860D01*
X13040Y12896D01*
X13097Y12993D01*
X13293Y13032D01*
X13493Y13165D01*
X13627Y13365D01*
X13674Y13601D01*
X13627Y13836D01*
X13493Y14036D01*
X13293Y14170D01*
X13058Y14216D01*
X12822Y14170D01*
X12704Y14091D01*
X12586Y14170D01*
X12448Y14197D01*
X12419Y14345D01*
X12285Y14545D01*
X12086Y14678D01*
X11916Y14712D01*
X11888Y14853D01*
X11754Y15053D01*
X11555Y15186D01*
X11319Y15233D01*
D02*
G37*
G36*
X5895Y14725D02*
X5659Y14678D01*
X5459Y14545D01*
X5326Y14345D01*
X5279Y14109D01*
X5326Y13874D01*
X5459Y13674D01*
X5659Y13540D01*
X5895Y13494D01*
X6130Y13540D01*
X6162Y13562D01*
X6304Y13503D01*
X6331Y13365D01*
X6465Y13165D01*
X6664Y13032D01*
X6900Y12985D01*
X6993Y13003D01*
X7069Y12889D01*
X6984Y12761D01*
X6937Y12525D01*
X6984Y12290D01*
X7068Y12164D01*
X6984Y12038D01*
X6937Y11802D01*
X6984Y11567D01*
X7117Y11367D01*
X7317Y11233D01*
X7553Y11186D01*
X7788Y11233D01*
X7988Y11367D01*
X8122Y11567D01*
X8169Y11802D01*
X8122Y12038D01*
X8038Y12164D01*
X8122Y12290D01*
X8169Y12525D01*
X8122Y12761D01*
X7988Y12961D01*
X7788Y13094D01*
X7553Y13141D01*
X7460Y13123D01*
X7383Y13237D01*
X7469Y13365D01*
X7516Y13601D01*
X7469Y13836D01*
X7335Y14036D01*
X7136Y14170D01*
X6900Y14216D01*
X6664Y14170D01*
X6632Y14148D01*
X6491Y14207D01*
X6464Y14345D01*
X6330Y14545D01*
X6130Y14678D01*
X5895Y14725D01*
D02*
G37*
G36*
Y8954D02*
X5659Y8907D01*
X5459Y8774D01*
X5326Y8574D01*
X5279Y8338D01*
X5326Y8103D01*
X5459Y7903D01*
X5659Y7769D01*
X5895Y7723D01*
X6130Y7769D01*
X6330Y7903D01*
X6464Y8103D01*
X6511Y8338D01*
X6464Y8574D01*
X6330Y8774D01*
X6130Y8907D01*
X5895Y8954D01*
D02*
G37*
G36*
X7900Y6816D02*
X7664Y6769D01*
X7465Y6635D01*
X7331Y6436D01*
X7284Y6200D01*
X7331Y5964D01*
X7465Y5765D01*
X7664Y5631D01*
X7900Y5584D01*
X8136Y5631D01*
X8335Y5765D01*
X8469Y5964D01*
X8516Y6200D01*
X8469Y6436D01*
X8335Y6635D01*
X8136Y6769D01*
X7900Y6816D01*
D02*
G37*
G36*
X60435Y40533D02*
X60199Y40486D01*
X59999Y40352D01*
X59866Y40153D01*
X59819Y39917D01*
X59866Y39681D01*
X59999Y39481D01*
X60199Y39348D01*
X60435Y39301D01*
X60671Y39348D01*
X60870Y39481D01*
X61004Y39681D01*
X61051Y39917D01*
X61004Y40153D01*
X60870Y40352D01*
X60671Y40486D01*
X60435Y40533D01*
D02*
G37*
G36*
X55700Y37777D02*
X55464Y37730D01*
X55265Y37596D01*
X55131Y37396D01*
X55084Y37161D01*
X55131Y36925D01*
X55265Y36725D01*
X55464Y36592D01*
X55700Y36545D01*
X55936Y36592D01*
X56136Y36725D01*
X56269Y36925D01*
X56316Y37161D01*
X56269Y37396D01*
X56136Y37596D01*
X55936Y37730D01*
X55700Y37777D01*
D02*
G37*
G36*
X50799Y36398D02*
X50564Y36351D01*
X50400Y36242D01*
X50382Y36254D01*
X50146Y36301D01*
X49910Y36254D01*
X49711Y36121D01*
X49577Y35921D01*
X49530Y35685D01*
X49577Y35450D01*
X49711Y35250D01*
X49910Y35116D01*
X50146Y35069D01*
X50382Y35116D01*
X50545Y35225D01*
X50564Y35213D01*
X50799Y35166D01*
X51035Y35213D01*
X51235Y35347D01*
X51261Y35386D01*
X51388D01*
X51415Y35346D01*
X51615Y35213D01*
X51850Y35166D01*
X52086Y35213D01*
X52286Y35346D01*
X52419Y35546D01*
X52466Y35782D01*
X52419Y36017D01*
X52286Y36217D01*
X52086Y36351D01*
X51850Y36397D01*
X51615Y36351D01*
X51415Y36217D01*
X51388Y36178D01*
X51261D01*
X51235Y36218D01*
X51035Y36351D01*
X50799Y36398D01*
D02*
G37*
G36*
X51864Y33959D02*
X51628Y33913D01*
X51474Y33810D01*
X51353Y33891D01*
X51117Y33938D01*
X50882Y33891D01*
X50682Y33757D01*
X50548Y33558D01*
X50502Y33322D01*
X50548Y33086D01*
X50682Y32886D01*
X50882Y32753D01*
X51117Y32706D01*
X51353Y32753D01*
X51507Y32856D01*
X51628Y32775D01*
X51864Y32728D01*
X52099Y32775D01*
X52211Y32849D01*
X52354Y32753D01*
X52590Y32706D01*
X52826Y32753D01*
X53025Y32886D01*
X53159Y33086D01*
X53206Y33322D01*
X53159Y33558D01*
X53025Y33757D01*
X52826Y33891D01*
X52590Y33938D01*
X52354Y33891D01*
X52243Y33817D01*
X52099Y33913D01*
X51864Y33959D01*
D02*
G37*
G36*
X60235Y31905D02*
X60000Y31858D01*
X59800Y31725D01*
X59666Y31525D01*
X59619Y31289D01*
X59666Y31053D01*
X59800Y30854D01*
X60000Y30720D01*
X60235Y30673D01*
X60471Y30720D01*
X60671Y30854D01*
X60804Y31053D01*
X60851Y31289D01*
X60804Y31525D01*
X60671Y31725D01*
X60471Y31858D01*
X60235Y31905D01*
D02*
G37*
G36*
X49500Y30316D02*
X49264Y30269D01*
X49065Y30135D01*
X48931Y29936D01*
X48884Y29700D01*
X48931Y29464D01*
X49065Y29265D01*
X49264Y29131D01*
X49500Y29084D01*
X49736Y29131D01*
X49935Y29265D01*
X50069Y29464D01*
X50116Y29700D01*
X50069Y29936D01*
X49935Y30135D01*
X49736Y30269D01*
X49500Y30316D01*
D02*
G37*
G36*
X43800Y29916D02*
X43564Y29869D01*
X43365Y29735D01*
X43231Y29536D01*
X43184Y29300D01*
X43231Y29064D01*
X43365Y28865D01*
X43564Y28731D01*
X43800Y28684D01*
X44036Y28731D01*
X44235Y28865D01*
X44369Y29064D01*
X44416Y29300D01*
X44369Y29536D01*
X44235Y29735D01*
X44036Y29869D01*
X43800Y29916D01*
D02*
G37*
G36*
X47000Y29816D02*
X46764Y29769D01*
X46565Y29635D01*
X46431Y29436D01*
X46384Y29200D01*
X46431Y28964D01*
X46565Y28765D01*
X46764Y28631D01*
X47000Y28584D01*
X47236Y28631D01*
X47435Y28765D01*
X47569Y28964D01*
X47616Y29200D01*
X47569Y29436D01*
X47435Y29635D01*
X47236Y29769D01*
X47000Y29816D01*
D02*
G37*
G36*
X37895Y28796D02*
X37659Y28750D01*
X37459Y28616D01*
X37326Y28416D01*
X37279Y28181D01*
X37285Y28151D01*
X37165Y28101D01*
X37153Y28120D01*
X36953Y28253D01*
X36717Y28300D01*
X36482Y28253D01*
X36282Y28120D01*
X36148Y27920D01*
X36101Y27684D01*
X36148Y27449D01*
X36282Y27249D01*
X36482Y27115D01*
X36717Y27069D01*
X36953Y27115D01*
X37153Y27249D01*
X37286Y27449D01*
X37333Y27684D01*
X37327Y27714D01*
X37447Y27764D01*
X37459Y27745D01*
X37659Y27612D01*
X37895Y27565D01*
X38130Y27612D01*
X38330Y27745D01*
X38464Y27945D01*
X38511Y28181D01*
X38464Y28416D01*
X38330Y28616D01*
X38130Y28750D01*
X37895Y28796D01*
D02*
G37*
G36*
X39859Y29330D02*
X39623Y29283D01*
X39423Y29150D01*
X39290Y28950D01*
X39243Y28714D01*
X39290Y28479D01*
X39423Y28279D01*
X39623Y28145D01*
X39859Y28098D01*
X40094Y28145D01*
X40294Y28279D01*
X40428Y28479D01*
X40474Y28714D01*
X40428Y28950D01*
X40294Y29150D01*
X40094Y29283D01*
X39859Y29330D01*
D02*
G37*
G36*
X56386Y28824D02*
X56150Y28777D01*
X55951Y28643D01*
X55817Y28443D01*
X55770Y28208D01*
X55817Y27972D01*
X55951Y27772D01*
X56150Y27639D01*
X56386Y27592D01*
X56622Y27639D01*
X56822Y27772D01*
X56955Y27972D01*
X57002Y28208D01*
X56955Y28443D01*
X56822Y28643D01*
X56622Y28777D01*
X56386Y28824D01*
D02*
G37*
G36*
X50686Y29438D02*
X50450Y29392D01*
X50251Y29258D01*
X50117Y29058D01*
X50070Y28823D01*
X50117Y28587D01*
X50251Y28387D01*
X50450Y28254D01*
X50686Y28207D01*
X50814Y28232D01*
X50838Y28208D01*
X50885Y27972D01*
X51019Y27772D01*
X51219Y27639D01*
X51454Y27592D01*
X51690Y27639D01*
X51890Y27772D01*
X52023Y27972D01*
X52070Y28208D01*
X52023Y28443D01*
X51890Y28643D01*
X51690Y28777D01*
X51454Y28824D01*
X51326Y28798D01*
X51302Y28823D01*
X51255Y29058D01*
X51122Y29258D01*
X50922Y29392D01*
X50686Y29438D01*
D02*
G37*
G36*
X62849Y28736D02*
X62658Y28710D01*
X62480Y28637D01*
X62327Y28520D01*
X62210Y28367D01*
X62137Y28189D01*
X62112Y27998D01*
X62137Y27807D01*
X62210Y27630D01*
X62327Y27477D01*
X62480Y27360D01*
X62658Y27286D01*
X62849Y27261D01*
X63040Y27286D01*
X63217Y27360D01*
X63370Y27477D01*
X63487Y27630D01*
X63561Y27807D01*
X63586Y27998D01*
X63561Y28189D01*
X63487Y28367D01*
X63370Y28520D01*
X63217Y28637D01*
X63040Y28710D01*
X62849Y28736D01*
D02*
G37*
G36*
X39112Y26805D02*
X38876Y26758D01*
X38677Y26625D01*
X38543Y26425D01*
X38496Y26190D01*
X38543Y25954D01*
X38677Y25754D01*
X38876Y25621D01*
X39112Y25574D01*
X39348Y25621D01*
X39548Y25754D01*
X39681Y25954D01*
X39728Y26190D01*
X39681Y26425D01*
X39548Y26625D01*
X39519Y26644D01*
X39482Y26645D01*
X39481Y26670D01*
X39348Y26758D01*
X39112Y26805D01*
D02*
G37*
G36*
X40512Y26793D02*
X40276Y26746D01*
X40076Y26613D01*
X39943Y26413D01*
X39896Y26177D01*
X39943Y25942D01*
X40076Y25742D01*
X40276Y25608D01*
X40512Y25562D01*
X40748Y25608D01*
X40947Y25742D01*
X41081Y25942D01*
X41128Y26177D01*
X41081Y26413D01*
X40947Y26613D01*
X40748Y26746D01*
X40512Y26793D01*
D02*
G37*
G36*
X42743Y26617D02*
X42508Y26570D01*
X42308Y26437D01*
X42174Y26237D01*
X42128Y26001D01*
X42174Y25765D01*
X42308Y25566D01*
X42508Y25432D01*
X42743Y25385D01*
X42979Y25432D01*
X43179Y25566D01*
X43312Y25765D01*
X43359Y26001D01*
X43312Y26237D01*
X43179Y26437D01*
X42979Y26570D01*
X42743Y26617D01*
D02*
G37*
G36*
X51470Y26452D02*
X51235Y26405D01*
X51035Y26272D01*
X50901Y26072D01*
X50854Y25836D01*
X50901Y25601D01*
X51035Y25401D01*
X51235Y25267D01*
X51470Y25220D01*
X51706Y25267D01*
X51906Y25401D01*
X52039Y25601D01*
X52086Y25836D01*
X52039Y26072D01*
X51906Y26272D01*
X51706Y26405D01*
X51470Y26452D01*
D02*
G37*
G36*
X54025Y26291D02*
X53789Y26244D01*
X53590Y26110D01*
X53456Y25911D01*
X53409Y25675D01*
X53456Y25439D01*
X53590Y25240D01*
X53789Y25106D01*
X54025Y25059D01*
X54261Y25106D01*
X54460Y25240D01*
X54594Y25439D01*
X54641Y25675D01*
X54594Y25911D01*
X54460Y26110D01*
X54261Y26244D01*
X54025Y26291D01*
D02*
G37*
G36*
X52651Y25810D02*
X52416Y25763D01*
X52216Y25629D01*
X52082Y25430D01*
X52036Y25194D01*
X52082Y24958D01*
X52216Y24759D01*
X52416Y24625D01*
X52651Y24578D01*
X52887Y24625D01*
X53087Y24759D01*
X53220Y24958D01*
X53267Y25194D01*
X53220Y25430D01*
X53087Y25629D01*
X52887Y25763D01*
X52651Y25810D01*
D02*
G37*
G36*
X35732Y25692D02*
X35496Y25646D01*
X35297Y25512D01*
X35163Y25312D01*
X35116Y25077D01*
X35163Y24841D01*
X35297Y24641D01*
X35496Y24508D01*
X35732Y24461D01*
X35968Y24508D01*
X36168Y24641D01*
X36301Y24841D01*
X36348Y25077D01*
X36301Y25312D01*
X36168Y25512D01*
X35968Y25646D01*
X35732Y25692D01*
D02*
G37*
G36*
X47783Y26616D02*
X47547Y26569D01*
X47347Y26435D01*
X47214Y26236D01*
X47167Y26000D01*
X47214Y25764D01*
X47347Y25565D01*
X47368Y25551D01*
Y25424D01*
X47269Y25357D01*
X47136Y25157D01*
X47089Y24922D01*
X47136Y24686D01*
X47269Y24486D01*
X47469Y24353D01*
X47705Y24306D01*
X47940Y24353D01*
X48140Y24486D01*
X48274Y24686D01*
X48310Y24869D01*
X48483Y24903D01*
X48682Y25037D01*
X48816Y25237D01*
X48863Y25472D01*
X48816Y25708D01*
X48682Y25908D01*
X48483Y26041D01*
X48387Y26060D01*
X48352Y26236D01*
X48218Y26435D01*
X48019Y26569D01*
X47783Y26616D01*
D02*
G37*
G36*
X42377Y25013D02*
X42141Y24966D01*
X41941Y24833D01*
X41808Y24633D01*
X41761Y24397D01*
X41808Y24162D01*
X41941Y23962D01*
X42141Y23828D01*
X42377Y23782D01*
X42612Y23828D01*
X42812Y23962D01*
X42945Y24162D01*
X42992Y24397D01*
X42945Y24633D01*
X42812Y24833D01*
X42612Y24966D01*
X42377Y25013D01*
D02*
G37*
G36*
X40884Y24517D02*
X40648Y24470D01*
X40449Y24337D01*
X40315Y24137D01*
X40268Y23902D01*
X40315Y23666D01*
X40449Y23466D01*
X40648Y23333D01*
X40884Y23286D01*
X41120Y23333D01*
X41319Y23466D01*
X41453Y23666D01*
X41500Y23902D01*
X41453Y24137D01*
X41319Y24337D01*
X41120Y24470D01*
X40884Y24517D01*
D02*
G37*
G36*
X46000Y25616D02*
X45764Y25569D01*
X45565Y25435D01*
X45431Y25236D01*
X45384Y25000D01*
X45431Y24764D01*
X45565Y24565D01*
X45641Y24514D01*
Y24386D01*
X45565Y24335D01*
X45431Y24136D01*
X45384Y23900D01*
X45425Y23693D01*
X45351Y23643D01*
X45217Y23443D01*
X45170Y23208D01*
X45217Y22972D01*
X45351Y22772D01*
X45550Y22639D01*
X45786Y22592D01*
X46022Y22639D01*
X46222Y22772D01*
X46355Y22972D01*
X46402Y23208D01*
X46361Y23415D01*
X46435Y23465D01*
X46569Y23664D01*
X46616Y23900D01*
X46569Y24136D01*
X46435Y24335D01*
X46359Y24386D01*
Y24514D01*
X46435Y24565D01*
X46569Y24764D01*
X46616Y25000D01*
X46569Y25236D01*
X46435Y25435D01*
X46236Y25569D01*
X46000Y25616D01*
D02*
G37*
G36*
X19504Y23216D02*
X19268Y23169D01*
X19068Y23036D01*
X18935Y22836D01*
X18888Y22600D01*
X18935Y22364D01*
X19068Y22165D01*
X19268Y22031D01*
X19504Y21984D01*
X19739Y22031D01*
X19939Y22165D01*
X20073Y22364D01*
X20119Y22600D01*
X20073Y22836D01*
X19939Y23036D01*
X19739Y23169D01*
X19504Y23216D01*
D02*
G37*
G36*
X22453Y22649D02*
X22217Y22602D01*
X22017Y22468D01*
X21884Y22269D01*
X21837Y22033D01*
X21884Y21797D01*
X22017Y21597D01*
X22217Y21464D01*
X22453Y21417D01*
X22688Y21464D01*
X22888Y21597D01*
X23021Y21797D01*
X23068Y22033D01*
X23021Y22269D01*
X22888Y22468D01*
X22688Y22602D01*
X22453Y22649D01*
D02*
G37*
G36*
X64020Y20348D02*
X63784Y20301D01*
X63585Y20168D01*
X63451Y19968D01*
X63404Y19732D01*
X63451Y19496D01*
X63585Y19297D01*
X63784Y19163D01*
X64020Y19116D01*
X64256Y19163D01*
X64455Y19297D01*
X64589Y19496D01*
X64636Y19732D01*
X64589Y19968D01*
X64455Y20168D01*
X64256Y20301D01*
X64020Y20348D01*
D02*
G37*
G36*
X25043Y18530D02*
X24807Y18483D01*
X24713Y18420D01*
X24618Y18483D01*
X24382Y18530D01*
X24147Y18483D01*
X23947Y18350D01*
X23813Y18150D01*
X23767Y17914D01*
X23813Y17679D01*
X23947Y17479D01*
X24147Y17345D01*
X24382Y17298D01*
X24618Y17345D01*
X24713Y17408D01*
X24807Y17345D01*
X25043Y17298D01*
X25278Y17345D01*
X25478Y17479D01*
X25612Y17679D01*
X25659Y17914D01*
X25612Y18150D01*
X25478Y18350D01*
X25278Y18483D01*
X25043Y18530D01*
D02*
G37*
G36*
X27004Y18720D02*
X26768Y18673D01*
X26568Y18540D01*
X26435Y18340D01*
X26388Y18104D01*
X26435Y17869D01*
X26568Y17669D01*
X26657Y17610D01*
X26658Y17576D01*
X26626Y17478D01*
X26525Y17457D01*
X26409Y17380D01*
X26331Y17264D01*
X26304Y17128D01*
Y16459D01*
X26219Y16368D01*
X26186Y16353D01*
X26111Y16368D01*
X25916Y16329D01*
X25751Y16218D01*
X25640Y16053D01*
X25601Y15858D01*
X25637Y15677D01*
X25594Y15625D01*
X25541Y15582D01*
X25361Y15618D01*
X25181Y15582D01*
X25128Y15625D01*
X25085Y15677D01*
X25121Y15858D01*
X25082Y16053D01*
X24972Y16218D01*
X24806Y16329D01*
X24611Y16368D01*
X24416Y16329D01*
X24251Y16218D01*
X24140Y16053D01*
X24101Y15858D01*
X24140Y15663D01*
X24251Y15497D01*
X24416Y15387D01*
X24611Y15348D01*
X24791Y15384D01*
X24844Y15341D01*
X24887Y15288D01*
X24851Y15108D01*
X24887Y14927D01*
X24844Y14875D01*
X24791Y14832D01*
X24611Y14868D01*
X24416Y14829D01*
X24251Y14718D01*
X24140Y14553D01*
X24101Y14358D01*
X24140Y14163D01*
X24251Y13997D01*
X24416Y13887D01*
X24611Y13848D01*
X24806Y13887D01*
X24972Y13997D01*
X25082Y14163D01*
X25121Y14358D01*
X25085Y14538D01*
X25128Y14591D01*
X25181Y14634D01*
X25361Y14598D01*
X25541Y14634D01*
X25594Y14591D01*
X25637Y14538D01*
X25601Y14358D01*
X25640Y14163D01*
X25751Y13997D01*
X25916Y13887D01*
X26111Y13848D01*
X26306Y13887D01*
X26472Y13997D01*
X26582Y14163D01*
X26621Y14358D01*
X26582Y14553D01*
X26472Y14718D01*
X26306Y14829D01*
X26111Y14868D01*
X25931Y14832D01*
X25878Y14875D01*
X25835Y14927D01*
X25871Y15108D01*
X25835Y15288D01*
X25878Y15341D01*
X25931Y15384D01*
X26111Y15348D01*
X26306Y15387D01*
X26472Y15497D01*
X26582Y15663D01*
X26621Y15858D01*
X26606Y15932D01*
X26621Y15965D01*
X26712Y16051D01*
X27381D01*
X27451Y16065D01*
X27583Y16053D01*
X27716Y15853D01*
X27916Y15720D01*
X28152Y15673D01*
X28388Y15720D01*
X28587Y15853D01*
X28721Y16053D01*
X28768Y16289D01*
X28721Y16524D01*
X28587Y16724D01*
X28388Y16858D01*
X28152Y16905D01*
X27916Y16858D01*
X27850Y16813D01*
X27738Y16873D01*
Y17128D01*
X27711Y17264D01*
X27633Y17380D01*
X27518Y17457D01*
X27390Y17483D01*
X27376Y17506D01*
X27354Y17612D01*
X27439Y17669D01*
X27573Y17869D01*
X27620Y18104D01*
X27573Y18340D01*
X27439Y18540D01*
X27240Y18673D01*
X27004Y18720D01*
D02*
G37*
G36*
X34253Y16894D02*
X34017Y16847D01*
X33817Y16714D01*
X33684Y16514D01*
X33637Y16278D01*
X33684Y16043D01*
X33817Y15843D01*
X34017Y15709D01*
X34253Y15663D01*
X34488Y15709D01*
X34688Y15843D01*
X34822Y16043D01*
X34869Y16278D01*
X34822Y16514D01*
X34688Y16714D01*
X34488Y16847D01*
X34253Y16894D01*
D02*
G37*
G36*
X32554Y17267D02*
X32322Y17236D01*
X32106Y17147D01*
X31920Y17004D01*
X31777Y16819D01*
X31688Y16602D01*
X31657Y16370D01*
X31688Y16138D01*
X31777Y15922D01*
X31920Y15736D01*
X32106Y15594D01*
X32322Y15504D01*
X32554Y15474D01*
X32786Y15504D01*
X33002Y15594D01*
X33188Y15736D01*
X33330Y15922D01*
X33420Y16138D01*
X33451Y16370D01*
X33420Y16602D01*
X33330Y16819D01*
X33188Y17004D01*
X33002Y17147D01*
X32786Y17236D01*
X32554Y17267D01*
D02*
G37*
G36*
X31700Y15437D02*
X31509Y15412D01*
X31331Y15339D01*
X31179Y15221D01*
X31061Y15069D01*
X30988Y14891D01*
X30963Y14700D01*
X30988Y14509D01*
X31061Y14331D01*
X31124Y14250D01*
X31061Y14169D01*
X30988Y13991D01*
X30963Y13800D01*
X30988Y13609D01*
X31061Y13431D01*
X31179Y13279D01*
X31331Y13161D01*
X31509Y13088D01*
X31700Y13063D01*
X31891Y13088D01*
X32069Y13161D01*
X32221Y13279D01*
X32339Y13431D01*
X32412Y13609D01*
X32437Y13800D01*
X32412Y13991D01*
X32339Y14169D01*
X32276Y14250D01*
X32339Y14331D01*
X32412Y14509D01*
X32437Y14700D01*
X32412Y14891D01*
X32339Y15069D01*
X32221Y15221D01*
X32069Y15339D01*
X31891Y15412D01*
X31700Y15437D01*
D02*
G37*
G36*
X66800Y9516D02*
X66564Y9469D01*
X66365Y9335D01*
X66231Y9136D01*
X66184Y8900D01*
X66231Y8664D01*
X66365Y8465D01*
X66564Y8331D01*
X66800Y8284D01*
X67036Y8331D01*
X67235Y8465D01*
X67369Y8664D01*
X67416Y8900D01*
X67369Y9136D01*
X67235Y9335D01*
X67036Y9469D01*
X66800Y9516D01*
D02*
G37*
G36*
X54186Y19424D02*
X53950Y19377D01*
X53751Y19243D01*
X53617Y19043D01*
X53570Y18808D01*
X53617Y18572D01*
X53751Y18372D01*
X53950Y18239D01*
X54186Y18192D01*
X54422Y18239D01*
X54622Y18372D01*
X54755Y18572D01*
X54802Y18808D01*
X54755Y19043D01*
X54622Y19243D01*
X54422Y19377D01*
X54186Y19424D01*
D02*
G37*
G36*
X42834Y19276D02*
X42599Y19229D01*
X42399Y19096D01*
X42265Y18896D01*
X42218Y18660D01*
X42265Y18425D01*
X42399Y18225D01*
X42599Y18091D01*
X42834Y18044D01*
X43070Y18091D01*
X43270Y18225D01*
X43403Y18425D01*
X43450Y18660D01*
X43403Y18896D01*
X43270Y19096D01*
X43070Y19229D01*
X42834Y19276D01*
D02*
G37*
G36*
X43321Y17756D02*
X43086Y17709D01*
X42886Y17576D01*
X42752Y17376D01*
X42705Y17141D01*
X42752Y16905D01*
X42886Y16705D01*
X43086Y16572D01*
X43321Y16525D01*
X43557Y16572D01*
X43757Y16705D01*
X43890Y16905D01*
X43937Y17141D01*
X43890Y17376D01*
X43757Y17576D01*
X43557Y17709D01*
X43321Y17756D01*
D02*
G37*
G36*
X45043Y16418D02*
X44808Y16372D01*
X44608Y16238D01*
X44474Y16038D01*
X44428Y15803D01*
X44474Y15567D01*
X44608Y15367D01*
X44808Y15234D01*
X45043Y15187D01*
X45279Y15234D01*
X45479Y15367D01*
X45612Y15567D01*
X45659Y15803D01*
X45612Y16038D01*
X45479Y16238D01*
X45279Y16372D01*
X45043Y16418D01*
D02*
G37*
G36*
X57365Y15968D02*
X57129Y15921D01*
X56929Y15788D01*
X56796Y15588D01*
X56749Y15352D01*
X56796Y15117D01*
X56929Y14917D01*
X57129Y14783D01*
X57365Y14737D01*
X57600Y14783D01*
X57800Y14917D01*
X57933Y15117D01*
X57980Y15352D01*
X57933Y15588D01*
X57800Y15788D01*
X57600Y15921D01*
X57365Y15968D01*
D02*
G37*
G36*
X54962Y16072D02*
X54784Y16048D01*
X54619Y15980D01*
X54477Y15871D01*
X54368Y15729D01*
X54299Y15563D01*
X54276Y15386D01*
X54299Y15208D01*
X54368Y15043D01*
X54477Y14901D01*
X54619Y14791D01*
X54784Y14723D01*
X54962Y14700D01*
X55140Y14723D01*
X55305Y14791D01*
X55447Y14901D01*
X55556Y15043D01*
X55625Y15208D01*
X55648Y15386D01*
X55625Y15563D01*
X55556Y15729D01*
X55447Y15871D01*
X55305Y15980D01*
X55140Y16048D01*
X54962Y16072D01*
D02*
G37*
G36*
X50742Y15738D02*
X50506Y15692D01*
X50306Y15558D01*
X50173Y15358D01*
X50126Y15123D01*
X50173Y14887D01*
X50306Y14687D01*
X50506Y14554D01*
X50742Y14507D01*
X50978Y14554D01*
X51177Y14687D01*
X51311Y14887D01*
X51358Y15123D01*
X51311Y15358D01*
X51177Y15558D01*
X50978Y15692D01*
X50742Y15738D01*
D02*
G37*
G36*
X43809D02*
X43573Y15692D01*
X43373Y15558D01*
X43240Y15358D01*
X43193Y15123D01*
X43240Y14887D01*
X43373Y14687D01*
X43573Y14554D01*
X43809Y14507D01*
X44044Y14554D01*
X44244Y14687D01*
X44378Y14887D01*
X44425Y15123D01*
X44378Y15358D01*
X44244Y15558D01*
X44044Y15692D01*
X43809Y15738D01*
D02*
G37*
G36*
X41894Y16470D02*
X41658Y16423D01*
X41458Y16289D01*
X41325Y16090D01*
X41278Y15854D01*
X41325Y15618D01*
X41408Y15495D01*
X41322Y15367D01*
X41275Y15131D01*
X41322Y14895D01*
X41420Y14750D01*
X41394Y14596D01*
X41325Y14550D01*
X41222Y14396D01*
X41128Y14459D01*
X40892Y14506D01*
X40656Y14459D01*
X40457Y14326D01*
X40323Y14126D01*
X40276Y13890D01*
X40323Y13654D01*
X40457Y13455D01*
X40639Y13333D01*
X40670Y13334D01*
Y13318D01*
X40892Y13274D01*
X41128Y13321D01*
X41328Y13455D01*
X41430Y13608D01*
X41525Y13545D01*
X41760Y13499D01*
X41996Y13545D01*
X42196Y13679D01*
X42329Y13879D01*
X42358Y14024D01*
X42587Y14069D01*
X42787Y14203D01*
X42921Y14403D01*
X42968Y14638D01*
X42921Y14874D01*
X42787Y15074D01*
X42587Y15207D01*
X42488Y15227D01*
X42460Y15367D01*
X42377Y15490D01*
X42463Y15618D01*
X42510Y15854D01*
X42463Y16090D01*
X42329Y16289D01*
X42130Y16423D01*
X41894Y16470D01*
D02*
G37*
G36*
X47604Y14770D02*
X47369Y14723D01*
X47169Y14589D01*
X47035Y14389D01*
X46989Y14154D01*
X47035Y13918D01*
X47169Y13718D01*
X47369Y13585D01*
X47604Y13538D01*
X47840Y13585D01*
X48040Y13718D01*
X48173Y13918D01*
X48220Y14154D01*
X48173Y14389D01*
X48040Y14589D01*
X47840Y14723D01*
X47604Y14770D01*
D02*
G37*
G36*
X53541Y13784D02*
X53254Y13746D01*
X52986Y13635D01*
X52756Y13459D01*
X52681Y13361D01*
X52609Y13368D01*
X52540Y13386D01*
X52415Y13574D01*
X52215Y13707D01*
X51980Y13754D01*
X51744Y13707D01*
X51544Y13574D01*
X51411Y13374D01*
X51364Y13138D01*
X51251Y13053D01*
X51101Y13023D01*
X50901Y12889D01*
X50768Y12689D01*
X50721Y12454D01*
X50751Y12303D01*
X50754Y12288D01*
X50634Y12239D01*
X50624Y12255D01*
X50522Y12406D01*
X50322Y12540D01*
X50087Y12587D01*
X49851Y12540D01*
X49651Y12406D01*
X49518Y12206D01*
X49471Y11971D01*
X49518Y11735D01*
X49651Y11535D01*
X49851Y11402D01*
X50087Y11355D01*
X50322Y11402D01*
X50522Y11535D01*
X50656Y11735D01*
X50703Y11971D01*
X50673Y12121D01*
X50670Y12136D01*
X50789Y12186D01*
X50800Y12170D01*
X50901Y12018D01*
X51101Y11885D01*
X51337Y11838D01*
X51498Y11870D01*
X51527Y11834D01*
X51561Y11753D01*
X51441Y11574D01*
X51395Y11339D01*
X51441Y11103D01*
X51575Y10903D01*
X51775Y10770D01*
X52010Y10723D01*
X52246Y10770D01*
X52446Y10903D01*
X52579Y11103D01*
X52626Y11339D01*
X52579Y11574D01*
X52446Y11774D01*
X52246Y11908D01*
X52010Y11955D01*
X51849Y11923D01*
X51820Y11959D01*
X51786Y12040D01*
X51906Y12218D01*
X51952Y12454D01*
X52065Y12539D01*
X52215Y12569D01*
X52309Y12632D01*
X52445Y12570D01*
X52469Y12387D01*
X52580Y12120D01*
X52756Y11890D01*
X52986Y11714D01*
X53254Y11603D01*
X53541Y11565D01*
X53828Y11603D01*
X54096Y11714D01*
X54325Y11890D01*
X54502Y12120D01*
X54612Y12387D01*
X54650Y12675D01*
X54612Y12962D01*
X54502Y13229D01*
X54325Y13459D01*
X54096Y13635D01*
X53828Y13746D01*
X53541Y13784D01*
D02*
G37*
G36*
X44295Y14246D02*
X44060Y14199D01*
X43860Y14066D01*
X43726Y13866D01*
X43679Y13630D01*
X43726Y13395D01*
X43860Y13195D01*
X44060Y13061D01*
X44295Y13015D01*
X44531Y13061D01*
X44731Y13195D01*
X44864Y13395D01*
X44911Y13630D01*
X44864Y13866D01*
X44731Y14066D01*
X44531Y14199D01*
X44295Y14246D01*
D02*
G37*
G36*
X59625Y13679D02*
X58896D01*
X58898Y13669D01*
X58915Y13602D01*
X58938Y13546D01*
X58966Y13500D01*
X58999Y13465D01*
X59037Y13439D01*
X59081Y13424D01*
X59129Y13419D01*
X58748D01*
Y12802D01*
X59365D01*
Y13123D01*
X59370Y13075D01*
X59385Y13031D01*
X59411Y12993D01*
X59446Y12960D01*
X59492Y12932D01*
X59549Y12909D01*
X59615Y12892D01*
X59625Y12890D01*
Y13679D01*
D02*
G37*
G36*
X58346D02*
X57617D01*
Y12802D01*
X58494D01*
Y13419D01*
X58113D01*
X58161Y13424D01*
X58204Y13439D01*
X58242Y13465D01*
X58275Y13500D01*
X58303Y13546D01*
X58326Y13602D01*
X58344Y13669D01*
X58346Y13679D01*
D02*
G37*
G36*
X58494Y12548D02*
X57617D01*
Y11671D01*
X58494D01*
Y12548D01*
D02*
G37*
G36*
X56081Y14916D02*
X55845Y14869D01*
X55645Y14735D01*
X55512Y14536D01*
X55465Y14300D01*
X55512Y14064D01*
X55645Y13865D01*
X55684Y13838D01*
X55670Y13695D01*
X55526Y13635D01*
X55296Y13459D01*
X55120Y13229D01*
X55009Y12962D01*
X54971Y12675D01*
X55009Y12387D01*
X55120Y12120D01*
X55296Y11890D01*
X55526Y11714D01*
X55794Y11603D01*
X56081Y11565D01*
X56368Y11603D01*
X56636Y11714D01*
X56865Y11890D01*
X57042Y12120D01*
X57152Y12387D01*
X57190Y12675D01*
X57152Y12962D01*
X57042Y13229D01*
X56865Y13459D01*
X56636Y13635D01*
X56491Y13695D01*
X56477Y13838D01*
X56516Y13865D01*
X56650Y14064D01*
X56697Y14300D01*
X56650Y14536D01*
X56516Y14735D01*
X56316Y14869D01*
X56081Y14916D01*
D02*
G37*
G36*
X59365Y12548D02*
X58748D01*
Y11671D01*
X59108D01*
X59168Y11559D01*
X59159Y11545D01*
X59112Y11309D01*
X59126Y11237D01*
X59028Y11156D01*
X58908Y11206D01*
X58621Y11244D01*
X58334Y11206D01*
X58066Y11095D01*
X57836Y10919D01*
X57660Y10689D01*
X57549Y10422D01*
X57511Y10135D01*
X57549Y9847D01*
X57660Y9580D01*
X57836Y9350D01*
X58066Y9174D01*
X58334Y9063D01*
X58621Y9025D01*
X58908Y9063D01*
X59176Y9174D01*
X59405Y9350D01*
X59582Y9580D01*
X59692Y9847D01*
X59730Y10135D01*
X59692Y10422D01*
X59625Y10584D01*
X59717Y10696D01*
X59728Y10693D01*
X59964Y10740D01*
X60163Y10874D01*
X60297Y11073D01*
X60344Y11309D01*
X60297Y11545D01*
X60163Y11745D01*
X59964Y11878D01*
X59728Y11925D01*
X59723Y11924D01*
X59625Y12005D01*
Y12340D01*
X59615Y12338D01*
X59549Y12320D01*
X59492Y12297D01*
X59446Y12269D01*
X59411Y12236D01*
X59385Y12198D01*
X59370Y12155D01*
X59365Y12107D01*
Y12548D01*
D02*
G37*
G36*
X50740Y10750D02*
X50504Y10703D01*
X50304Y10569D01*
X50171Y10370D01*
X50124Y10134D01*
X50171Y9898D01*
X50304Y9698D01*
X50504Y9565D01*
X50740Y9518D01*
X50975Y9565D01*
X51175Y9698D01*
X51309Y9898D01*
X51356Y10134D01*
X51309Y10370D01*
X51175Y10569D01*
X50975Y10703D01*
X50740Y10750D01*
D02*
G37*
G36*
X53541Y11244D02*
X53254Y11206D01*
X52986Y11095D01*
X52756Y10919D01*
X52580Y10689D01*
X52469Y10422D01*
X52431Y10135D01*
X52469Y9847D01*
X52580Y9580D01*
X52756Y9350D01*
X52986Y9174D01*
X53254Y9063D01*
X53541Y9025D01*
X53828Y9063D01*
X54096Y9174D01*
X54325Y9350D01*
X54502Y9580D01*
X54612Y9847D01*
X54650Y10135D01*
X54612Y10422D01*
X54502Y10689D01*
X54325Y10919D01*
X54096Y11095D01*
X53828Y11206D01*
X53541Y11244D01*
D02*
G37*
G36*
X43021Y11919D02*
X42668Y11873D01*
X42340Y11737D01*
X42058Y11521D01*
X41841Y11239D01*
X41705Y10910D01*
X41659Y10558D01*
Y10058D01*
X41705Y9705D01*
X41841Y9377D01*
X42058Y9095D01*
X42340Y8879D01*
X42668Y8743D01*
X43021Y8696D01*
X43373Y8743D01*
X43701Y8879D01*
X43983Y9095D01*
X44200Y9377D01*
X44336Y9705D01*
X44382Y10058D01*
Y10558D01*
X44336Y10910D01*
X44200Y11239D01*
X43983Y11521D01*
X43701Y11737D01*
X43373Y11873D01*
X43021Y11919D01*
D02*
G37*
G36*
X39886D02*
X39534Y11873D01*
X39205Y11737D01*
X38923Y11521D01*
X38707Y11239D01*
X38571Y10910D01*
X38524Y10558D01*
Y10058D01*
X38571Y9705D01*
X38707Y9377D01*
X38923Y9095D01*
X39205Y8879D01*
X39534Y8743D01*
X39886Y8696D01*
X40239Y8743D01*
X40567Y8879D01*
X40849Y9095D01*
X41065Y9377D01*
X41201Y9705D01*
X41248Y10058D01*
Y10558D01*
X41201Y10910D01*
X41065Y11239D01*
X40849Y11521D01*
X40567Y11737D01*
X40239Y11873D01*
X39886Y11919D01*
D02*
G37*
G36*
X46124D02*
X45771Y11873D01*
X45443Y11737D01*
X45161Y11521D01*
X44945Y11239D01*
X44809Y10910D01*
X44762Y10558D01*
Y10058D01*
X44809Y9705D01*
X44945Y9377D01*
X45161Y9095D01*
X45443Y8879D01*
X45771Y8743D01*
X46124Y8696D01*
X46476Y8743D01*
X46805Y8879D01*
X46865Y8925D01*
X46997Y8866D01*
X47032Y8691D01*
X47165Y8492D01*
X47365Y8358D01*
X47601Y8311D01*
X47836Y8358D01*
X48036Y8492D01*
X48169Y8691D01*
X48216Y8927D01*
X48169Y9163D01*
X48036Y9363D01*
X47836Y9496D01*
X47601Y9543D01*
X47501Y9523D01*
X47410Y9634D01*
X47439Y9705D01*
X47485Y10058D01*
Y10558D01*
X47439Y10910D01*
X47303Y11239D01*
X47087Y11521D01*
X46805Y11737D01*
X46476Y11873D01*
X46124Y11919D01*
D02*
G37*
G36*
X56081Y11244D02*
X55794Y11206D01*
X55526Y11095D01*
X55296Y10919D01*
X55120Y10689D01*
X55009Y10422D01*
X54971Y10135D01*
X55009Y9847D01*
X55120Y9580D01*
X55296Y9350D01*
X55526Y9174D01*
X55753Y9080D01*
X55777Y8966D01*
X55773Y8940D01*
X55645Y8855D01*
X55512Y8655D01*
X55465Y8419D01*
X55505Y8218D01*
X55402Y8138D01*
X55401Y8138D01*
X55305Y8211D01*
X55140Y8280D01*
X54962Y8303D01*
X54784Y8280D01*
X54619Y8211D01*
X54477Y8102D01*
X54368Y7960D01*
X54299Y7795D01*
X54276Y7617D01*
X54299Y7440D01*
X54368Y7274D01*
X54477Y7132D01*
X54619Y7023D01*
X54784Y6955D01*
X54962Y6931D01*
X55140Y6955D01*
X55305Y7023D01*
X55447Y7132D01*
X55556Y7274D01*
X55625Y7440D01*
X55648Y7617D01*
X55625Y7795D01*
X55596Y7864D01*
X55699Y7948D01*
X55845Y7850D01*
X56081Y7803D01*
X56316Y7850D01*
X56516Y7984D01*
X56650Y8184D01*
X56697Y8419D01*
X56650Y8655D01*
X56516Y8855D01*
X56389Y8940D01*
X56385Y8966D01*
X56408Y9080D01*
X56636Y9174D01*
X56865Y9350D01*
X57042Y9580D01*
X57152Y9847D01*
X57190Y10135D01*
X57152Y10422D01*
X57042Y10689D01*
X56865Y10919D01*
X56636Y11095D01*
X56368Y11206D01*
X56081Y11244D01*
D02*
G37*
G36*
X44691Y8193D02*
Y6822D01*
X45524D01*
Y7202D01*
X45530Y7154D01*
X45546Y7111D01*
X45574Y7073D01*
X45612Y7040D01*
X45662Y7012D01*
X45722Y6990D01*
X45793Y6972D01*
X45826Y6967D01*
X45786Y7272D01*
X45659Y7577D01*
X45458Y7839D01*
X45196Y8040D01*
X44891Y8167D01*
X44691Y8193D01*
D02*
G37*
G36*
X48908Y8304D02*
X48730Y8281D01*
X48565Y8212D01*
X48423Y8103D01*
X48313Y7961D01*
X48245Y7795D01*
X48222Y7618D01*
X48245Y7440D01*
X48313Y7275D01*
X48423Y7133D01*
X48565Y7024D01*
X48730Y6955D01*
X48908Y6932D01*
X49085Y6955D01*
X49251Y7024D01*
X49393Y7133D01*
X49502Y7275D01*
X49570Y7440D01*
X49594Y7618D01*
X49570Y7795D01*
X49502Y7961D01*
X49393Y8103D01*
X49251Y8212D01*
X49085Y8281D01*
X48908Y8304D01*
D02*
G37*
G36*
X44437Y8193D02*
X44236Y8167D01*
X43931Y8040D01*
X43669Y7839D01*
X43468Y7577D01*
X43342Y7272D01*
X43299Y6945D01*
Y6822D01*
X44437D01*
Y8193D01*
D02*
G37*
G36*
X41445Y8307D02*
X41093Y8260D01*
X40764Y8124D01*
X40482Y7908D01*
X40266Y7626D01*
X40130Y7297D01*
X40083Y6945D01*
Y6445D01*
X40099Y6326D01*
X40006Y6239D01*
X39886Y6263D01*
X39766Y6239D01*
X39673Y6326D01*
X39689Y6445D01*
Y6945D01*
X39642Y7297D01*
X39506Y7626D01*
X39290Y7908D01*
X39008Y8124D01*
X38680Y8260D01*
X38327Y8307D01*
X37975Y8260D01*
X37646Y8124D01*
X37364Y7908D01*
X37148Y7626D01*
X37012Y7297D01*
X36965Y6945D01*
Y6445D01*
X37012Y6093D01*
X37148Y5764D01*
X37364Y5482D01*
X37646Y5266D01*
X37975Y5130D01*
X38327Y5083D01*
X38680Y5130D01*
X39008Y5266D01*
X39189Y5405D01*
X39215Y5406D01*
X39347Y5366D01*
X39451Y5212D01*
X39650Y5078D01*
X39886Y5031D01*
X40122Y5078D01*
X40322Y5212D01*
X40425Y5366D01*
X40557Y5406D01*
X40583Y5405D01*
X40764Y5266D01*
X41093Y5130D01*
X41445Y5083D01*
X41798Y5130D01*
X42126Y5266D01*
X42408Y5482D01*
X42624Y5764D01*
X42760Y6093D01*
X42807Y6445D01*
Y6945D01*
X42760Y7297D01*
X42624Y7626D01*
X42408Y7908D01*
X42126Y8124D01*
X41798Y8260D01*
X41445Y8307D01*
D02*
G37*
G36*
X57359Y6627D02*
X57124Y6580D01*
X56924Y6447D01*
X56790Y6247D01*
X56744Y6011D01*
X56790Y5776D01*
X56924Y5576D01*
X57124Y5442D01*
X57359Y5395D01*
X57595Y5442D01*
X57795Y5576D01*
X57928Y5776D01*
X57975Y6011D01*
X57928Y6247D01*
X57795Y6447D01*
X57595Y6580D01*
X57359Y6627D01*
D02*
G37*
G36*
X45524Y6568D02*
X44691D01*
Y5197D01*
X44891Y5223D01*
X45196Y5350D01*
X45458Y5551D01*
X45659Y5813D01*
X45786Y6118D01*
X45826Y6423D01*
X45793Y6418D01*
X45722Y6401D01*
X45662Y6378D01*
X45612Y6350D01*
X45574Y6317D01*
X45546Y6279D01*
X45530Y6236D01*
X45524Y6188D01*
Y6568D01*
D02*
G37*
G36*
X44437D02*
X43299D01*
Y6445D01*
X43342Y6118D01*
X43468Y5813D01*
X43669Y5551D01*
X43931Y5350D01*
X44236Y5223D01*
X44437Y5197D01*
Y6568D01*
D02*
G37*
G36*
X50573Y6064D02*
X50338Y6017D01*
X50138Y5884D01*
X50004Y5684D01*
X49957Y5448D01*
X50004Y5213D01*
X50138Y5013D01*
X50338Y4879D01*
X50573Y4832D01*
X50809Y4879D01*
X51009Y5013D01*
X51142Y5213D01*
X51189Y5448D01*
X51142Y5684D01*
X51009Y5884D01*
X50809Y6017D01*
X50573Y6064D01*
D02*
G37*
%LPD*%
D11*
X34778Y38100D02*
X36561Y39882D01*
X7286Y47808D02*
X12386D01*
X32000Y38100D02*
X34778D01*
X30486Y36008D02*
Y44274D01*
X53586Y44308D02*
Y45065D01*
X52286Y43008D02*
X53586Y44308D01*
X40827Y43008D02*
X52286D01*
X62086Y43708D02*
Y46008D01*
X59886Y43691D02*
X62103D01*
X59513Y44064D02*
X59886Y43691D01*
X62103D02*
X65300Y40494D01*
Y39408D02*
Y40494D01*
X27868Y47708D02*
X28166Y47410D01*
X16186D02*
X16484Y47708D01*
X27868D01*
X28166Y46594D02*
Y47410D01*
X57289Y40808D02*
X57586Y41105D01*
Y43208D01*
X58443Y44064D01*
X59513D01*
X43898Y46208D02*
X53086D01*
X43600Y46505D02*
X43898Y46208D01*
X43600Y46505D02*
Y47300D01*
X26900Y24308D02*
Y25215D01*
X26602Y25513D02*
X26900Y25215D01*
X22986Y26608D02*
Y29696D01*
Y25513D02*
X26602D01*
X22986D02*
Y26608D01*
X9975Y21363D02*
X11468Y19870D01*
X13632D01*
X11468Y6726D02*
Y10476D01*
X18403Y32108D02*
Y35125D01*
X18550Y25513D02*
Y27108D01*
Y24788D02*
Y25513D01*
X13632Y19870D02*
X18550Y24788D01*
X65300Y39408D02*
X68000Y36708D01*
X16186Y44608D02*
X16586Y44208D01*
X16186Y44608D02*
Y47410D01*
X54054Y47175D02*
X60919D01*
X62086Y46008D01*
X53086Y46208D02*
X54054Y47175D01*
X53586Y45065D02*
X53629Y45108D01*
X60186D01*
X28166Y46594D02*
X28360Y46400D01*
X30486Y44274D01*
X12386Y47808D02*
X13486Y46708D01*
X13632Y19870D02*
X15997Y17506D01*
X11468Y10476D02*
X15711Y14719D01*
X17375D01*
X18786Y13308D02*
X21382D01*
X17375Y14719D02*
X18786Y13308D01*
X18619Y13474D02*
Y17506D01*
X18550Y25513D02*
X22986D01*
X15997Y17506D02*
X18619D01*
X36561Y39882D02*
X39467D01*
X20986Y44208D02*
X21741Y43453D01*
X16586Y44208D02*
X20986D01*
X21741Y42730D02*
Y43453D01*
X16837Y38100D02*
X29100D01*
X13486Y41450D02*
X16837Y38100D01*
X18403Y35125D02*
X19286Y36008D01*
X30486D01*
X4686Y37708D02*
X9744D01*
X13486Y41450D02*
Y46708D01*
X9744Y37708D02*
X13486Y41450D01*
X4686Y21710D02*
X4984Y21412D01*
X4686Y29808D02*
Y37708D01*
Y21710D02*
Y29808D01*
X4984Y21412D02*
X9492D01*
X23986Y30696D02*
Y33508D01*
X22986Y29696D02*
X23986Y30696D01*
X18334Y32108D02*
X18403D01*
X6400Y31900D02*
X18126D01*
X18334Y32108D01*
X39467Y39882D02*
X40827Y41243D01*
Y43037D01*
X40900Y43008D02*
Y45300D01*
X61386Y34503D02*
Y37908D01*
X59053Y40240D02*
X61386Y37908D01*
X49773Y34503D02*
X61386D01*
Y27108D02*
X64486D01*
X53886D02*
X61386D01*
X59053Y40240D02*
Y42908D01*
X61386Y27108D02*
Y34503D01*
X65386Y15008D02*
Y26208D01*
X64486Y27108D02*
X65386Y26208D01*
X53686Y26908D02*
X53886Y27108D01*
X49439Y34836D02*
X49773Y34503D01*
X24521Y21076D02*
X26093Y22649D01*
X22332Y21076D02*
X24521D01*
X18500Y21421D02*
Y22649D01*
X22332Y17980D02*
Y21076D01*
X18844D02*
X22332D01*
X18500Y21421D02*
X18844Y21076D01*
X41286Y26908D02*
X53686D01*
X38840Y21092D02*
X39138Y21390D01*
X38840Y13680D02*
Y21092D01*
X40009Y24740D02*
X41286Y26016D01*
Y26908D01*
X40009Y23587D02*
Y24740D01*
X39071Y22649D02*
X40009Y23587D01*
X26093Y22649D02*
X32023D01*
X33404Y24030D01*
Y25851D01*
X34452Y26899D01*
X32023Y22649D02*
X39071D01*
X39977Y26899D02*
X39986Y26908D01*
X34452Y26899D02*
X39977D01*
X58621Y12675D02*
Y16070D01*
X57574Y17116D02*
X58621Y16070D01*
X60378Y12615D02*
X61016Y11977D01*
X58681Y12615D02*
X60378D01*
X61016Y8379D02*
Y11977D01*
X58621Y12675D02*
X58681Y12615D01*
X45735Y17116D02*
X57574D01*
X41461Y21390D02*
X45735Y17116D01*
X49439Y36945D02*
X49488Y36993D01*
X49439Y34836D02*
Y36945D01*
X44528Y36008D02*
X49328Y40808D01*
X57289D01*
X30486Y36008D02*
X44528D01*
X44564Y6695D02*
X59332D01*
X61016Y8379D01*
X38840Y13680D02*
X39452Y13068D01*
X39138Y21390D02*
X41461D01*
X39452Y13068D02*
X40942D01*
D83*
X18056Y10308D02*
D03*
X24293D02*
D03*
X32090Y6695D02*
D03*
X30531Y10308D02*
D03*
X14937D02*
D03*
X21175D02*
D03*
X39886D02*
D03*
X36768D02*
D03*
X22734Y6695D02*
D03*
X35208D02*
D03*
X33649Y10308D02*
D03*
X28971Y6695D02*
D03*
X44564D02*
D03*
X16497D02*
D03*
X46124Y10308D02*
D03*
X27412D02*
D03*
X41445Y6695D02*
D03*
X19615D02*
D03*
X25852D02*
D03*
X13377D02*
D03*
X43021Y10308D02*
D03*
D84*
X3000Y3000D02*
D03*
X67000D02*
D03*
Y47000D02*
D03*
X3000D02*
D03*
D85*
X18200Y41700D02*
D03*
D86*
X2600Y22600D02*
D03*
Y16600D02*
D03*
Y18600D02*
D03*
Y20600D02*
D03*
X2500Y30998D02*
D03*
Y36998D02*
D03*
Y34998D02*
D03*
Y32998D02*
D03*
X49600Y47300D02*
D03*
X47600D02*
D03*
X45600D02*
D03*
X51600D02*
D03*
X34900Y45300D02*
D03*
X36900D02*
D03*
X38900D02*
D03*
X40900D02*
D03*
X38900Y47300D02*
D03*
X36900D02*
D03*
X34900D02*
D03*
X32900D02*
D03*
Y45300D02*
D03*
D87*
X2600Y14600D02*
D03*
X2500Y38998D02*
D03*
D88*
X38327Y6695D02*
D03*
D89*
X20740Y46400D02*
D03*
X23280D02*
D03*
X25820D02*
D03*
X28360D02*
D03*
D90*
X18200D02*
D03*
D91*
X53541Y10135D02*
D03*
Y12675D02*
D03*
X56081Y10135D02*
D03*
Y12675D02*
D03*
X58621Y10135D02*
D03*
D92*
Y12675D02*
D03*
D93*
X43600Y47300D02*
D03*
X40900D02*
D03*
D94*
X66800Y8900D02*
D03*
X38600Y32800D02*
D03*
X54025Y25675D02*
D03*
X47000Y21900D02*
D03*
X67200Y15800D02*
D03*
X67800Y18200D02*
D03*
X42400Y31800D02*
D03*
X62700D02*
D03*
X41135Y32300D02*
D03*
X47000D02*
D03*
X67700Y30200D02*
D03*
Y19400D02*
D03*
X67955Y15000D02*
D03*
X50800Y44900D02*
D03*
X62700Y19200D02*
D03*
X46000Y25000D02*
D03*
X56386Y28208D02*
D03*
X45786Y20608D02*
D03*
X62100Y42500D02*
D03*
X68260Y39708D02*
D03*
X48800Y45400D02*
D03*
X38700Y39100D02*
D03*
X39859Y28714D02*
D03*
X21708Y15758D02*
D03*
X22286Y15433D02*
D03*
X6594Y22700D02*
D03*
X9096Y25600D02*
D03*
X9269Y23869D02*
D03*
X9142Y23221D02*
D03*
X5645Y19810D02*
D03*
X15994Y34614D02*
D03*
X6200D02*
D03*
X25508Y26812D02*
D03*
X14350Y21833D02*
D03*
X61500Y38850D02*
D03*
X13380Y21641D02*
D03*
X14958Y34016D02*
D03*
X12849Y20951D02*
D03*
X12350Y21625D02*
D03*
X11850Y20951D02*
D03*
X6900Y13601D02*
D03*
X5895Y8338D02*
D03*
Y14109D02*
D03*
X17279Y34434D02*
D03*
X12713Y39329D02*
D03*
X12350Y28205D02*
D03*
X12724Y34031D02*
D03*
X12350Y32990D02*
D03*
X13850Y33473D02*
D03*
X10850Y21625D02*
D03*
X13850Y28205D02*
D03*
X14481Y28614D02*
D03*
X16678Y35108D02*
D03*
X23873Y41408D02*
D03*
X16656Y27355D02*
D03*
X17788Y26559D02*
D03*
X16662Y26679D02*
D03*
X12350Y13601D02*
D03*
X24000Y27642D02*
D03*
Y24370D02*
D03*
X44137Y38472D02*
D03*
X67309Y7532D02*
D03*
X5412Y36998D02*
D03*
X12200Y36046D02*
D03*
X67830Y35870D02*
D03*
X50886Y48008D02*
D03*
X14909Y42449D02*
D03*
X47000Y29200D02*
D03*
Y20600D02*
D03*
X50686Y21308D02*
D03*
Y22608D02*
D03*
Y28823D02*
D03*
X68239Y29490D02*
D03*
X67190Y28916D02*
D03*
X68239Y20249D02*
D03*
X62187Y19754D02*
D03*
X64020Y19732D02*
D03*
X67200Y18900D02*
D03*
X66047Y19200D02*
D03*
X34253Y16278D02*
D03*
X28152Y16289D02*
D03*
X46361Y21221D02*
D03*
X52590Y33322D02*
D03*
X55700Y42933D02*
D03*
X42033Y45202D02*
D03*
X51454Y28208D02*
D03*
X51470Y20024D02*
D03*
X52651Y25194D02*
D03*
X51850Y35782D02*
D03*
X51864Y33344D02*
D03*
X51971Y39460D02*
D03*
X53860Y39982D02*
D03*
X54425Y39493D02*
D03*
X21230Y41376D02*
D03*
X19321Y46407D02*
D03*
X14915Y47974D02*
D03*
X21774Y38847D02*
D03*
X27247Y26812D02*
D03*
X36697Y30116D02*
D03*
X66560Y30760D02*
D03*
X37802D02*
D03*
X60235Y31289D02*
D03*
X56532Y43637D02*
D03*
X44655Y45202D02*
D03*
X22148Y28990D02*
D03*
X23277Y44525D02*
D03*
X45766Y44662D02*
D03*
X45594Y45403D02*
D03*
X47600Y44903D02*
D03*
X44754Y33305D02*
D03*
X66000Y29700D02*
D03*
X63294Y33301D02*
D03*
X62572Y39458D02*
D03*
X25817Y45059D02*
D03*
X31252Y46438D02*
D03*
X58362Y46429D02*
D03*
X58363Y39386D02*
D03*
X57867Y45922D02*
D03*
X57863Y40416D02*
D03*
X60435Y39917D02*
D03*
X56536Y39920D02*
D03*
X63860Y39966D02*
D03*
X65287Y31391D02*
D03*
X64000Y32800D02*
D03*
X47205Y33283D02*
D03*
X49464Y33291D02*
D03*
X48297Y32299D02*
D03*
X48294Y33291D02*
D03*
X47191Y35945D02*
D03*
X47158Y39774D02*
D03*
X27873Y39778D02*
D03*
X19765Y36998D02*
D03*
X20347Y42016D02*
D03*
X27870Y42603D02*
D03*
X31766D02*
D03*
X32662Y42020D02*
D03*
X21671Y31753D02*
D03*
X37126Y41894D02*
D03*
X67900Y15800D02*
D03*
X21609Y30265D02*
D03*
X34890Y44375D02*
D03*
X26818Y44529D02*
D03*
X31252Y44532D02*
D03*
X14435Y32909D02*
D03*
X14822Y41558D02*
D03*
X14819Y38847D02*
D03*
X15436Y43848D02*
D03*
X14191Y43512D02*
D03*
X37802Y34434D02*
D03*
X37794Y35167D02*
D03*
X37791Y36830D02*
D03*
X63860Y36766D02*
D03*
X66176Y33179D02*
D03*
Y32242D02*
D03*
X22842Y31791D02*
D03*
X21827Y33724D02*
D03*
X21722Y17299D02*
D03*
X22205Y24621D02*
D03*
X24882Y41408D02*
D03*
X10750Y37636D02*
D03*
X6981Y44600D02*
D03*
X3747Y30998D02*
D03*
X5545Y16059D02*
D03*
X4643Y9350D02*
D03*
X10350Y16713D02*
D03*
X14808Y17400D02*
D03*
X13058Y13601D02*
D03*
X12811Y10500D02*
D03*
X5397Y42449D02*
D03*
X2365Y41558D02*
D03*
X16059Y13080D02*
D03*
X15578Y19500D02*
D03*
X16555Y10252D02*
D03*
X21744Y14608D02*
D03*
X20976Y14090D02*
D03*
X19365Y16255D02*
D03*
X25043Y17914D02*
D03*
X24382D02*
D03*
X13350Y18851D02*
D03*
X17279Y20329D02*
D03*
X15994Y23744D02*
D03*
X19228Y24799D02*
D03*
X22453Y22033D02*
D03*
X15962Y20812D02*
D03*
X14597Y12183D02*
D03*
Y16318D02*
D03*
X5645Y22600D02*
D03*
X11367Y28614D02*
D03*
X10848Y28205D02*
D03*
X9727Y27738D02*
D03*
X7858Y26950D02*
D03*
X7200Y26306D02*
D03*
X3000Y26734D02*
D03*
X26136Y23437D02*
D03*
X25508Y23706D02*
D03*
X41100Y39000D02*
D03*
X36003Y43867D02*
D03*
X44655Y41976D02*
D03*
X39819Y44437D02*
D03*
X33922Y41446D02*
D03*
X33857Y42476D02*
D03*
X38845Y42959D02*
D03*
X26894Y41384D02*
D03*
X32665Y43865D02*
D03*
X34886Y41408D02*
D03*
X5573Y35939D02*
D03*
X22323Y36880D02*
D03*
X23873Y43026D02*
D03*
X20737Y42916D02*
D03*
X22323Y39332D02*
D03*
X27857Y38912D02*
D03*
X26894Y39740D02*
D03*
X27004Y18104D02*
D03*
X35732Y25077D02*
D03*
X46000Y23900D02*
D03*
X45786Y23208D02*
D03*
X54186Y18808D02*
D03*
X22328Y35273D02*
D03*
X21245Y35341D02*
D03*
X7178Y38368D02*
D03*
X9889Y39871D02*
D03*
X9803Y41558D02*
D03*
X5397Y38368D02*
D03*
X5620Y29604D02*
D03*
X6200Y30800D02*
D03*
X3771Y23177D02*
D03*
X25224Y38920D02*
D03*
X27912Y29500D02*
D03*
X65600Y43700D02*
D03*
X7900Y6200D02*
D03*
X9200Y29800D02*
D03*
X47705Y24922D02*
D03*
X48247Y25472D02*
D03*
X47000Y19400D02*
D03*
X45713Y19300D02*
D03*
X51470Y25836D02*
D03*
X11850Y14109D02*
D03*
X11319Y14617D02*
D03*
X39886Y5647D02*
D03*
X24234Y6676D02*
D03*
X7553Y12525D02*
D03*
Y11802D02*
D03*
X16195Y8516D02*
D03*
X12534Y12520D02*
D03*
X12811Y8969D02*
D03*
X55700Y37161D02*
D03*
X51847Y38399D02*
D03*
X44147Y40876D02*
D03*
X45770Y40856D02*
D03*
X38850Y40876D02*
D03*
X37894Y40836D02*
D03*
X2072Y25100D02*
D03*
X2000Y6417D02*
D03*
X57225Y39011D02*
D03*
X54402Y38528D02*
D03*
X55136D02*
D03*
X47783Y26000D02*
D03*
X27412Y5164D02*
D03*
X19504Y22600D02*
D03*
X43800Y29300D02*
D03*
X43800Y33500D02*
D03*
X39900D02*
D03*
X46875Y18190D02*
D03*
X56081Y8419D02*
D03*
X61143Y5443D02*
D03*
X57359Y6011D02*
D03*
X50573Y5448D02*
D03*
X40512Y26177D02*
D03*
X39112Y26190D02*
D03*
X36717Y27684D02*
D03*
X37895Y28181D02*
D03*
X40072Y22270D02*
D03*
X57365Y15352D02*
D03*
X56081Y14300D02*
D03*
X59728Y11309D02*
D03*
X52010Y11339D02*
D03*
X51117Y33322D02*
D03*
X43493Y41894D02*
D03*
Y36722D02*
D03*
X37884Y41894D02*
D03*
X49500Y29700D02*
D03*
Y22700D02*
D03*
X50146Y35685D02*
D03*
X50799Y35782D02*
D03*
X50740Y10134D02*
D03*
X31219Y5165D02*
D03*
X42743Y26001D02*
D03*
X40892Y13890D02*
D03*
X40884Y23902D02*
D03*
X45043Y15803D02*
D03*
X51337Y12454D02*
D03*
X50087Y11971D02*
D03*
X47601Y8927D02*
D03*
X41390Y19910D02*
D03*
X51980Y13138D02*
D03*
X41894Y15854D02*
D03*
X42377Y24397D02*
D03*
X47604Y14154D02*
D03*
X43321Y17141D02*
D03*
X42834Y18660D02*
D03*
X41891Y15131D02*
D03*
X42352Y14638D02*
D03*
X50742Y15123D02*
D03*
X43809D02*
D03*
X44295Y13630D02*
D03*
X41760Y14114D02*
D03*
X28286Y13892D02*
D03*
X26342Y11968D02*
D03*
X27291Y12531D02*
D03*
X28077Y12597D02*
D03*
X62569Y36470D02*
D03*
X63299Y36263D02*
D03*
X65284Y36266D02*
D03*
D95*
X28600Y26100D02*
D03*
X31700Y14700D02*
D03*
Y13800D02*
D03*
X7286Y47808D02*
D03*
X26900Y24308D02*
D03*
X65300Y39408D02*
D03*
X53586Y45065D02*
D03*
X29100Y38100D02*
D03*
Y37300D02*
D03*
X32000Y38100D02*
D03*
Y37300D02*
D03*
X62103Y43691D02*
D03*
X60186Y45108D02*
D03*
X11468Y6726D02*
D03*
X28600Y25200D02*
D03*
X29600D02*
D03*
X51971Y44404D02*
D03*
X18403Y32108D02*
D03*
X18550Y27108D02*
D03*
X68000Y36708D02*
D03*
X32554Y16370D02*
D03*
X22986Y26608D02*
D03*
X21382Y13308D02*
D03*
X18619Y17506D02*
D03*
X9492Y21412D02*
D03*
X4686Y37708D02*
D03*
Y29808D02*
D03*
X21741Y42730D02*
D03*
X29600Y26896D02*
D03*
X62849Y27998D02*
D03*
X23986Y33508D02*
D03*
X6400Y31900D02*
D03*
X23500Y38100D02*
D03*
X28600Y26896D02*
D03*
X29600Y26100D02*
D03*
X59053Y42908D02*
D03*
X64486Y27108D02*
D03*
X65386Y15008D02*
D03*
X53686Y26908D02*
D03*
X18500Y22649D02*
D03*
X22332Y17980D02*
D03*
X40108Y19077D02*
D03*
Y19901D02*
D03*
X39986Y26908D02*
D03*
X40070Y21390D02*
D03*
X49488Y36993D02*
D03*
X40942Y13068D02*
D03*
D96*
X24611Y15858D02*
D03*
Y14358D02*
D03*
X26111D02*
D03*
Y15858D02*
D03*
X25361Y15108D02*
D03*
D97*
X11400Y23808D02*
D03*
X12600D02*
D03*
X13800D02*
D03*
X11400Y25008D02*
D03*
X12600D02*
D03*
X13800D02*
D03*
X11400Y26208D02*
D03*
X12600D02*
D03*
X13800D02*
D03*
D98*
X54962Y15386D02*
D03*
X48908Y7618D02*
D03*
X54962Y7617D02*
D03*
M02*
