G04*
G04 #@! TF.GenerationSoftware,Altium Limited,Altium Designer,21.9.2 (33)*
G04*
G04 Layer_Color=8388736*
%FSLAX43Y43*%
%MOMM*%
G71*
G04*
G04 #@! TF.SameCoordinates,9D24D331-474F-48DA-8462-8B92FA671CE3*
G04*
G04*
G04 #@! TF.FilePolarity,Negative*
G04*
G01*
G75*
%ADD48R,1.829X2.946*%
%ADD49R,1.153X1.003*%
%ADD50R,0.803X0.703*%
%ADD51R,1.103X1.703*%
%ADD52R,1.103X1.103*%
%ADD53R,0.803X1.153*%
%ADD54R,0.703X0.803*%
%ADD55R,2.353X0.803*%
%ADD56R,2.946X1.829*%
%ADD57R,2.703X2.503*%
%ADD58R,0.803X2.353*%
%ADD59R,0.703X0.703*%
%ADD60R,1.403X0.503*%
%ADD61R,0.803X1.003*%
%ADD62R,0.254X0.254*%
%ADD63R,2.503X1.723*%
%ADD64R,0.715X1.280*%
%ADD65R,1.003X1.153*%
%ADD66R,1.803X3.203*%
%ADD67R,6.903X6.903*%
%ADD68R,1.153X0.803*%
%ADD69R,0.303X0.303*%
%ADD70R,0.303X0.303*%
%ADD71R,1.203X1.503*%
%ADD72O,2.203X2.703*%
%ADD73C,4.703*%
%ADD74C,3.403*%
%ADD75C,1.303*%
%ADD76R,1.353X1.353*%
%ADD77O,2.203X2.703*%
%ADD78C,1.727*%
%ADD79R,1.727X1.727*%
%ADD80C,1.703*%
%ADD81R,1.703X1.703*%
%ADD82R,1.353X1.353*%
G36*
X33202Y39274D02*
X33207Y39273D01*
X33214Y39271D01*
X33216Y39270D01*
X33225Y39266D01*
X33233Y39260D01*
X33487Y39006D01*
X33487Y39006D01*
X33493Y38998D01*
X33497Y38989D01*
X33498Y38987D01*
X33500Y38980D01*
X33501Y38970D01*
Y36430D01*
X33501Y36430D01*
X33501Y36425D01*
X33500Y36420D01*
X33498Y36413D01*
X33497Y36411D01*
X33493Y36402D01*
X33487Y36394D01*
X33233Y36140D01*
X33233Y36140D01*
X33225Y36134D01*
X33216Y36130D01*
X33214Y36129D01*
X33207Y36127D01*
X33197Y36126D01*
X32308D01*
X32298Y36127D01*
X32289Y36130D01*
X32280Y36134D01*
X32272Y36140D01*
X32266Y36148D01*
X32262Y36157D01*
X32259Y36166D01*
X32258Y36176D01*
Y36875D01*
X32258Y36877D01*
X32258Y36879D01*
X32258Y36882D01*
X32259Y36884D01*
X32259Y36887D01*
X32260Y36889D01*
X32261Y36891D01*
X32262Y36894D01*
X32263Y36896D01*
X32264Y36898D01*
X32265Y36900D01*
X32266Y36902D01*
X32268Y36904D01*
X32269Y36906D01*
X32271Y36908D01*
X32272Y36910D01*
X32274Y36911D01*
X32276Y36913D01*
X32639Y37216D01*
Y38184D01*
X32276Y38487D01*
X32274Y38489D01*
X32272Y38490D01*
X32271Y38492D01*
X32269Y38494D01*
X32268Y38496D01*
X32266Y38498D01*
X32265Y38500D01*
X32264Y38502D01*
X32263Y38504D01*
X32262Y38506D01*
X32261Y38509D01*
X32260Y38511D01*
X32259Y38514D01*
X32259Y38516D01*
X32258Y38518D01*
X32258Y38521D01*
X32258Y38523D01*
X32258Y38526D01*
Y39224D01*
X32259Y39234D01*
X32262Y39243D01*
X32266Y39252D01*
X32272Y39260D01*
X32280Y39266D01*
X32289Y39270D01*
X32298Y39273D01*
X32308Y39274D01*
X33197D01*
X33197Y39274D01*
X33202Y39274D01*
D02*
G37*
G36*
X30403Y39274D02*
X31292D01*
X31302Y39273D01*
X31311Y39270D01*
X31320Y39266D01*
X31328Y39260D01*
X31334Y39252D01*
X31338Y39243D01*
X31341Y39234D01*
X31342Y39224D01*
Y38526D01*
X31342Y38523D01*
X31342Y38521D01*
X31342Y38518D01*
X31341Y38516D01*
X31341Y38514D01*
X31340Y38511D01*
X31339Y38509D01*
X31338Y38506D01*
X31337Y38504D01*
X31336Y38502D01*
X31335Y38500D01*
X31334Y38498D01*
X31332Y38496D01*
X31331Y38494D01*
X31329Y38492D01*
X31328Y38490D01*
X31326Y38489D01*
X31324Y38487D01*
X30961Y38184D01*
Y37216D01*
X31324Y36913D01*
X31326Y36911D01*
X31328Y36910D01*
X31329Y36908D01*
X31331Y36906D01*
X31332Y36904D01*
X31334Y36902D01*
X31335Y36900D01*
X31336Y36898D01*
X31337Y36896D01*
X31338Y36894D01*
X31339Y36891D01*
X31340Y36889D01*
X31341Y36887D01*
X31341Y36884D01*
X31342Y36882D01*
X31342Y36879D01*
X31342Y36877D01*
X31342Y36875D01*
Y36176D01*
X31341Y36166D01*
X31338Y36157D01*
X31334Y36148D01*
X31328Y36140D01*
X31320Y36134D01*
X31311Y36130D01*
X31302Y36127D01*
X31292Y36126D01*
X30403D01*
X30393Y36127D01*
X30386Y36129D01*
X30384Y36130D01*
X30375Y36134D01*
X30367Y36140D01*
X30367Y36140D01*
X30113Y36394D01*
X30107Y36402D01*
X30103Y36411D01*
X30102Y36413D01*
X30100Y36420D01*
X30099Y36425D01*
X30099Y36430D01*
X30099Y36430D01*
Y38970D01*
X30100Y38980D01*
X30102Y38987D01*
X30103Y38989D01*
X30107Y38998D01*
X30113Y39006D01*
X30113Y39006D01*
X30367Y39260D01*
X30375Y39266D01*
X30384Y39270D01*
X30386Y39271D01*
X30393Y39273D01*
X30398Y39274D01*
X30403Y39274D01*
X30403Y39274D01*
D02*
G37*
G36*
X18363Y38151D02*
X18376Y38149D01*
X18389Y38144D01*
X18401Y38139D01*
X18412Y38131D01*
X18422Y38122D01*
X18431Y38112D01*
X18439Y38101D01*
X18444Y38089D01*
X18449Y38076D01*
X18451Y38063D01*
X18452Y38050D01*
Y37352D01*
X19150D01*
X19163Y37351D01*
X19176Y37349D01*
X19189Y37344D01*
X19201Y37339D01*
X19212Y37331D01*
X19222Y37322D01*
X19231Y37312D01*
X19239Y37301D01*
X19244Y37289D01*
X19249Y37276D01*
X19251Y37263D01*
X19252Y37250D01*
Y35650D01*
X19251Y35637D01*
X19249Y35624D01*
X19244Y35611D01*
X19239Y35599D01*
X19231Y35588D01*
X19222Y35578D01*
X19212Y35569D01*
X19201Y35561D01*
X19189Y35556D01*
X19176Y35551D01*
X19163Y35549D01*
X19150Y35548D01*
X16750D01*
X16737Y35549D01*
X16724Y35551D01*
X16711Y35556D01*
X16699Y35561D01*
X16688Y35569D01*
X16678Y35578D01*
X16669Y35588D01*
X16661Y35599D01*
X16656Y35611D01*
X16651Y35624D01*
X16649Y35637D01*
X16648Y35650D01*
Y38050D01*
X16649Y38063D01*
X16651Y38076D01*
X16656Y38089D01*
X16661Y38101D01*
X16669Y38112D01*
X16678Y38122D01*
X16688Y38131D01*
X16699Y38139D01*
X16711Y38144D01*
X16724Y38149D01*
X16737Y38151D01*
X16750Y38152D01*
X18350D01*
X18363Y38151D01*
D02*
G37*
G36*
X26522Y17577D02*
X26533Y17575D01*
X26543Y17570D01*
X26552Y17565D01*
X26561Y17557D01*
X26568Y17549D01*
X26574Y17540D01*
X26578Y17529D01*
X26580Y17519D01*
X26581Y17508D01*
Y16683D01*
Y16648D01*
X26581Y16645D01*
Y16642D01*
X26581Y16640D01*
X26580Y16637D01*
X26580Y16634D01*
X26579Y16632D01*
X26579Y16629D01*
X26578Y16626D01*
X26577Y16624D01*
X26576Y16621D01*
X26549Y16557D01*
X26548Y16554D01*
X26547Y16552D01*
X26546Y16549D01*
X26544Y16547D01*
X26543Y16545D01*
X26541Y16542D01*
X26539Y16540D01*
X26538Y16538D01*
X26536Y16536D01*
X26534Y16534D01*
X26485Y16485D01*
X26483Y16483D01*
X26481Y16481D01*
X26479Y16479D01*
X26477Y16478D01*
X26474Y16476D01*
X26472Y16475D01*
X26469Y16473D01*
X26467Y16472D01*
X26465Y16471D01*
X26462Y16470D01*
X26398Y16443D01*
X26395Y16442D01*
X26393Y16441D01*
X26390Y16440D01*
X26387Y16440D01*
X26385Y16439D01*
X26382Y16438D01*
X26379Y16438D01*
X26376Y16438D01*
X26374D01*
X26371Y16438D01*
X26301D01*
X26299Y16438D01*
X26296D01*
X26293Y16438D01*
X26290Y16438D01*
X26288Y16439D01*
X26285Y16440D01*
X26282Y16440D01*
X26280Y16441D01*
X26277Y16442D01*
X26274Y16443D01*
X26210Y16470D01*
X26208Y16471D01*
X26205Y16472D01*
X26203Y16473D01*
X26200Y16475D01*
X26198Y16476D01*
X26196Y16478D01*
X26194Y16479D01*
X26191Y16481D01*
X26189Y16483D01*
X26187Y16485D01*
X26138Y16534D01*
X26136Y16536D01*
X26134Y16538D01*
X26133Y16540D01*
X26131Y16542D01*
X26130Y16545D01*
X26128Y16547D01*
X26127Y16549D01*
X26125Y16552D01*
X26124Y16554D01*
X26123Y16557D01*
X26096Y16621D01*
X26095Y16624D01*
X26094Y16626D01*
X26094Y16629D01*
X26093Y16632D01*
X26092Y16634D01*
X26092Y16637D01*
X26092Y16640D01*
X26091Y16642D01*
Y16645D01*
X26091Y16648D01*
Y16683D01*
Y17508D01*
X26092Y17519D01*
X26094Y17529D01*
X26099Y17540D01*
X26104Y17549D01*
X26111Y17557D01*
X26120Y17565D01*
X26129Y17570D01*
X26139Y17575D01*
X26150Y17577D01*
X26161Y17578D01*
X26511D01*
X26522Y17577D01*
D02*
G37*
G36*
X25872D02*
X25883Y17575D01*
X25893Y17570D01*
X25902Y17565D01*
X25911Y17557D01*
X25918Y17549D01*
X25924Y17540D01*
X25928Y17529D01*
X25930Y17519D01*
X25931Y17508D01*
Y16683D01*
Y16648D01*
X25931Y16645D01*
Y16642D01*
X25931Y16640D01*
X25930Y16637D01*
X25930Y16634D01*
X25929Y16632D01*
X25929Y16629D01*
X25928Y16626D01*
X25927Y16624D01*
X25926Y16621D01*
X25899Y16557D01*
X25898Y16554D01*
X25897Y16552D01*
X25896Y16549D01*
X25894Y16547D01*
X25893Y16545D01*
X25891Y16542D01*
X25889Y16540D01*
X25888Y16538D01*
X25886Y16536D01*
X25884Y16534D01*
X25835Y16485D01*
X25833Y16483D01*
X25831Y16481D01*
X25829Y16479D01*
X25827Y16478D01*
X25824Y16476D01*
X25822Y16475D01*
X25819Y16473D01*
X25817Y16472D01*
X25815Y16471D01*
X25812Y16470D01*
X25748Y16443D01*
X25745Y16442D01*
X25743Y16441D01*
X25740Y16440D01*
X25737Y16440D01*
X25735Y16439D01*
X25732Y16438D01*
X25729Y16438D01*
X25726Y16438D01*
X25724D01*
X25721Y16438D01*
X25651D01*
X25649Y16438D01*
X25646D01*
X25643Y16438D01*
X25640Y16438D01*
X25638Y16439D01*
X25635Y16440D01*
X25632Y16440D01*
X25630Y16441D01*
X25627Y16442D01*
X25624Y16443D01*
X25560Y16470D01*
X25558Y16471D01*
X25555Y16472D01*
X25553Y16473D01*
X25550Y16475D01*
X25548Y16476D01*
X25546Y16478D01*
X25544Y16479D01*
X25541Y16481D01*
X25539Y16483D01*
X25537Y16485D01*
X25488Y16534D01*
X25486Y16536D01*
X25484Y16538D01*
X25483Y16540D01*
X25481Y16542D01*
X25480Y16545D01*
X25478Y16547D01*
X25477Y16549D01*
X25475Y16552D01*
X25474Y16554D01*
X25473Y16557D01*
X25446Y16621D01*
X25445Y16624D01*
X25444Y16626D01*
X25444Y16629D01*
X25443Y16632D01*
X25442Y16634D01*
X25442Y16637D01*
X25442Y16640D01*
X25441Y16642D01*
Y16645D01*
X25441Y16648D01*
Y16683D01*
Y17508D01*
X25442Y17519D01*
X25444Y17529D01*
X25449Y17540D01*
X25454Y17549D01*
X25461Y17557D01*
X25470Y17565D01*
X25479Y17570D01*
X25489Y17575D01*
X25500Y17577D01*
X25511Y17578D01*
X25861D01*
X25872Y17577D01*
D02*
G37*
G36*
X25222D02*
X25233Y17575D01*
X25243Y17570D01*
X25252Y17565D01*
X25261Y17557D01*
X25268Y17549D01*
X25274Y17540D01*
X25278Y17529D01*
X25280Y17519D01*
X25281Y17508D01*
Y16683D01*
Y16648D01*
X25281Y16645D01*
Y16642D01*
X25281Y16640D01*
X25280Y16637D01*
X25280Y16634D01*
X25279Y16632D01*
X25279Y16629D01*
X25278Y16626D01*
X25277Y16624D01*
X25276Y16621D01*
X25249Y16557D01*
X25248Y16554D01*
X25247Y16552D01*
X25246Y16549D01*
X25244Y16547D01*
X25243Y16545D01*
X25241Y16542D01*
X25239Y16540D01*
X25238Y16538D01*
X25236Y16536D01*
X25234Y16534D01*
X25185Y16485D01*
X25183Y16483D01*
X25181Y16481D01*
X25179Y16479D01*
X25177Y16478D01*
X25174Y16476D01*
X25172Y16475D01*
X25169Y16473D01*
X25167Y16472D01*
X25165Y16471D01*
X25162Y16470D01*
X25098Y16443D01*
X25095Y16442D01*
X25093Y16441D01*
X25090Y16440D01*
X25087Y16440D01*
X25085Y16439D01*
X25082Y16438D01*
X25079Y16438D01*
X25076Y16438D01*
X25074D01*
X25071Y16438D01*
X25001D01*
X24999Y16438D01*
X24996D01*
X24993Y16438D01*
X24990Y16438D01*
X24988Y16439D01*
X24985Y16440D01*
X24982Y16440D01*
X24980Y16441D01*
X24977Y16442D01*
X24974Y16443D01*
X24910Y16470D01*
X24908Y16471D01*
X24905Y16472D01*
X24903Y16473D01*
X24900Y16475D01*
X24898Y16476D01*
X24896Y16478D01*
X24894Y16479D01*
X24891Y16481D01*
X24889Y16483D01*
X24887Y16485D01*
X24838Y16534D01*
X24836Y16536D01*
X24834Y16538D01*
X24833Y16540D01*
X24831Y16542D01*
X24830Y16545D01*
X24828Y16547D01*
X24827Y16549D01*
X24825Y16552D01*
X24824Y16554D01*
X24823Y16557D01*
X24796Y16621D01*
X24795Y16624D01*
X24794Y16626D01*
X24794Y16629D01*
X24793Y16632D01*
X24792Y16634D01*
X24792Y16637D01*
X24792Y16640D01*
X24791Y16642D01*
Y16645D01*
X24791Y16648D01*
Y16683D01*
Y17508D01*
X24792Y17519D01*
X24794Y17529D01*
X24799Y17540D01*
X24804Y17549D01*
X24811Y17557D01*
X24820Y17565D01*
X24829Y17570D01*
X24839Y17575D01*
X24850Y17577D01*
X24861Y17578D01*
X25211D01*
X25222Y17577D01*
D02*
G37*
G36*
X24572D02*
X24583Y17575D01*
X24593Y17570D01*
X24602Y17565D01*
X24611Y17557D01*
X24618Y17549D01*
X24624Y17540D01*
X24628Y17529D01*
X24630Y17519D01*
X24631Y17508D01*
Y16683D01*
Y16648D01*
X24631Y16645D01*
Y16642D01*
X24631Y16640D01*
X24630Y16637D01*
X24630Y16634D01*
X24629Y16632D01*
X24629Y16629D01*
X24628Y16626D01*
X24627Y16624D01*
X24626Y16621D01*
X24599Y16557D01*
X24598Y16554D01*
X24597Y16552D01*
X24596Y16549D01*
X24594Y16547D01*
X24593Y16545D01*
X24591Y16542D01*
X24589Y16540D01*
X24588Y16538D01*
X24586Y16536D01*
X24584Y16534D01*
X24535Y16485D01*
X24533Y16483D01*
X24531Y16481D01*
X24529Y16479D01*
X24527Y16478D01*
X24524Y16476D01*
X24522Y16475D01*
X24519Y16473D01*
X24517Y16472D01*
X24515Y16471D01*
X24512Y16470D01*
X24448Y16443D01*
X24445Y16442D01*
X24443Y16441D01*
X24440Y16440D01*
X24437Y16440D01*
X24435Y16439D01*
X24432Y16438D01*
X24429Y16438D01*
X24426Y16438D01*
X24424D01*
X24421Y16438D01*
X24351D01*
X24349Y16438D01*
X24346D01*
X24343Y16438D01*
X24340Y16438D01*
X24338Y16439D01*
X24335Y16440D01*
X24332Y16440D01*
X24330Y16441D01*
X24327Y16442D01*
X24324Y16443D01*
X24260Y16470D01*
X24258Y16471D01*
X24255Y16472D01*
X24253Y16473D01*
X24250Y16475D01*
X24248Y16476D01*
X24246Y16478D01*
X24244Y16479D01*
X24241Y16481D01*
X24239Y16483D01*
X24237Y16485D01*
X24188Y16534D01*
X24186Y16536D01*
X24184Y16538D01*
X24183Y16540D01*
X24181Y16542D01*
X24180Y16545D01*
X24178Y16547D01*
X24177Y16549D01*
X24175Y16552D01*
X24174Y16554D01*
X24173Y16557D01*
X24146Y16621D01*
X24145Y16624D01*
X24144Y16626D01*
X24144Y16629D01*
X24143Y16632D01*
X24142Y16634D01*
X24142Y16637D01*
X24142Y16640D01*
X24141Y16642D01*
Y16645D01*
X24141Y16648D01*
Y16683D01*
Y17508D01*
X24142Y17519D01*
X24144Y17529D01*
X24149Y17540D01*
X24154Y17549D01*
X24161Y17557D01*
X24170Y17565D01*
X24179Y17570D01*
X24189Y17575D01*
X24200Y17577D01*
X24211Y17578D01*
X24561D01*
X24572Y17577D01*
D02*
G37*
G36*
X27772Y16327D02*
X27783Y16325D01*
X27793Y16320D01*
X27802Y16315D01*
X27811Y16307D01*
X27818Y16299D01*
X27824Y16290D01*
X27828Y16279D01*
X27830Y16269D01*
X27831Y16258D01*
Y15908D01*
X27830Y15897D01*
X27828Y15886D01*
X27824Y15876D01*
X27818Y15867D01*
X27811Y15858D01*
X27802Y15851D01*
X27793Y15845D01*
X27783Y15841D01*
X27772Y15838D01*
X27761Y15838D01*
X26901D01*
X26899Y15838D01*
X26896D01*
X26893Y15838D01*
X26890Y15838D01*
X26888Y15839D01*
X26885Y15840D01*
X26882Y15840D01*
X26880Y15841D01*
X26877Y15842D01*
X26874Y15843D01*
X26810Y15870D01*
X26808Y15871D01*
X26805Y15872D01*
X26803Y15873D01*
X26800Y15875D01*
X26798Y15876D01*
X26796Y15878D01*
X26794Y15879D01*
X26791Y15881D01*
X26789Y15883D01*
X26787Y15885D01*
X26738Y15934D01*
X26736Y15936D01*
X26734Y15938D01*
X26733Y15940D01*
X26731Y15942D01*
X26729Y15945D01*
X26728Y15947D01*
X26727Y15949D01*
X26725Y15952D01*
X26724Y15954D01*
X26723Y15957D01*
X26696Y16021D01*
X26695Y16024D01*
X26694Y16026D01*
X26694Y16029D01*
X26693Y16032D01*
X26692Y16034D01*
X26692Y16037D01*
X26692Y16040D01*
X26691Y16042D01*
Y16045D01*
X26691Y16048D01*
Y16083D01*
Y16118D01*
X26691Y16120D01*
Y16123D01*
X26692Y16126D01*
X26692Y16129D01*
X26692Y16131D01*
X26693Y16134D01*
X26694Y16137D01*
X26694Y16139D01*
X26695Y16142D01*
X26696Y16144D01*
X26723Y16209D01*
X26724Y16211D01*
X26725Y16214D01*
X26727Y16216D01*
X26728Y16219D01*
X26730Y16221D01*
X26731Y16223D01*
X26733Y16225D01*
X26734Y16228D01*
X26736Y16229D01*
X26738Y16232D01*
X26787Y16281D01*
X26789Y16283D01*
X26791Y16285D01*
X26794Y16286D01*
X26796Y16288D01*
X26798Y16289D01*
X26800Y16291D01*
X26803Y16292D01*
X26805Y16294D01*
X26808Y16295D01*
X26810Y16296D01*
X26874Y16323D01*
X26877Y16324D01*
X26880Y16325D01*
X26882Y16325D01*
X26885Y16326D01*
X26888Y16327D01*
X26890Y16327D01*
X26893Y16327D01*
X26896Y16328D01*
X26899D01*
X26901Y16328D01*
X27761D01*
X27772Y16327D01*
D02*
G37*
G36*
X23824Y16328D02*
X23826D01*
X23829Y16327D01*
X23832Y16327D01*
X23835Y16327D01*
X23837Y16326D01*
X23840Y16325D01*
X23843Y16325D01*
X23845Y16324D01*
X23848Y16323D01*
X23912Y16296D01*
X23915Y16295D01*
X23917Y16294D01*
X23919Y16292D01*
X23922Y16291D01*
X23924Y16289D01*
X23927Y16288D01*
X23929Y16286D01*
X23931Y16285D01*
X23933Y16283D01*
X23935Y16281D01*
X23984Y16232D01*
X23986Y16229D01*
X23988Y16228D01*
X23989Y16225D01*
X23991Y16223D01*
X23993Y16221D01*
X23994Y16219D01*
X23996Y16216D01*
X23997Y16214D01*
X23998Y16211D01*
X23999Y16209D01*
X24026Y16144D01*
X24027Y16142D01*
X24028Y16139D01*
X24029Y16137D01*
X24029Y16134D01*
X24030Y16131D01*
X24030Y16129D01*
X24031Y16126D01*
X24031Y16123D01*
Y16120D01*
X24031Y16118D01*
Y16083D01*
Y16048D01*
X24031Y16045D01*
Y16042D01*
X24031Y16040D01*
X24030Y16037D01*
X24030Y16034D01*
X24029Y16032D01*
X24029Y16029D01*
X24028Y16026D01*
X24027Y16024D01*
X24026Y16021D01*
X23999Y15957D01*
X23998Y15954D01*
X23997Y15952D01*
X23996Y15949D01*
X23994Y15947D01*
X23993Y15945D01*
X23991Y15942D01*
X23989Y15940D01*
X23988Y15938D01*
X23986Y15936D01*
X23984Y15934D01*
X23935Y15885D01*
X23933Y15883D01*
X23931Y15881D01*
X23929Y15879D01*
X23927Y15878D01*
X23924Y15876D01*
X23922Y15875D01*
X23919Y15873D01*
X23917Y15872D01*
X23915Y15871D01*
X23912Y15870D01*
X23848Y15843D01*
X23845Y15842D01*
X23843Y15841D01*
X23840Y15840D01*
X23837Y15840D01*
X23835Y15839D01*
X23832Y15838D01*
X23829Y15838D01*
X23826Y15838D01*
X23824D01*
X23821Y15838D01*
X22961D01*
X22950Y15838D01*
X22939Y15841D01*
X22929Y15845D01*
X22920Y15851D01*
X22911Y15858D01*
X22904Y15867D01*
X22899Y15876D01*
X22894Y15886D01*
X22892Y15897D01*
X22891Y15908D01*
Y16258D01*
X22892Y16269D01*
X22894Y16279D01*
X22899Y16290D01*
X22904Y16299D01*
X22911Y16307D01*
X22920Y16315D01*
X22929Y16320D01*
X22939Y16325D01*
X22950Y16327D01*
X22961Y16328D01*
X23821D01*
X23824Y16328D01*
D02*
G37*
G36*
X27772Y15677D02*
X27783Y15675D01*
X27793Y15670D01*
X27802Y15665D01*
X27811Y15657D01*
X27818Y15649D01*
X27824Y15640D01*
X27828Y15630D01*
X27830Y15619D01*
X27831Y15608D01*
Y15258D01*
X27830Y15247D01*
X27828Y15236D01*
X27824Y15226D01*
X27818Y15217D01*
X27811Y15208D01*
X27802Y15201D01*
X27793Y15195D01*
X27783Y15191D01*
X27772Y15188D01*
X27761Y15188D01*
X26901D01*
X26899Y15188D01*
X26896D01*
X26893Y15188D01*
X26890Y15188D01*
X26888Y15189D01*
X26885Y15190D01*
X26882Y15190D01*
X26880Y15191D01*
X26877Y15192D01*
X26874Y15193D01*
X26810Y15220D01*
X26808Y15221D01*
X26805Y15222D01*
X26803Y15223D01*
X26800Y15225D01*
X26798Y15226D01*
X26796Y15228D01*
X26794Y15229D01*
X26791Y15231D01*
X26789Y15233D01*
X26787Y15235D01*
X26738Y15284D01*
X26736Y15286D01*
X26734Y15288D01*
X26733Y15290D01*
X26731Y15292D01*
X26729Y15295D01*
X26728Y15297D01*
X26727Y15299D01*
X26725Y15302D01*
X26724Y15304D01*
X26723Y15307D01*
X26696Y15371D01*
X26695Y15374D01*
X26694Y15376D01*
X26694Y15379D01*
X26693Y15382D01*
X26692Y15384D01*
X26692Y15387D01*
X26692Y15390D01*
X26691Y15392D01*
Y15395D01*
X26691Y15398D01*
Y15433D01*
Y15468D01*
X26691Y15470D01*
Y15473D01*
X26692Y15476D01*
X26692Y15479D01*
X26692Y15481D01*
X26693Y15484D01*
X26694Y15487D01*
X26694Y15489D01*
X26695Y15492D01*
X26696Y15494D01*
X26723Y15559D01*
X26724Y15561D01*
X26725Y15564D01*
X26727Y15566D01*
X26728Y15569D01*
X26730Y15571D01*
X26731Y15573D01*
X26733Y15575D01*
X26734Y15578D01*
X26736Y15579D01*
X26738Y15582D01*
X26787Y15631D01*
X26789Y15633D01*
X26791Y15635D01*
X26794Y15636D01*
X26796Y15638D01*
X26798Y15639D01*
X26800Y15641D01*
X26803Y15642D01*
X26805Y15644D01*
X26808Y15645D01*
X26810Y15646D01*
X26874Y15673D01*
X26877Y15674D01*
X26880Y15675D01*
X26882Y15675D01*
X26885Y15676D01*
X26888Y15677D01*
X26890Y15677D01*
X26893Y15677D01*
X26896Y15678D01*
X26899D01*
X26901Y15678D01*
X27761D01*
X27772Y15677D01*
D02*
G37*
G36*
X23824Y15678D02*
X23826D01*
X23829Y15677D01*
X23832Y15677D01*
X23835Y15677D01*
X23837Y15676D01*
X23840Y15675D01*
X23843Y15675D01*
X23845Y15674D01*
X23848Y15673D01*
X23912Y15646D01*
X23915Y15645D01*
X23917Y15644D01*
X23919Y15642D01*
X23922Y15641D01*
X23924Y15639D01*
X23927Y15638D01*
X23929Y15636D01*
X23931Y15635D01*
X23933Y15633D01*
X23935Y15631D01*
X23984Y15582D01*
X23986Y15579D01*
X23988Y15578D01*
X23989Y15575D01*
X23991Y15573D01*
X23993Y15571D01*
X23994Y15569D01*
X23996Y15566D01*
X23997Y15564D01*
X23998Y15561D01*
X23999Y15559D01*
X24026Y15494D01*
X24027Y15492D01*
X24028Y15489D01*
X24029Y15487D01*
X24029Y15484D01*
X24030Y15481D01*
X24030Y15479D01*
X24031Y15476D01*
X24031Y15473D01*
Y15470D01*
X24031Y15468D01*
Y15433D01*
Y15398D01*
X24031Y15395D01*
Y15392D01*
X24031Y15390D01*
X24030Y15387D01*
X24030Y15384D01*
X24029Y15382D01*
X24029Y15379D01*
X24028Y15376D01*
X24027Y15374D01*
X24026Y15371D01*
X23999Y15307D01*
X23998Y15304D01*
X23997Y15302D01*
X23996Y15299D01*
X23994Y15297D01*
X23993Y15295D01*
X23991Y15292D01*
X23989Y15290D01*
X23988Y15288D01*
X23986Y15286D01*
X23984Y15284D01*
X23935Y15235D01*
X23933Y15233D01*
X23931Y15231D01*
X23929Y15229D01*
X23927Y15228D01*
X23924Y15226D01*
X23922Y15225D01*
X23919Y15223D01*
X23917Y15222D01*
X23915Y15221D01*
X23912Y15220D01*
X23848Y15193D01*
X23845Y15192D01*
X23843Y15191D01*
X23840Y15190D01*
X23837Y15190D01*
X23835Y15189D01*
X23832Y15188D01*
X23829Y15188D01*
X23826Y15188D01*
X23824D01*
X23821Y15188D01*
X22961D01*
X22950Y15188D01*
X22939Y15191D01*
X22929Y15195D01*
X22920Y15201D01*
X22911Y15208D01*
X22904Y15217D01*
X22899Y15226D01*
X22894Y15236D01*
X22892Y15247D01*
X22891Y15258D01*
Y15608D01*
X22892Y15619D01*
X22894Y15630D01*
X22899Y15640D01*
X22904Y15649D01*
X22911Y15657D01*
X22920Y15665D01*
X22929Y15670D01*
X22939Y15675D01*
X22950Y15677D01*
X22961Y15678D01*
X23821D01*
X23824Y15678D01*
D02*
G37*
G36*
X27772Y15027D02*
X27783Y15025D01*
X27793Y15020D01*
X27802Y15015D01*
X27811Y15007D01*
X27818Y14999D01*
X27824Y14990D01*
X27828Y14979D01*
X27830Y14969D01*
X27831Y14958D01*
Y14608D01*
X27830Y14597D01*
X27828Y14586D01*
X27824Y14576D01*
X27818Y14567D01*
X27811Y14558D01*
X27802Y14551D01*
X27793Y14545D01*
X27783Y14541D01*
X27772Y14538D01*
X27761Y14538D01*
X26901D01*
X26899Y14538D01*
X26896D01*
X26893Y14538D01*
X26890Y14538D01*
X26888Y14539D01*
X26885Y14540D01*
X26882Y14540D01*
X26880Y14541D01*
X26877Y14542D01*
X26874Y14543D01*
X26810Y14570D01*
X26808Y14571D01*
X26805Y14572D01*
X26803Y14573D01*
X26800Y14575D01*
X26798Y14576D01*
X26796Y14578D01*
X26794Y14579D01*
X26791Y14581D01*
X26789Y14583D01*
X26787Y14585D01*
X26738Y14634D01*
X26736Y14636D01*
X26734Y14638D01*
X26733Y14640D01*
X26731Y14642D01*
X26730Y14645D01*
X26728Y14647D01*
X26727Y14649D01*
X26725Y14652D01*
X26724Y14654D01*
X26723Y14657D01*
X26696Y14721D01*
X26695Y14724D01*
X26694Y14726D01*
X26694Y14729D01*
X26693Y14732D01*
X26692Y14734D01*
X26692Y14737D01*
X26692Y14740D01*
X26691Y14742D01*
Y14745D01*
X26691Y14748D01*
Y14783D01*
Y14818D01*
X26691Y14820D01*
Y14823D01*
X26692Y14826D01*
X26692Y14829D01*
X26692Y14831D01*
X26693Y14834D01*
X26694Y14837D01*
X26694Y14839D01*
X26695Y14842D01*
X26696Y14844D01*
X26723Y14909D01*
X26724Y14911D01*
X26725Y14914D01*
X26727Y14916D01*
X26728Y14919D01*
X26729Y14921D01*
X26731Y14923D01*
X26733Y14925D01*
X26734Y14928D01*
X26736Y14929D01*
X26738Y14932D01*
X26787Y14981D01*
X26789Y14983D01*
X26791Y14985D01*
X26794Y14986D01*
X26796Y14988D01*
X26798Y14989D01*
X26800Y14991D01*
X26803Y14992D01*
X26805Y14994D01*
X26808Y14995D01*
X26810Y14996D01*
X26874Y15023D01*
X26877Y15024D01*
X26880Y15025D01*
X26882Y15025D01*
X26885Y15026D01*
X26888Y15027D01*
X26890Y15027D01*
X26893Y15027D01*
X26896Y15028D01*
X26899D01*
X26901Y15028D01*
X27761D01*
X27772Y15027D01*
D02*
G37*
G36*
X23824Y15028D02*
X23826D01*
X23829Y15027D01*
X23832Y15027D01*
X23835Y15027D01*
X23837Y15026D01*
X23840Y15025D01*
X23843Y15025D01*
X23845Y15024D01*
X23848Y15023D01*
X23912Y14996D01*
X23915Y14995D01*
X23917Y14994D01*
X23919Y14992D01*
X23922Y14991D01*
X23924Y14989D01*
X23927Y14988D01*
X23929Y14986D01*
X23931Y14985D01*
X23933Y14983D01*
X23935Y14981D01*
X23984Y14932D01*
X23986Y14929D01*
X23988Y14928D01*
X23989Y14925D01*
X23991Y14923D01*
X23993Y14921D01*
X23994Y14919D01*
X23996Y14916D01*
X23997Y14914D01*
X23998Y14911D01*
X23999Y14909D01*
X24026Y14844D01*
X24027Y14842D01*
X24028Y14839D01*
X24029Y14837D01*
X24029Y14834D01*
X24030Y14831D01*
X24030Y14829D01*
X24031Y14826D01*
X24031Y14823D01*
Y14820D01*
X24031Y14818D01*
Y14783D01*
Y14748D01*
X24031Y14745D01*
Y14742D01*
X24031Y14740D01*
X24030Y14737D01*
X24030Y14734D01*
X24029Y14732D01*
X24029Y14729D01*
X24028Y14726D01*
X24027Y14724D01*
X24026Y14721D01*
X23999Y14657D01*
X23998Y14654D01*
X23997Y14652D01*
X23996Y14649D01*
X23994Y14647D01*
X23993Y14645D01*
X23991Y14642D01*
X23989Y14640D01*
X23988Y14638D01*
X23986Y14636D01*
X23984Y14634D01*
X23935Y14585D01*
X23933Y14583D01*
X23931Y14581D01*
X23929Y14579D01*
X23927Y14578D01*
X23924Y14576D01*
X23922Y14575D01*
X23919Y14573D01*
X23917Y14572D01*
X23915Y14571D01*
X23912Y14570D01*
X23848Y14543D01*
X23845Y14542D01*
X23843Y14541D01*
X23840Y14540D01*
X23837Y14540D01*
X23835Y14539D01*
X23832Y14538D01*
X23829Y14538D01*
X23826Y14538D01*
X23824D01*
X23821Y14538D01*
X22961D01*
X22950Y14538D01*
X22939Y14541D01*
X22929Y14545D01*
X22920Y14551D01*
X22911Y14558D01*
X22904Y14567D01*
X22899Y14576D01*
X22894Y14586D01*
X22892Y14597D01*
X22891Y14608D01*
Y14958D01*
X22892Y14969D01*
X22894Y14979D01*
X22899Y14990D01*
X22904Y14999D01*
X22911Y15007D01*
X22920Y15015D01*
X22929Y15020D01*
X22939Y15025D01*
X22950Y15027D01*
X22961Y15028D01*
X23821D01*
X23824Y15028D01*
D02*
G37*
G36*
X27772Y14377D02*
X27783Y14375D01*
X27793Y14370D01*
X27802Y14365D01*
X27811Y14357D01*
X27818Y14349D01*
X27824Y14340D01*
X27828Y14330D01*
X27830Y14319D01*
X27831Y14308D01*
Y13958D01*
X27830Y13947D01*
X27828Y13936D01*
X27824Y13926D01*
X27818Y13917D01*
X27811Y13908D01*
X27802Y13901D01*
X27793Y13895D01*
X27783Y13891D01*
X27772Y13888D01*
X27761Y13888D01*
X26901D01*
X26899Y13888D01*
X26896D01*
X26893Y13888D01*
X26890Y13888D01*
X26888Y13889D01*
X26885Y13890D01*
X26882Y13890D01*
X26880Y13891D01*
X26877Y13892D01*
X26874Y13893D01*
X26810Y13920D01*
X26808Y13921D01*
X26805Y13922D01*
X26803Y13923D01*
X26800Y13925D01*
X26798Y13926D01*
X26796Y13928D01*
X26794Y13929D01*
X26791Y13931D01*
X26789Y13933D01*
X26787Y13935D01*
X26738Y13984D01*
X26736Y13986D01*
X26734Y13988D01*
X26733Y13990D01*
X26731Y13992D01*
X26730Y13995D01*
X26728Y13997D01*
X26727Y13999D01*
X26725Y14002D01*
X26724Y14004D01*
X26723Y14007D01*
X26696Y14071D01*
X26695Y14074D01*
X26694Y14076D01*
X26694Y14079D01*
X26693Y14082D01*
X26692Y14084D01*
X26692Y14087D01*
X26692Y14090D01*
X26691Y14092D01*
Y14095D01*
X26691Y14098D01*
Y14133D01*
Y14168D01*
X26691Y14170D01*
Y14173D01*
X26692Y14176D01*
X26692Y14179D01*
X26692Y14181D01*
X26693Y14184D01*
X26694Y14187D01*
X26694Y14189D01*
X26695Y14192D01*
X26696Y14194D01*
X26723Y14259D01*
X26724Y14261D01*
X26725Y14264D01*
X26727Y14266D01*
X26728Y14269D01*
X26729Y14271D01*
X26731Y14273D01*
X26733Y14275D01*
X26734Y14278D01*
X26736Y14279D01*
X26738Y14282D01*
X26787Y14331D01*
X26789Y14333D01*
X26791Y14335D01*
X26794Y14336D01*
X26796Y14338D01*
X26798Y14339D01*
X26800Y14341D01*
X26803Y14342D01*
X26805Y14344D01*
X26808Y14345D01*
X26810Y14346D01*
X26874Y14373D01*
X26877Y14374D01*
X26880Y14375D01*
X26882Y14375D01*
X26885Y14376D01*
X26888Y14377D01*
X26890Y14377D01*
X26893Y14377D01*
X26896Y14378D01*
X26899D01*
X26901Y14378D01*
X27761D01*
X27772Y14377D01*
D02*
G37*
G36*
X23824Y14378D02*
X23826D01*
X23829Y14377D01*
X23832Y14377D01*
X23835Y14377D01*
X23837Y14376D01*
X23840Y14375D01*
X23843Y14375D01*
X23845Y14374D01*
X23848Y14373D01*
X23912Y14346D01*
X23915Y14345D01*
X23917Y14344D01*
X23919Y14342D01*
X23922Y14341D01*
X23924Y14339D01*
X23927Y14338D01*
X23929Y14336D01*
X23931Y14335D01*
X23933Y14333D01*
X23935Y14331D01*
X23984Y14282D01*
X23986Y14279D01*
X23988Y14278D01*
X23989Y14275D01*
X23991Y14273D01*
X23993Y14271D01*
X23994Y14269D01*
X23996Y14266D01*
X23997Y14264D01*
X23998Y14261D01*
X23999Y14259D01*
X24026Y14194D01*
X24027Y14192D01*
X24028Y14189D01*
X24029Y14187D01*
X24029Y14184D01*
X24030Y14181D01*
X24030Y14179D01*
X24031Y14176D01*
X24031Y14173D01*
Y14170D01*
X24031Y14168D01*
Y14133D01*
Y14098D01*
X24031Y14095D01*
Y14092D01*
X24031Y14090D01*
X24030Y14087D01*
X24030Y14084D01*
X24029Y14082D01*
X24029Y14079D01*
X24028Y14076D01*
X24027Y14074D01*
X24026Y14071D01*
X23999Y14007D01*
X23998Y14004D01*
X23997Y14002D01*
X23996Y13999D01*
X23994Y13997D01*
X23993Y13995D01*
X23991Y13992D01*
X23989Y13990D01*
X23988Y13988D01*
X23986Y13986D01*
X23984Y13984D01*
X23935Y13935D01*
X23933Y13933D01*
X23931Y13931D01*
X23929Y13929D01*
X23927Y13928D01*
X23924Y13926D01*
X23922Y13925D01*
X23919Y13923D01*
X23917Y13922D01*
X23915Y13921D01*
X23912Y13920D01*
X23848Y13893D01*
X23845Y13892D01*
X23843Y13891D01*
X23840Y13890D01*
X23837Y13890D01*
X23835Y13889D01*
X23832Y13888D01*
X23829Y13888D01*
X23826Y13888D01*
X23824D01*
X23821Y13888D01*
X22961D01*
X22950Y13888D01*
X22939Y13891D01*
X22929Y13895D01*
X22920Y13901D01*
X22911Y13908D01*
X22904Y13917D01*
X22899Y13926D01*
X22894Y13936D01*
X22892Y13947D01*
X22891Y13958D01*
Y14308D01*
X22892Y14319D01*
X22894Y14330D01*
X22899Y14340D01*
X22904Y14349D01*
X22911Y14357D01*
X22920Y14365D01*
X22929Y14370D01*
X22939Y14375D01*
X22950Y14377D01*
X22961Y14378D01*
X23821D01*
X23824Y14378D01*
D02*
G37*
G36*
X26374Y13778D02*
X26376D01*
X26379Y13777D01*
X26382Y13777D01*
X26385Y13777D01*
X26387Y13776D01*
X26390Y13775D01*
X26393Y13775D01*
X26395Y13774D01*
X26398Y13773D01*
X26462Y13746D01*
X26465Y13745D01*
X26467Y13744D01*
X26469Y13742D01*
X26472Y13741D01*
X26474Y13739D01*
X26477Y13738D01*
X26479Y13736D01*
X26481Y13735D01*
X26483Y13733D01*
X26485Y13731D01*
X26534Y13682D01*
X26536Y13679D01*
X26538Y13678D01*
X26539Y13675D01*
X26541Y13673D01*
X26543Y13671D01*
X26544Y13669D01*
X26546Y13666D01*
X26547Y13664D01*
X26548Y13661D01*
X26549Y13659D01*
X26576Y13594D01*
X26577Y13592D01*
X26578Y13589D01*
X26579Y13587D01*
X26579Y13584D01*
X26580Y13581D01*
X26580Y13579D01*
X26581Y13576D01*
X26581Y13573D01*
Y13570D01*
X26581Y13568D01*
Y13533D01*
Y12708D01*
X26580Y12697D01*
X26578Y12686D01*
X26574Y12676D01*
X26568Y12667D01*
X26561Y12658D01*
X26552Y12651D01*
X26543Y12645D01*
X26533Y12641D01*
X26522Y12638D01*
X26511Y12638D01*
X26161D01*
X26150Y12638D01*
X26139Y12641D01*
X26129Y12645D01*
X26120Y12651D01*
X26111Y12658D01*
X26104Y12667D01*
X26099Y12676D01*
X26094Y12686D01*
X26092Y12697D01*
X26091Y12708D01*
Y13533D01*
Y13568D01*
X26091Y13570D01*
Y13573D01*
X26092Y13576D01*
X26092Y13579D01*
X26092Y13581D01*
X26093Y13584D01*
X26094Y13587D01*
X26094Y13589D01*
X26095Y13592D01*
X26096Y13594D01*
X26123Y13659D01*
X26124Y13661D01*
X26125Y13664D01*
X26127Y13666D01*
X26128Y13669D01*
X26129Y13671D01*
X26131Y13673D01*
X26133Y13675D01*
X26134Y13678D01*
X26136Y13679D01*
X26138Y13682D01*
X26187Y13731D01*
X26189Y13733D01*
X26191Y13735D01*
X26194Y13736D01*
X26196Y13738D01*
X26198Y13739D01*
X26200Y13741D01*
X26203Y13742D01*
X26205Y13744D01*
X26208Y13745D01*
X26210Y13746D01*
X26274Y13773D01*
X26277Y13774D01*
X26280Y13775D01*
X26282Y13775D01*
X26285Y13776D01*
X26288Y13777D01*
X26290Y13777D01*
X26293Y13777D01*
X26296Y13778D01*
X26299D01*
X26301Y13778D01*
X26371D01*
X26374Y13778D01*
D02*
G37*
G36*
X25724D02*
X25726D01*
X25729Y13777D01*
X25732Y13777D01*
X25735Y13777D01*
X25737Y13776D01*
X25740Y13775D01*
X25743Y13775D01*
X25745Y13774D01*
X25748Y13773D01*
X25812Y13746D01*
X25815Y13745D01*
X25817Y13744D01*
X25819Y13742D01*
X25822Y13741D01*
X25824Y13739D01*
X25826Y13738D01*
X25829Y13736D01*
X25831Y13735D01*
X25833Y13733D01*
X25835Y13731D01*
X25884Y13682D01*
X25886Y13679D01*
X25888Y13678D01*
X25889Y13675D01*
X25891Y13673D01*
X25893Y13671D01*
X25894Y13669D01*
X25896Y13666D01*
X25897Y13664D01*
X25898Y13661D01*
X25899Y13659D01*
X25926Y13594D01*
X25927Y13592D01*
X25928Y13589D01*
X25929Y13587D01*
X25929Y13584D01*
X25930Y13581D01*
X25930Y13579D01*
X25931Y13576D01*
X25931Y13573D01*
Y13570D01*
X25931Y13568D01*
Y13533D01*
Y12708D01*
X25930Y12697D01*
X25928Y12686D01*
X25924Y12676D01*
X25918Y12667D01*
X25911Y12658D01*
X25902Y12651D01*
X25893Y12645D01*
X25883Y12641D01*
X25872Y12638D01*
X25861Y12638D01*
X25511D01*
X25500Y12638D01*
X25489Y12641D01*
X25479Y12645D01*
X25470Y12651D01*
X25461Y12658D01*
X25454Y12667D01*
X25449Y12676D01*
X25444Y12686D01*
X25442Y12697D01*
X25441Y12708D01*
Y13533D01*
Y13568D01*
X25441Y13570D01*
Y13573D01*
X25442Y13576D01*
X25442Y13579D01*
X25442Y13581D01*
X25443Y13584D01*
X25444Y13587D01*
X25444Y13589D01*
X25445Y13592D01*
X25446Y13594D01*
X25473Y13659D01*
X25474Y13661D01*
X25475Y13664D01*
X25477Y13666D01*
X25478Y13669D01*
X25479Y13671D01*
X25481Y13673D01*
X25483Y13675D01*
X25484Y13678D01*
X25486Y13679D01*
X25488Y13682D01*
X25537Y13731D01*
X25539Y13733D01*
X25541Y13735D01*
X25544Y13736D01*
X25546Y13738D01*
X25548Y13739D01*
X25550Y13741D01*
X25553Y13742D01*
X25555Y13744D01*
X25558Y13745D01*
X25560Y13746D01*
X25624Y13773D01*
X25627Y13774D01*
X25630Y13775D01*
X25632Y13775D01*
X25635Y13776D01*
X25638Y13777D01*
X25640Y13777D01*
X25643Y13777D01*
X25646Y13778D01*
X25649D01*
X25651Y13778D01*
X25721D01*
X25724Y13778D01*
D02*
G37*
G36*
X25074D02*
X25076D01*
X25079Y13777D01*
X25082Y13777D01*
X25085Y13777D01*
X25087Y13776D01*
X25090Y13775D01*
X25093Y13775D01*
X25095Y13774D01*
X25098Y13773D01*
X25162Y13746D01*
X25165Y13745D01*
X25167Y13744D01*
X25169Y13742D01*
X25172Y13741D01*
X25174Y13739D01*
X25177Y13738D01*
X25179Y13736D01*
X25181Y13735D01*
X25183Y13733D01*
X25185Y13731D01*
X25234Y13682D01*
X25236Y13679D01*
X25238Y13678D01*
X25239Y13675D01*
X25241Y13673D01*
X25243Y13671D01*
X25244Y13669D01*
X25246Y13666D01*
X25247Y13664D01*
X25248Y13661D01*
X25249Y13659D01*
X25276Y13594D01*
X25277Y13592D01*
X25278Y13589D01*
X25279Y13587D01*
X25279Y13584D01*
X25280Y13581D01*
X25280Y13579D01*
X25281Y13576D01*
X25281Y13573D01*
Y13570D01*
X25281Y13568D01*
Y13533D01*
Y12708D01*
X25280Y12697D01*
X25278Y12686D01*
X25274Y12676D01*
X25268Y12667D01*
X25261Y12658D01*
X25252Y12651D01*
X25243Y12645D01*
X25233Y12641D01*
X25222Y12638D01*
X25211Y12638D01*
X24861D01*
X24850Y12638D01*
X24839Y12641D01*
X24829Y12645D01*
X24820Y12651D01*
X24811Y12658D01*
X24804Y12667D01*
X24799Y12676D01*
X24794Y12686D01*
X24792Y12697D01*
X24791Y12708D01*
Y13533D01*
Y13568D01*
X24791Y13570D01*
Y13573D01*
X24792Y13576D01*
X24792Y13579D01*
X24792Y13581D01*
X24793Y13584D01*
X24794Y13587D01*
X24794Y13589D01*
X24795Y13592D01*
X24796Y13594D01*
X24823Y13659D01*
X24824Y13661D01*
X24825Y13664D01*
X24827Y13666D01*
X24828Y13669D01*
X24830Y13671D01*
X24831Y13673D01*
X24833Y13675D01*
X24834Y13678D01*
X24836Y13679D01*
X24838Y13682D01*
X24887Y13731D01*
X24889Y13733D01*
X24891Y13735D01*
X24894Y13736D01*
X24896Y13738D01*
X24898Y13739D01*
X24900Y13741D01*
X24903Y13742D01*
X24905Y13744D01*
X24908Y13745D01*
X24910Y13746D01*
X24974Y13773D01*
X24977Y13774D01*
X24980Y13775D01*
X24982Y13775D01*
X24985Y13776D01*
X24988Y13777D01*
X24990Y13777D01*
X24993Y13777D01*
X24996Y13778D01*
X24999D01*
X25001Y13778D01*
X25071D01*
X25074Y13778D01*
D02*
G37*
G36*
X24424D02*
X24426D01*
X24429Y13777D01*
X24432Y13777D01*
X24435Y13777D01*
X24437Y13776D01*
X24440Y13775D01*
X24443Y13775D01*
X24445Y13774D01*
X24448Y13773D01*
X24512Y13746D01*
X24515Y13745D01*
X24517Y13744D01*
X24519Y13742D01*
X24522Y13741D01*
X24524Y13739D01*
X24527Y13738D01*
X24529Y13736D01*
X24531Y13735D01*
X24533Y13733D01*
X24535Y13731D01*
X24584Y13682D01*
X24586Y13679D01*
X24588Y13678D01*
X24589Y13675D01*
X24591Y13673D01*
X24593Y13671D01*
X24594Y13669D01*
X24596Y13666D01*
X24597Y13664D01*
X24598Y13661D01*
X24599Y13659D01*
X24626Y13594D01*
X24627Y13592D01*
X24628Y13589D01*
X24629Y13587D01*
X24629Y13584D01*
X24630Y13581D01*
X24630Y13579D01*
X24631Y13576D01*
X24631Y13573D01*
Y13570D01*
X24631Y13568D01*
Y13533D01*
Y12708D01*
X24630Y12697D01*
X24628Y12686D01*
X24624Y12676D01*
X24618Y12667D01*
X24611Y12658D01*
X24602Y12651D01*
X24593Y12645D01*
X24583Y12641D01*
X24572Y12638D01*
X24561Y12638D01*
X24211D01*
X24200Y12638D01*
X24189Y12641D01*
X24179Y12645D01*
X24170Y12651D01*
X24161Y12658D01*
X24154Y12667D01*
X24149Y12676D01*
X24144Y12686D01*
X24142Y12697D01*
X24141Y12708D01*
Y13533D01*
Y13568D01*
X24141Y13570D01*
Y13573D01*
X24142Y13576D01*
X24142Y13579D01*
X24142Y13581D01*
X24143Y13584D01*
X24144Y13587D01*
X24144Y13589D01*
X24145Y13592D01*
X24146Y13594D01*
X24173Y13659D01*
X24174Y13661D01*
X24175Y13664D01*
X24177Y13666D01*
X24178Y13669D01*
X24179Y13671D01*
X24181Y13673D01*
X24183Y13675D01*
X24184Y13678D01*
X24186Y13679D01*
X24188Y13682D01*
X24237Y13731D01*
X24239Y13733D01*
X24241Y13735D01*
X24244Y13736D01*
X24246Y13738D01*
X24248Y13739D01*
X24250Y13741D01*
X24253Y13742D01*
X24255Y13744D01*
X24258Y13745D01*
X24260Y13746D01*
X24324Y13773D01*
X24327Y13774D01*
X24330Y13775D01*
X24332Y13775D01*
X24335Y13776D01*
X24338Y13777D01*
X24340Y13777D01*
X24343Y13777D01*
X24346Y13778D01*
X24349D01*
X24351Y13778D01*
X24421D01*
X24424Y13778D01*
D02*
G37*
G36*
X19163Y14451D02*
X19176Y14449D01*
X19189Y14444D01*
X19201Y14439D01*
X19212Y14431D01*
X19222Y14422D01*
X19231Y14412D01*
X19239Y14401D01*
X19244Y14389D01*
X19249Y14376D01*
X19251Y14363D01*
X19252Y14350D01*
Y12750D01*
X19251Y12737D01*
X19249Y12724D01*
X19244Y12711D01*
X19239Y12699D01*
X19231Y12688D01*
X19222Y12678D01*
X19212Y12669D01*
X19201Y12661D01*
X19189Y12656D01*
X19176Y12651D01*
X19163Y12649D01*
X19150Y12648D01*
X18452D01*
Y11950D01*
X18451Y11937D01*
X18449Y11924D01*
X18444Y11911D01*
X18439Y11899D01*
X18431Y11888D01*
X18422Y11878D01*
X18412Y11869D01*
X18401Y11861D01*
X18389Y11856D01*
X18376Y11851D01*
X18363Y11849D01*
X18350Y11848D01*
X16750D01*
X16737Y11849D01*
X16724Y11851D01*
X16711Y11856D01*
X16699Y11861D01*
X16688Y11869D01*
X16678Y11878D01*
X16669Y11888D01*
X16661Y11899D01*
X16656Y11911D01*
X16651Y11924D01*
X16649Y11937D01*
X16648Y11950D01*
Y14350D01*
X16649Y14363D01*
X16651Y14376D01*
X16656Y14389D01*
X16661Y14401D01*
X16669Y14412D01*
X16678Y14422D01*
X16688Y14431D01*
X16699Y14439D01*
X16711Y14444D01*
X16724Y14449D01*
X16737Y14451D01*
X16750Y14452D01*
X19150D01*
X19163Y14451D01*
D02*
G37*
D48*
X31098Y26100D02*
D03*
X34502D02*
D03*
X31098Y29500D02*
D03*
X34502D02*
D03*
X22898Y20000D02*
D03*
X26302D02*
D03*
X27209Y36223D02*
D03*
X23805D02*
D03*
D49*
X36300Y36750D02*
D03*
Y38250D02*
D03*
X34600Y36750D02*
D03*
Y38250D02*
D03*
X13900Y45150D02*
D03*
Y46650D02*
D03*
X12200Y45150D02*
D03*
Y46650D02*
D03*
X10500Y45150D02*
D03*
Y46650D02*
D03*
X8800Y45150D02*
D03*
Y46650D02*
D03*
X4500Y23950D02*
D03*
Y25450D02*
D03*
Y27050D02*
D03*
Y28550D02*
D03*
X8700Y28450D02*
D03*
Y26950D02*
D03*
D50*
X27700Y31700D02*
D03*
X28700D02*
D03*
X24600Y30700D02*
D03*
X25600D02*
D03*
X6900Y8100D02*
D03*
X7900D02*
D03*
X6900Y9500D02*
D03*
X7900D02*
D03*
X26900Y22400D02*
D03*
X25900D02*
D03*
X56000Y45100D02*
D03*
X55000D02*
D03*
X67300Y15000D02*
D03*
X66300D02*
D03*
Y8200D02*
D03*
X67300D02*
D03*
X6200Y39200D02*
D03*
X7200D02*
D03*
X7400Y22100D02*
D03*
X8400D02*
D03*
Y23300D02*
D03*
X7400D02*
D03*
X7200Y40500D02*
D03*
X6200D02*
D03*
X24213Y38825D02*
D03*
X23213D02*
D03*
X25600Y29492D02*
D03*
X24600D02*
D03*
X36700Y21394D02*
D03*
X37700D02*
D03*
D51*
X46240Y34550D02*
D03*
X44970D02*
D03*
X47510D02*
D03*
X50050D02*
D03*
X48780D02*
D03*
X51320D02*
D03*
X52590D02*
D03*
X55130D02*
D03*
X53860D02*
D03*
X64020D02*
D03*
X65290D02*
D03*
X62750D02*
D03*
X61480D02*
D03*
X58940D02*
D03*
X60210D02*
D03*
X57670D02*
D03*
X56400D02*
D03*
X66560D02*
D03*
X67830D02*
D03*
Y17050D02*
D03*
X66560D02*
D03*
X56400D02*
D03*
X57670D02*
D03*
X60210D02*
D03*
X58940D02*
D03*
X61480D02*
D03*
X62750D02*
D03*
X65290D02*
D03*
X64020D02*
D03*
X53860D02*
D03*
X55130D02*
D03*
X52590D02*
D03*
X51320D02*
D03*
X48780D02*
D03*
X50050D02*
D03*
X47510D02*
D03*
X44970D02*
D03*
X46240D02*
D03*
D52*
X60030Y27300D02*
D03*
X61430Y28700D02*
D03*
X58630D02*
D03*
Y25900D02*
D03*
Y27300D02*
D03*
X60030Y25900D02*
D03*
Y28700D02*
D03*
X61430Y25900D02*
D03*
Y27300D02*
D03*
D53*
X9550Y8125D02*
D03*
X11450D02*
D03*
X10500Y10675D02*
D03*
X8850Y40525D02*
D03*
X10750D02*
D03*
X9800Y43075D02*
D03*
X57250Y45125D02*
D03*
X59150D02*
D03*
X58200Y47675D02*
D03*
D54*
X63300Y40800D02*
D03*
Y41800D02*
D03*
X61500Y36600D02*
D03*
Y37600D02*
D03*
X68000Y38800D02*
D03*
Y37800D02*
D03*
X62100Y40800D02*
D03*
Y41800D02*
D03*
X36700Y24200D02*
D03*
Y25200D02*
D03*
X37900Y24200D02*
D03*
Y25200D02*
D03*
X39900Y39700D02*
D03*
Y40700D02*
D03*
X38700Y37400D02*
D03*
Y38400D02*
D03*
X39900D02*
D03*
Y37400D02*
D03*
X41100Y40700D02*
D03*
Y39700D02*
D03*
X68000Y40800D02*
D03*
Y41800D02*
D03*
X8400Y24600D02*
D03*
Y25600D02*
D03*
X7200Y24600D02*
D03*
Y25600D02*
D03*
X6000Y24600D02*
D03*
Y25600D02*
D03*
Y27900D02*
D03*
Y26900D02*
D03*
X3000Y24600D02*
D03*
Y25600D02*
D03*
X7200Y30800D02*
D03*
Y29800D02*
D03*
Y26900D02*
D03*
Y27900D02*
D03*
X42300Y38400D02*
D03*
Y37400D02*
D03*
Y40700D02*
D03*
Y39700D02*
D03*
X8463Y30800D02*
D03*
Y29800D02*
D03*
X39100Y25200D02*
D03*
Y24200D02*
D03*
X41100Y28400D02*
D03*
Y27400D02*
D03*
D55*
X61775Y13805D02*
D03*
Y12535D02*
D03*
Y11265D02*
D03*
Y9995D02*
D03*
X66625Y13805D02*
D03*
Y12535D02*
D03*
Y11265D02*
D03*
Y9995D02*
D03*
D56*
X65700Y37798D02*
D03*
Y41202D02*
D03*
D57*
X35850Y33600D02*
D03*
X31550D02*
D03*
D58*
X38595Y30275D02*
D03*
X39865D02*
D03*
X41135D02*
D03*
X42405D02*
D03*
X38595Y35125D02*
D03*
X39865D02*
D03*
X41135D02*
D03*
X42405D02*
D03*
D59*
X17950Y36850D02*
D03*
Y13150D02*
D03*
D60*
X20650Y15750D02*
D03*
Y15250D02*
D03*
Y34750D02*
D03*
Y34250D02*
D03*
Y33750D02*
D03*
Y33250D02*
D03*
Y32750D02*
D03*
Y32250D02*
D03*
Y31750D02*
D03*
Y31250D02*
D03*
Y30750D02*
D03*
Y30250D02*
D03*
Y29750D02*
D03*
Y29250D02*
D03*
Y28750D02*
D03*
Y28250D02*
D03*
Y27750D02*
D03*
Y27250D02*
D03*
Y26750D02*
D03*
Y26250D02*
D03*
Y25750D02*
D03*
Y25250D02*
D03*
Y24750D02*
D03*
Y24250D02*
D03*
Y23750D02*
D03*
Y23250D02*
D03*
Y22750D02*
D03*
Y22250D02*
D03*
Y21750D02*
D03*
Y21250D02*
D03*
Y20750D02*
D03*
Y20250D02*
D03*
Y19750D02*
D03*
Y19250D02*
D03*
Y18750D02*
D03*
Y18250D02*
D03*
Y17750D02*
D03*
Y17250D02*
D03*
Y16750D02*
D03*
Y16250D02*
D03*
D61*
X29250Y33000D02*
D03*
X27550D02*
D03*
X38238Y22743D02*
D03*
X36538D02*
D03*
D62*
X32880Y37700D02*
D03*
X30721D02*
D03*
D63*
X38007Y17366D02*
D03*
Y13096D02*
D03*
D64*
X10850Y29544D02*
D03*
X11675D02*
D03*
X57890Y36787D02*
D03*
X58715D02*
D03*
D65*
X6750Y20700D02*
D03*
X8250D02*
D03*
X23385Y40385D02*
D03*
X24885D02*
D03*
D66*
X34195Y13808D02*
D03*
X29595D02*
D03*
D67*
X31895Y20458D02*
D03*
D68*
X29275Y30450D02*
D03*
Y28550D02*
D03*
X26925D02*
D03*
Y29500D02*
D03*
Y30450D02*
D03*
X29275Y29500D02*
D03*
D69*
X27261Y16083D02*
D03*
Y15433D02*
D03*
Y14783D02*
D03*
Y14133D02*
D03*
X26336Y13208D02*
D03*
X23461Y15433D02*
D03*
Y14783D02*
D03*
Y14133D02*
D03*
Y16083D02*
D03*
D70*
X25686Y13208D02*
D03*
X25036D02*
D03*
X24386D02*
D03*
X24386Y17008D02*
D03*
X25036D02*
D03*
X25686D02*
D03*
X26336D02*
D03*
D71*
X36900Y19681D02*
D03*
X38800D02*
D03*
D72*
X18056Y10308D02*
D03*
X24293D02*
D03*
X32090Y6695D02*
D03*
X30531Y10308D02*
D03*
X14937D02*
D03*
X21175D02*
D03*
X39886D02*
D03*
X36768D02*
D03*
X22734Y6695D02*
D03*
X35208D02*
D03*
X33649Y10308D02*
D03*
X28971Y6695D02*
D03*
X44564D02*
D03*
X16497D02*
D03*
X46124Y10308D02*
D03*
X27412D02*
D03*
X41445Y6695D02*
D03*
X19615D02*
D03*
X25852D02*
D03*
X13377D02*
D03*
X43021Y10308D02*
D03*
D73*
X3000Y3000D02*
D03*
X67000D02*
D03*
Y47000D02*
D03*
X3000D02*
D03*
D74*
X18200Y41700D02*
D03*
D75*
X2600Y22600D02*
D03*
Y16600D02*
D03*
Y18600D02*
D03*
Y20600D02*
D03*
X2500Y30998D02*
D03*
Y36998D02*
D03*
Y34998D02*
D03*
Y32998D02*
D03*
X49600Y47300D02*
D03*
X47600D02*
D03*
X45600D02*
D03*
X51600D02*
D03*
X34900Y45300D02*
D03*
X36900D02*
D03*
X38900D02*
D03*
X40900D02*
D03*
X38900Y47300D02*
D03*
X36900D02*
D03*
X34900D02*
D03*
X32900D02*
D03*
Y45300D02*
D03*
D76*
X2600Y14600D02*
D03*
X2500Y38998D02*
D03*
D77*
X38327Y6695D02*
D03*
D78*
X20740Y46400D02*
D03*
X23280D02*
D03*
X25820D02*
D03*
X28360D02*
D03*
D79*
X18200D02*
D03*
D80*
X53541Y10135D02*
D03*
Y12675D02*
D03*
X56081Y10135D02*
D03*
Y12675D02*
D03*
X58621Y10135D02*
D03*
D81*
Y12675D02*
D03*
D82*
X43600Y47300D02*
D03*
X40900D02*
D03*
M02*
